<svg xmlns="http://www.w3.org/2000/svg" width="1000" height="800.003" viewBox="99.994 0.023 1000 800.003"><path d="M453.67 384.703c1.996 5.858-1.736 48.43-14.147 62.272a127.687 127.687 0 0 1-33.11 22.783c-13.453 6.727-30.941 19.397-39.49 22.565a44.22 44.22 0 0 1-26.602 1.649 29.983 29.983 0 0 1-4.34-1.692 47.137 47.137 0 0 1-16.751-16.708 38.172 38.172 0 0 1-3.038-7.811 26.03 26.03 0 0 1-.607-11.761 7.858 7.858 0 0 0-.347-4.947 19.447 19.447 0 0 0-4.687-5.988 11.327 11.327 0 0 1-4.644-8.245 8.104 8.104 0 0 1 .607-2.82c2.43-5.469 13.236-9.591 26.038-9.591 13.843 0 25.256 4.687 26.602 10.675 0 0 1.779 7.421-4.557 9.591a72.573 72.573 0 0 1-12.715 2.734c-2.126 0-12.064 1.909-14.494 6.031a18.618 18.618 0 0 0 2.777 20.006 24.609 24.609 0 0 0 9.721 6.51 29.095 29.095 0 0 0 9.807 1.258 43.87 43.87 0 0 0 13.974-3.688c6.596-3.038 10.892-8.679 17.619-13.496 17.358-12.454 42.18-20.223 51.771-33.11 8.115-13.801 7.681-30.378 16.664-46.694 0 0 .955-1.735 2.17-1.519a2.041 2.041 0 0 1 1.779 1.996zM561.421 254.863c.564 2.387-17.792 2.126-21.351 18.399-6.075 27.817-36.409 19.745-52.074 41.312-3.689 4.34-7.204 3.646-8.983 2.04 8.679-11.066 18.704-28.641 24.172-35.15 8.375-10.024 40.14-30.767 58.236-26.601zM478.405 161.302a63.442 63.442 0 0 1 13.409 38.318c62.576-16.403 114.044-51.164 111.267-123.765a198.474 198.474 0 0 0-19.094-71.906c-1.042-2.344 0-3.472 0-3.472 1.476-1.215 3.124.391 3.124.391 21.395 27.513 41.009 98.855 24.822 137.694-22.826 54.852-68.392 68.565-99.506 88.18a134.501 134.501 0 0 0-27.947 23.824c-8.679 9.503-24.692 36.93-29.118 46.347 0 0-.825-16.924-24.519-27.687-2.777-1.258 35.758-43.873 39.62-66.092 4.687-27.079-13.019-63.705-35.237-69.433.001-.259 20.614-2.169 43.179 27.601z"/><path d="M597.18 227.741a78.762 78.762 0 0 1-9.157 50.816 121.724 121.724 0 0 1-26.037 33.024c-9.243 9.113-21.48 14.017-32.112 21.698-13.02-1.085-25.69-2.604-34.153-8.289 36.192-3.298 69.043-32.546 76.116-55.937 3.168-10.849 7.725-34.196-5.381-34.716-10.502-.26-24.648 7.334-35.584 13.019-12.542 6.466-32.33 17.358-34.066 12.542-4.773-8.202 19.225-24.042 33.241-31.289 18.963-9.764 50.295-23 67.133-.868zM487.909 338.486c2.69 4.73 3.124 8.68.911 16.794-9.981 36.844 2.257 89.829 2.083 129.45 0 5.555 7.638 65.787-8.68 66.222-3.731-.435-8.245-27.296-9.33-42.441-1.952-27.6-7.941-54.331-7.203-83.232 1.128-36.93-.694-61.796 12.021-88.224 1.041-2.604 4.773-2.431 4.773-2.431a5.172 5.172 0 0 1 2.474.564 8.293 8.293 0 0 1 2.951 3.298zM321.486 597.473c-7.464 0-8.375-12.759-9.547-19.095-1.432-7.854-.521-17.618-1.997-27.643l-.434-2.604-1.91 2.04c-14.798 16.187-30.377 33.501-62.533 35.584-17.879 1.172-37.06-.911-55.894 2.083-20.005 3.168-40.185 15.319-57.977 20.7a39.058 39.058 0 0 1-27.86-3.081c-4.079-1.519-2.69-3.516-2.69-3.516a38.367 38.367 0 0 1 14.668-8.679c13.626-4.34 53.333-20.83 62.099-22.782 29.162-6.423 60.754 1.996 88.006-5.164 19.789-5.208 39.056-33.589 44.524-54.853 2.387-9.33 4.34-15.449 7.855-15.84a3.819 3.819 0 0 1 3.905 2.257 150.366 150.366 0 0 1 5.294 43.916c-.868 19.051 5.902 53.551-2.343 56.415-1.04.209-2.103.297-3.166.262zM444.947 346.775c-9.591-3.168-25.69 0-31.071 2.3-8.68 3.775-10.068 14.451-10.806 21.134a11.634 11.634 0 0 0 .26 5.425 3.514 3.514 0 0 0 4.34 1.648c.825 0 5.251-1.041 6.77-1.389 13.02-1.953 23.998 0 29.119-10.589a33.247 33.247 0 0 0 2.82-10.936c.955-5.987-1.432-7.593-1.432-7.593zm-12.194 12.108a11.169 11.169 0 0 1-4.34-1.129c-.781-1.345.478-4.339.478-4.339a4.08 4.08 0 0 1 7.899 1.388 4.342 4.342 0 0 1-4.037 4.08zM336.284 256.686c-7.811-6.813-17.358-23.998-20.049-40.705a87.533 87.533 0 0 1 9.417-52.943 45.31 45.31 0 0 1 11.066-14.538 22.046 22.046 0 0 0-11.673 3.602s-14.885 8.028-22.436 31.288a60.327 60.327 0 0 0-2.561 8.94h-.651a162.814 162.814 0 0 1-30.377-11.543c-21.698-11.196-41.183-30.377-46.65-55.417-6.423-29.466 5.858-56.414 19.311-78.112a1.128 1.128 0 0 0-.478-1.476 3.345 3.345 0 0 0-2.907 0c-7.551 3.602-48.604 45.826-25.604 108.489 12.411 33.806 57.152 55.851 79.11 65.094 0 0 2.126.781 3.775 1.302a264.693 264.693 0 0 0 4.773 31.939 97.085 97.085 0 0 0 7.941 22.696c-5.338 6.727-4.773 19.354-8.679 27.383 0 0-1.475 3.038-2.604 5.208l-.304.478-1.432-1.172c-10.415-9.113-11.153-24.432-16.838-35.845-12.107-24.171-34.977-33.241-60.754-43.873-9.634 6.249-8.766 19.875-6.553 33.111 2.257 14.19 10.285 28.121 16.273 40.532a52.602 52.602 0 0 0 23.737 23.043c9.591 3.905 19.615 5.164 23.781-1.909a1.78 1.78 0 0 0-.391-2.17c-.478-.868-3.428-1.605-3.428-1.605-3.428-1.346-6.466-2.387-9.374-3.385-19.485-7.812-24.302-19.442-24.302-19.442-8.679-15.796-16.621-35.498-8.679-48.646 18.356 7.551 18.704 6.553 30.377 19.658 9.504 10.719 6.77 27.904 13.757 41.183 2.126 4.079 12.498 7.377 16.881 11.673l.347.348c-.304.391-1.389 2.777-1.389 2.777s-4.86 11.717 1.476 20.482c5.207 8.679 4.99 20.656 13.669 26.559 2.126 1.475 4.339 2.733 9.677 5.944 4.687 2.777 11.066 5.382 12.064 3.603 2.083-19.354.738-42.268-22.653-36.322 1.432-24.432 20.526-50.947 21.915-53.55a34.716 34.716 0 0 1 21.177-15.623c10.198-2.821 20.439-2.387 28.554-10.806-14.444-2.128-28.721 2.168-38.312-6.25zm-26.471 94.039a4.08 4.08 0 0 1 3.819 2.69s1.258 2.994.477 4.339a11.2 11.2 0 0 1-4.339 1.129 4.34 4.34 0 0 1-4.079-4.079 4.079 4.079 0 0 1 4.121-4.037l.045.001-.044-.043zM611.283 557.375v-16.491H553.22v105.973h18.183v-47.735h39.881v-16.49h-39.881v-25.213l39.88-.044zM680.499 586.146a36.933 36.933 0 0 0-26.775-10.414 37.62 37.62 0 0 0-27.035 10.328c-14.261 14.177-14.328 37.229-.151 51.489l.151.151a36.972 36.972 0 0 0 26.558 10.284 38.448 38.448 0 0 0 27.166-10.11 33.548 33.548 0 0 0 10.893-25.517 35.246 35.246 0 0 0-10.807-26.211zm-12.107 40.184a20.31 20.31 0 0 1-14.841 5.686 20.701 20.701 0 0 1-15.016-5.642 19.223 19.223 0 0 1-5.771-14.581 20.177 20.177 0 0 1 5.642-14.842 19.178 19.178 0 0 1 14.494-5.771 20.786 20.786 0 0 1 15.188 5.815c7.902 8.131 7.998 21.044.217 29.292l.087.043zM751.364 582.544a25.562 25.562 0 0 0-16.925-8.115c-6.292 0-12.324 4.34-18.355 13.02v-11.587h-16.795v70.995h16.925v-37.104a21.696 21.696 0 0 1 4.34-13.583 12.02 12.02 0 0 1 9.807-5.468 18.27 18.27 0 0 1 11.717 6.119l1.562 1.476 8.68-14.798-.956-.955zM816.458 610.708a39.363 39.363 0 0 0-8.419-26.298 28.507 28.507 0 0 0-22.739-9.981 30.94 30.94 0 0 0-23.954 10.242 37.796 37.796 0 0 0-9.2 26.037 39.922 39.922 0 0 0 4.34 18.921 35.46 35.46 0 0 0 11.63 13.019 33.574 33.574 0 0 0 19.007 4.946c4.95.08 9.888-.533 14.668-1.822a46.214 46.214 0 0 0 12.715-6.075l.781-.521v-17.358l-2.734 1.996a39.06 39.06 0 0 1-23.347 7.812c-10.406.641-19.36-7.276-20.001-17.682l-.004-.067h47.258v-3.169zM785.3 589.531a13.538 13.538 0 0 1 10.241 3.775 15.874 15.874 0 0 1 3.949 9.33h-29.596a18.911 18.911 0 0 1 4.86-9.287 14.709 14.709 0 0 1 10.371-3.818h.175zM857.119 604.633l-4.729-2.69a34.711 34.711 0 0 1-7.204-4.86 4.643 4.643 0 0 1-1.605-3.255 3.34 3.34 0 0 1 1.649-2.951 9.116 9.116 0 0 1 5.294-1.345 39.495 39.495 0 0 1 18.573 6.899l2.604 1.562v-17.358l-.912-.478a44.772 44.772 0 0 0-21.134-5.814 25.73 25.73 0 0 0-16.707 5.294 17.357 17.357 0 0 0-6.683 14.017 19.484 19.484 0 0 0 4.339 12.194 59.866 59.866 0 0 0 17.358 12.759 45.414 45.414 0 0 1 7.985 5.337 4.993 4.993 0 0 1 1.432 3.689 4.339 4.339 0 0 1-2.257 3.515 10.629 10.629 0 0 1-6.205 1.735 25.608 25.608 0 0 1-9.243-2.3 59.752 59.752 0 0 1-11.196-6.205l-2.69-1.91v18.747l.954.478a75.17 75.17 0 0 0 12.107 4.86 42.894 42.894 0 0 0 11.153 1.346 27.122 27.122 0 0 0 17.749-5.686 18.569 18.569 0 0 0 7.116-14.971c.001-8.289-5.944-15.927-17.748-22.609zM929.98 628.066a28.727 28.727 0 0 1-14.276 4.34c-3.385 0-7.854-.999-7.854-9.852V591.31h21.221v-15.448H907.85v-16.447l-28.598 28.164v3.775h11.803v28.207a58.81 58.81 0 0 0 .912 13.019 20.915 20.915 0 0 0 2.3 5.729 17.575 17.575 0 0 0 3.515 4.036 23.952 23.952 0 0 0 16.36 5.728 35.41 35.41 0 0 0 17.618-4.339l.868-.478v-16.403l-2.648 1.213zM605.207 438.297a23.045 23.045 0 0 0 13.02-21.047 26.04 26.04 0 0 0-15.579-24.735 48.777 48.777 0 0 0-20.57-3.559H553.48v105.755h36.453a45.618 45.618 0 0 0 20.309-4.079 31.073 31.073 0 0 0 12.498-10.675 26.86 26.86 0 0 0 4.34-14.972 26.048 26.048 0 0 0-7.073-18.27 32.079 32.079 0 0 0-14.8-8.418zm-10.067-9.721a23.562 23.562 0 0 1-15.579 4.036h-8.071v-27.34h10.936c15.318 0 17.098 7.421 17.098 13.019a13.027 13.027 0 0 1-4.384 10.285zm-23.651 20.527h12.021a47.465 47.465 0 0 1 15.405 1.779 14.543 14.543 0 0 1 7.03 5.207 13.022 13.022 0 0 1 2.43 7.638 13.573 13.573 0 0 1-2.3 7.638 13.935 13.935 0 0 1-6.118 5.208 46.02 46.02 0 0 1-15.666 1.735h-12.759l-.043-29.205zM670.475 422.327c-6.292 0-12.324 4.34-18.356 13.019v-11.587h-16.924v70.952h16.924v-37.146a21.695 21.695 0 0 1 4.34-13.626 12.065 12.065 0 0 1 9.808-5.512 18.273 18.273 0 0 1 11.717 6.119l1.562 1.476 8.68-14.755-.998-.955a25.573 25.573 0 0 0-16.753-7.985zM745.983 482.951s-.607 0-.607-1.736V452.4c.1-3.971-.074-7.943-.521-11.891a19.305 19.305 0 0 0-2.43-6.683 19.86 19.86 0 0 0-4.34-5.338 27.687 27.687 0 0 0-18.66-6.119 29.51 29.51 0 0 0-23.694 9.765l-.434.478v19.614l2.994-3.255a27.865 27.865 0 0 1 20.006-10.675c4.968-.805 9.647 2.571 10.452 7.539.154.952.156 1.923.006 2.876v2.387l-15.926 5.511a32.721 32.721 0 0 0-13.713 8.68 18.265 18.265 0 0 0-5.034 12.585 17.573 17.573 0 0 0 5.207 13.019 17.75 17.75 0 0 0 13.019 5.164 30.676 30.676 0 0 0 17.358-5.642 10.808 10.808 0 0 0 10.936 5.642c2.207-.044 4.385-.5 6.423-1.346a44.407 44.407 0 0 0 7.551-3.992l.825-.521v-12.281l-2.69 1.822a14.326 14.326 0 0 1-6.728 3.212zm-17.358-20.96v16.881a14.88 14.88 0 0 1-10.068 4.339 7.941 7.941 0 0 1-5.554-13.54 28.404 28.404 0 0 1 9.07-5.164l6.552-2.516zM797.233 480a21.955 21.955 0 0 1-15.839-5.598 20.05 20.05 0 0 1-5.772-15.232 21.443 21.443 0 0 1 5.382-15.059 17.614 17.614 0 0 1 13.756-5.814 34.46 34.46 0 0 1 18.053 6.205l2.647 1.649v-18.486l-1.042-.478a65.117 65.117 0 0 0-10.588-3.819 42.914 42.914 0 0 0-9.808-1.041 33.719 33.719 0 0 0-25.561 10.285 37.796 37.796 0 0 0-9.677 26.905 35.887 35.887 0 0 0 9.938 26.515 36.282 36.282 0 0 0 26.602 9.938 58.682 58.682 0 0 0 20.353-3.862l1.128-.434v-17.099l-2.43 1.085a43.058 43.058 0 0 1-17.142 4.34zM893.051 423.759h-20.482l-28.077 30.985v-65.962H827.74v105.929h16.795v-32.634l32.025 32.634h22.783l-36.539-36.409 30.247-34.543zM961.66 435.562a23.008 23.008 0 0 0-8.939-9.677 24.183 24.183 0 0 0-12.672-3.516 27.647 27.647 0 0 0-18.66 7.638v-6.249h-17.055v70.952h17.055v-49.515a17.361 17.361 0 0 1 14.407-8.288 10.414 10.414 0 0 1 9.2 3.731 25.126 25.126 0 0 1 2.864 13.844v40.228h16.794v-40.357a43.787 43.787 0 0 0-2.994-18.791zM1007.659 422.327a30.941 30.941 0 0 0-23.954 10.241 37.838 37.838 0 0 0-9.156 26.037 39.969 39.969 0 0 0 4.339 18.965 35.552 35.552 0 0 0 11.587 13.019 33.634 33.634 0 0 0 19.008 4.903 53.273 53.273 0 0 0 14.667-1.822 46.558 46.558 0 0 0 12.715-6.075l.781-.521v-17.358l-2.733 1.996a39.057 39.057 0 0 1-23.348 7.812c-10.405.64-19.359-7.278-19.999-17.684l-.006-.108h47.258v-3.429a39.313 39.313 0 0 0-8.419-26.298 28.426 28.426 0 0 0-22.74-9.678zm0 15.102a13.67 13.67 0 0 1 10.241 3.819 16.178 16.178 0 0 1 3.906 9.33H992.21a18.836 18.836 0 0 1 4.859-9.287 14.763 14.763 0 0 1 10.59-3.862zM1050.708 388.782h16.794v106.06h-16.794zM1082.777 388.782h16.794v106.06h-16.794zM642.311 771.836a64.658 64.658 0 0 1-35.41 11.24 39.366 39.366 0 0 1-28.121-10.415c-14.66-14.688-14.66-38.473 0-53.16a39.063 39.063 0 0 1 28.034-10.676 69.447 69.447 0 0 1 34.239 10.024l2.56 1.476v-19.832l-1.041-.434a94.425 94.425 0 0 0-36.496-8.679 56.41 56.41 0 0 0-40.531 15.752 52.077 52.077 0 0 0-16.49 39.057 53.676 53.676 0 0 0 7.203 27.035 52.859 52.859 0 0 0 19.528 19.658 59.319 59.319 0 0 0 29.986 7.117 78.127 78.127 0 0 0 38.059-9.069l.867-.478v-20.31l-2.387 1.694zM715.866 738.161a37.054 37.054 0 0 0-26.774-10.415 37.625 37.625 0 0 0-27.036 10.328c-14.26 14.109-14.383 37.106-.274 51.367l.274.273a36.97 36.97 0 0 0 26.559 10.285 38.412 38.412 0 0 0 27.209-10.111 33.592 33.592 0 0 0 10.893-25.517 35.283 35.283 0 0 0-10.851-26.21zm-12.237 40.228a20.188 20.188 0 0 1-14.885 5.686 20.403 20.403 0 0 1-14.972-5.642 19.226 19.226 0 0 1-5.771-14.538 20.435 20.435 0 0 1 5.685-14.841 19.221 19.221 0 0 1 14.494-5.772 21.092 21.092 0 0 1 15.232 5.815 19.353 19.353 0 0 1 5.988 14.668 19.657 19.657 0 0 1-5.771 14.624zM777.966 727.876v49.341a17.834 17.834 0 0 1-14.624 8.202 11.024 11.024 0 0 1-9.374-3.515 25.223 25.223 0 0 1-2.604-13.8v-40.229h-16.925v40.229a44.42 44.42 0 0 0 2.951 18.92 22.56 22.56 0 0 0 8.68 9.374 24.608 24.608 0 0 0 12.715 3.428 27.64 27.64 0 0 0 11.673-2.733 32.319 32.319 0 0 0 7.334-4.947v6.553h16.968v-70.822h-16.794zM865.582 739.637a22.932 22.932 0 0 0-8.939-9.678 24.233 24.233 0 0 0-12.672-3.515 27.637 27.637 0 0 0-18.66 7.638v-6.206h-17.055v70.996h16.881v-49.559a17.36 17.36 0 0 1 14.408-8.288 10.458 10.458 0 0 1 9.199 3.731 25.028 25.028 0 0 1 2.82 13.844v40.314h16.969v-40.401a43.893 43.893 0 0 0-2.951-18.876zM932.324 779.69a43.379 43.379 0 0 1-17.098 4.34 21.956 21.956 0 0 1-15.84-5.598 20.308 20.308 0 0 1-5.771-15.232 21.394 21.394 0 0 1 5.381-15.015 17.622 17.622 0 0 1 13.67-5.815 34.728 34.728 0 0 1 18.053 6.206l2.647 1.649v-18.487l-1.042-.477a63.387 63.387 0 0 0-10.632-3.819 42.737 42.737 0 0 0-9.808-1.042 33.676 33.676 0 0 0-25.56 10.329 37.754 37.754 0 0 0-9.678 26.905 35.762 35.762 0 0 0 9.981 26.428 36.283 36.283 0 0 0 26.602 9.895 58.21 58.21 0 0 0 20.396-3.862l1.129-.435v-17.055l-2.43 1.085zM955.715 718.677c5.335 0 9.673-4.3 9.721-9.634a9.156 9.156 0 0 0-2.864-6.813 9.546 9.546 0 0 0-6.856-2.734 9.16 9.16 0 0 0-6.64 2.864 9.33 9.33 0 0 0 0 13.409 9.113 9.113 0 0 0 6.639 2.908zM947.34 727.876h16.75v70.996h-16.75zM979.191 692.899h16.795v105.973h-16.795z"/></svg>
