<svg xmlns="http://www.w3.org/2000/svg" viewBox="0 0 101.52 47.11" width="203" height="94" preserveAspectRatio="xMinYMid"><defs><style>.cls-1{fill:#fff}</style></defs><path class="cls-1" d="M98.37 44.83c.64-2.3 1.4-3 2.27-5.12 1.34-3.21.92-5.1.25-6.37-.79-1.47-1.53-1.56-3.08-1.71S94.94 33 94.36 34.5s-.29 4-.66 5.51a2.78 2.78 0 0 1-1.7 2.25c-.73.37-2.17-.21-2.17-.21l.33.79s1.26.08 1.84.08a2.86 2.86 0 0 0 1.92-1.61c.46-.88.83-2.9 1.27-4s1.48-1 2.8-.51S99 39.48 99 39.48s.54-2.86-.72-3.66-2.93.32-2.93.32a2.83 2.83 0 0 1 3.16-1.5c1 .23 1.26 2.13 1 4.34s-1.48 3-2.94 5-1.7 1.34-2.79 3a.13.13 0 0 1 0 .1h.78a2.11 2.11 0 0 1 1.57-1 4.46 4.46 0 0 0-.9 1h3.33a2.66 2.66 0 0 1-.21-2.28M88.47 41.93c-1-2.06-1.09-2.66-2.37-3.89a10.65 10.65 0 0 0-2.56-2.56 8.5 8.5 0 0 1-2.72-3.59 5.81 5.81 0 0 1-.4-2.31 9.7 9.7 0 0 0-2.63.45c-.62.47-2.18 2.28-3.93 2.19-3-.16-3.32-1.7-3.32-1.7s3.89 1 4.7-1.58c.21-.66-.89-.4-2.23.41-.54.33.08-1.54 2.15-1.62 2.79-.11 1.5-.53.16-.85a6 6 0 0 0-3.12.37 6.57 6.57 0 0 1 2-1.58c2.12-1.23 3.79.15 4.65.08a3.88 3.88 0 0 0 3-1.75 5.84 5.84 0 0 1-2.71.94c-2.23 0-1.66-1.53-3.36-1.74-1.24-.2-2.24 1.24-2.24 1.24A2.26 2.26 0 0 1 75 21.73c1.39-.4.7-1.58 2-1.58 2.63 0 1.62 1.57 3.15 1.81a3.8 3.8 0 0 0 3.39-1.26c1.2-1.27 3.73-7.47 2-11.41C84 5 82.23 4.52 81 4.29c-.41-.08-.73-1-.73-1a9.27 9.27 0 0 0-.55-2c-.53-1.22-1-.94-1-.94a3.56 3.56 0 0 0 0 1.07 5.24 5.24 0 0 1 0 1.39s-.46.92-.79.59a1.08 1.08 0 0 1-.32-.73 5.11 5.11 0 0 0-1.69 1.24c-1.23 1.13-1.67 1.25-2 2.55a10.14 10.14 0 0 1-2.73 3.28c-1.38 1.09-2.4 1.42-2.75 1.75-.58.36-.15.48 0 .84s.09.84 1.19.56a1.54 1.54 0 0 1 1.17.48c.91.61-.51 1.67 0 1.75 1.16.21.91-1.4 1.32-1.75a2.56 2.56 0 0 1 1.3-.56c.66-.18 1-.25 1.37-.08s2.14 1 3.44.38c3.09-.58 4-4.89 4-4.89s.5 3.94-3.92 6.46A6.88 6.88 0 0 1 76.06 16c-.59.18-1.3-.18-2.59.5a13 13 0 0 0-2.1 1.5c-.66.43-1.6.37-2 .86a11.08 11.08 0 0 0-1.5 2.14c-.51 1-1.3 1.72-1.37 2.54s-.08 1.75-.08 1.75h2.66a4.55 4.55 0 0 1 1-1.4c.71-.76 1.46-1.33 1.62-1.09s-.4.28-1 1.09a3.75 3.75 0 0 0-.77 2.29 40.53 40.53 0 0 0-4.19 0c-1.77.13-1.52-.12-2.18 0s-3.61.86-4.22.91-1.45-.19-2.08.39-.36 1.78-.38 2.18a45.08 45.08 0 0 1 0 4.65 3 3 0 0 0-.28 1.7 14 14 0 0 1 .66 1.3c.26.74 1.39-.46 1.8-1.07.14-.2.46-.51 0-.79 0-.09 0 0-.35-.77a3.11 3.11 0 0 1-.31-2.27c.13-1.24-.07-1.83.11-2.06s0-.25.28-.46.77-.76 1.17-.81 2.13.29 3.58.2 3.39 0 5-.2c2.8-.28 3.22-1.12 3.52-.89s.54 1.16-1.26 1.62A6.13 6.13 0 0 1 68 30s1.16 2 2 3.56 1.14 3.23 2.11 4.53c.47 1.19-.09 2.55 2.6 4.18 1 .59 1.77 2.89 1.77 2.89.27.19 0 .53.76.39a1.65 1.65 0 0 1 1.17.14s-.15-.38.29-2.06a19.84 19.84 0 0 1 1.65-3.82 15.33 15.33 0 0 0-.83 5.29 18.17 18.17 0 0 0 .11 2h9.17c0-.15.1-.3.15-.47.95-3.11.49-2.63-.48-4.7zM70.6 12.35l-.29.1h-.11v-.25a1.94 1.94 0 0 1 0-.3h-.84v-.11a.63.63 0 0 1 .07-.26 1 1 0 0 1 .87-.47 1.34 1.34 0 0 1 .55.1l.07.06a.47.47 0 0 1 .23.39.69.69 0 0 1-.55.74zm7.31-5a6.69 6.69 0 0 1-1.68.29.74.74 0 0 1-.23 0l-.18-.07-.21-.09-.13-.08a.37.37 0 0 1-.1-.13.43.43 0 0 1 .16-.27 1.11 1.11 0 0 0 .34-.31.59.59 0 0 1 .12-.14.42.42 0 0 1 .26-.11.76.76 0 0 1 .31.09l.18.09.16.06.07.13h-.08a.59.59 0 0 1-.2-.06h-.2c-.06 0-.07 0-.1.1a.2.2 0 0 0 0 .06.31.31 0 0 0 .15.23.43.43 0 0 0 .25.09 1.46 1.46 0 0 0 .47-.23l.18-.12a1.76 1.76 0 0 0 .46-.44h-.78c-.4-.06-.74 0-.89-.15l-.06-.06a.1.1 0 0 1 0-.07h.19c.63 0 1.74-.16 1.78-.16h.08a1 1 0 0 1 .53.71 1.6 1.6 0 0 1-.84.59z"/><path class="cls-1" d="M70.16 13.93c.13-.2.1-.35-.26-.43s-.23-.22-.46.08-.27.23-.11.47c.36.1.7.08.83-.12M87.75 13c-.16-5.14-2.43-6.48-2.43-6.48s2.15 2.26 1.9 6.72a17.94 17.94 0 0 1-2.55 8A11.45 11.45 0 0 0 87.75 13m12.93 29.34a10.7 10.7 0 0 0 .74-3.42 25.37 25.37 0 0 1-1.24 3.38c-.61 1.41-1.39 3-.62 4.63l.09.18h.89a5 5 0 0 1-.39-.74c-.46-1.2.2-3 .58-4M76.3 0a2.36 2.36 0 0 0-1.3.4 3.75 3.75 0 0 1 1.34.74A1.5 1.5 0 0 1 77 2.19l.8-.13a1.74 1.74 0 0 1 .13-.59 2.86 2.86 0 0 0 .07-1A4.64 4.64 0 0 0 76.3 0M75 1.2a2.48 2.48 0 0 0-1.85-.13 7.52 7.52 0 0 1 1.22.57A1.56 1.56 0 0 1 75 2.8c0 .3-1-.06-1.52.06-.86.2 0 .17.54.27a1.62 1.62 0 0 1 .78.41s.07 0 .53-.33a2.55 2.55 0 0 0 .6-.54A1.44 1.44 0 0 0 75 1.21m8.51 0a7 7 0 0 0-1.79.4 5 5 0 0 0-1 .72l.47 1 .33.2a5.39 5.39 0 0 1 .66-1.2 3.38 3.38 0 0 1 1.36-1.13m2.86 1.86a2.13 2.13 0 0 0-1.45 0 13.88 13.88 0 0 0-2.34.94 2.17 2.17 0 0 1 .94.34c.33.27.73.65.73.65A4 4 0 0 1 86 3.46c1-.4 1-.2.4-.4"/><path class="cls-1" d="M89.47 8.52c-.73-.54-.6-.8-1.27-1.33a3.07 3.07 0 0 0-1.39-.6A4.69 4.69 0 0 1 88 6.52a3.49 3.49 0 0 1 1.07.48l1.13-.06a2.82 2.82 0 0 0-1.54-1.14c-1.07-.33-1.19.06-2.26.13a2.41 2.41 0 0 1-1.27-.18c.27.18.88.58 1.14.79a11.8 11.8 0 0 1 1.21 1.72s1 .53 1.18 1 1.21.86 1.21.86a2.5 2.5 0 0 1-.54.07 2.67 2.67 0 0 1-1.15-.53L88.4 11a7.63 7.63 0 0 0 .94.6c.4.2.67-.13 1.39-.2a3.14 3.14 0 0 1 1.54.4L91.2 9.71c-.4-.79-1-.67-1.72-1.2m-4.35-2.77L85 5.66l.13.08m5.07 6.77a.83.83 0 0 1-.67.07c-.34-.13-1.2-.6-1.2-.6a5.11 5.11 0 0 1 .2 1.07 4.08 4.08 0 0 1-.07.72 1.33 1.33 0 0 1 1.07 0c.47.27.52-.2 1 0a8.37 8.37 0 0 1 1.6 1.14s-.88-1.12-1.4-1.72l-.59-.67m-.26 3.91a1.65 1.65 0 0 1-.34-1.59 4.25 4.25 0 0 0-.53-.33c-.27-.13-.6.13-.6.13s-.1.4-.16.8c0 .17-.11.35 0 .47 1.54 2.53-.06.47-.13.73s-.2.6-.2.6A1.3 1.3 0 0 0 89 18.38c1.2.27.8-.26 1.66.73 1.42 1.64 1 2.92 1 2.92a5.75 5.75 0 0 0 .34-2.46c-.13-1.46-1.34-2.4-2-3.13"/><path class="cls-1" d="M88.59 19.69c-.57 0-1-.92-1-.92a8.66 8.66 0 0 1-.8 1.53c-.4.54-1.07 1.34-1.07 1.34s2.1-1.51 3.17-.25.23 1.64.12 3.28A2.56 2.56 0 0 0 90.65 27s-.74-.56.12-2.61c.43-1 .35-4.53-2.18-4.72m-9.25 3.15c-1.2-.27-1.12-1.39-1.86-1.59s-.68.25-.87.59-1.52.66-1.52.66a4.53 4.53 0 0 1 2.33.06c.8.41.61 1.21 1.8 1.34s3.52-1.26 3.52-1.26a10.69 10.69 0 0 1-3.4.2m4.76.65c.26-.45.81-1.23.81-1.23a4.43 4.43 0 0 0-1.48 1.12c-1 1.28-.23.44-1.09 1.56-.71.93-1.13 1.26-2.87 1.6a16.17 16.17 0 0 1-3-.34 4.82 4.82 0 0 0 3.58.87 6 6 0 0 0 3.2-.94s-.77 2.12-5 1.79a3.72 3.72 0 0 0-2 .48 3 3 0 0 1-.71 1.71 2.6 2.6 0 0 1-1.47 1s.93.41 2.58-1.3c.65-.68.18-.8.81-1a25.86 25.86 0 0 0 4.92-.67c1.62-.51 2.34-2.59 2.48-3.43 0-.2-2.62 1.41-.78-1.24"/><path class="cls-1" d="M87.79 22.19c-.59-.46-1-.14-1.57.17-1.15.67-2.15 2.1-1.35 1.56 1-.66 1.76-1.14 2.49.7a2.53 2.53 0 0 1-.5 2.65 1.73 1.73 0 0 0-.51 2 2.16 2.16 0 0 1 .62-1.4 12.83 12.83 0 0 1 1.57-1.2 4.49 4.49 0 0 1-.68-1.9c-.2-1.27.78-1.89-.07-2.56m-25.15-5.37a7.13 7.13 0 0 0-2-2.31c-1-.67-1.06-.4-3.72.08a19.77 19.77 0 0 1-4 .55c-1.84 0-2.6.93-1.77 1.07 1.59.27 1.86 1.43 2.29 1A4.36 4.36 0 0 1 56.82 16c1.38-.07 2.13-.35 2.58 0s0 .47.72 1.07.4.08.8 1 .67 3.11 2.73 4.25 1.85.91 1.85.91a4.12 4.12 0 0 1 .5-1.7c.47-.67.94-1.27.94-1.27a12 12 0 0 0-2.26-1.45 5.25 5.25 0 0 1-2.08-1.94m-14.32 2.59a1.7 1.7 0 0 0 .32 0 5.17 5.17 0 0 0 1.08-.14 1.3 1.3 0 0 0 .59-.23c.28-.83.3-1.3.63-1.65l.32-.32a1.43 1.43 0 0 0-.48-.08 1.77 1.77 0 0 0-1.09.4 3.58 3.58 0 0 0-1.35 2"/><path class="cls-1" d="M51.47 17.11l-.47.48c-.27.27-.31.74-.59 1.59-.11.33-1.79.58-2.22.43-.26-.1.29-1.43 1.35-2.24a1.73 1.73 0 0 1 1.93-.25l.07-.12a1.66 1.66 0 0 0-.82-.21 2.1 2.1 0 0 0-1.28.47A3.8 3.8 0 0 0 48 19.48a.29.29 0 0 0 .17.29 1.56 1.56 0 0 0 .46.06c.7 0 1.72-.14 2-.58.28-.86.34-1.33.55-1.53l.47-.48.13-.14-.2-.1z"/><path class="cls-1" d="M49.54 17.37c-1 .81-1.61 2.14-1.35 2.24.43.15 2.11-.1 2.22-.43.28-.85.32-1.32.59-1.59l.47-.48a1.73 1.73 0 0 0-1.93.25m1.67-.2l-.32.32c-.33.34-.34.81-.62 1.65a1.31 1.31 0 0 1-.59.23 5.19 5.19 0 0 1-1.08.14h-.32a3.59 3.59 0 0 1 1.36-2 1.77 1.77 0 0 1 1.09-.4 1.4 1.4 0 0 1 .48.08m8.49 23.57a1.56 1.56 0 0 0 .67.22V40a2 2 0 0 0-.37-1 5.12 5.12 0 0 1-1-.31.91.91 0 0 1-.4-.56 1.47 1.47 0 0 0-.45.92 1 1 0 0 0 .27.63 3.87 3.87 0 0 0 1.28 1"/><path class="cls-1" d="M58.31 39.82c-.86-1 .39-2 .39-2s.07.57.37.72a5.66 5.66 0 0 0 1.09.33 2.19 2.19 0 0 1 .38 1.13 8.41 8.41 0 0 1 0 1.09 1.28 1.28 0 0 1-.88-.23 4 4 0 0 1-1.32-1.06l-.11.1a4.1 4.1 0 0 0 1.31 1.1 1.75 1.75 0 0 0 .84.26h.26V40a2.36 2.36 0 0 0-.41-1.19 5.53 5.53 0 0 1-1-.32c-.19-.06-.29-.6-.29-.6v-.27l-.22.17a2 2 0 0 0-.75 1.35 1.22 1.22 0 0 0 .34.84z"/><path class="cls-1" d="M59.63 40.88a1.28 1.28 0 0 0 .88.23 8.61 8.61 0 0 0 0-1.11 2.19 2.19 0 0 0-.38-1.1 5.76 5.76 0 0 1-1.09-.33c-.3-.15-.37-.72-.37-.72s-1.25 1-.39 2l.11-.1a1 1 0 0 1-.27-.63 1.47 1.47 0 0 1 .45-.92.91.91 0 0 0 .4.56 5 5 0 0 0 1.07.34 2 2 0 0 1 .32 1v.9a1.57 1.57 0 0 1-.67-.22 3.9 3.9 0 0 1-1.28-1l-.11.1A4 4 0 0 0 59.65 41m14.76 5.18c.27-1.12 1.08-.91 1.08-.91a7.23 7.23 0 0 0-.94-1.72c-.53-.66-1.72-1.27-2.53-2.27a4.93 4.93 0 0 1-.86-2.52 15.76 15.76 0 0 0-3.2.55c-.65.34-1.18 2.33-.33 4.45s2.39 2.65 2.79 3.38h4a2.51 2.51 0 0 1 0-1m1.06-39v-.05.05zM13.81 31.52h-2.32a.78.78 0 0 1-.64-.29l-8.21-10V31a.55.55 0 0 1-.52.58H.52A.55.55 0 0 1 0 31V10.52A.55.55 0 0 1 .55 10h1.54a.55.55 0 0 1 .55.55v9.34L11 10.23a.69.69 0 0 1 .58-.26h2c.32 0 .46.17.46.35a.52.52 0 0 1-.12.26l-8.73 9.86L14 31.06a.39.39 0 0 1 .09.23.24.24 0 0 1-.25.23m15-.17a22.87 22.87 0 0 1-4.82.38c-3.57 0-7.66-1.92-7.66-9v-4c0-7.11 4.09-9 7.66-9a31.24 31.24 0 0 1 4.87.47c.26 0 .46.12.46.38v1.48c0 .17-.06.32-.35.32-1-.09-3.19-.26-4.87-.26-2.84 0-5 1.65-5 6.58v4c0 4.87 2.2 6.59 5 6.59 1.65 0 3.74-.15 4.79-.23H29a.4.4 0 0 1 .46.46v1.19c0 .35-.26.52-.58.58m15.4.06a22.88 22.88 0 0 1-4.82.38c-3.57 0-7.66-1.92-7.66-9v-4c0-7.11 4.09-9 7.66-9a31.25 31.25 0 0 1 4.87.47c.26 0 .46.12.46.38v1.48c0 .17-.06.32-.35.32h-.08c-1-.09-3.19-.26-4.87-.26-2.84 0-5 1.65-5 6.58v4c0 4.87 2.21 6.59 5 6.59 1.65 0 3.74-.15 4.79-.23h.08c.32 0 .46.14.46.46v1.19c0 .35-.26.52-.58.58"/></svg>
