<svg xmlns="http://www.w3.org/2000/svg" width="2767.856" height="815.277" viewBox="0 0 2767.856 815.277"><g fill="#FFF"><path d="M814.248 142.856h42.175l80.566 129.5h.541v-129.5h39.744v193.035h-42.447L854.53 206.659h-.539v129.232h-39.743V142.856zM1070.681 192.331c44.068 0 72.455 29.199 72.455 73.807 0 44.34-28.387 73.539-72.455 73.539-43.799 0-72.186-29.199-72.186-73.539 0-44.608 28.387-73.807 72.186-73.807zm0 118.416c26.225 0 34.064-22.439 34.064-44.609 0-22.439-7.84-44.879-34.064-44.879-25.955 0-33.795 22.439-33.795 44.879 0 22.17 7.84 44.609 33.795 44.609zM1160.337 196.116h36.498v25.955h.541c7.029-17.574 25.955-29.74 44.609-29.74 2.703 0 5.949.541 8.381 1.352v35.688c-3.514-.811-9.191-1.352-13.789-1.352-28.115 0-37.848 20.277-37.848 44.881v62.992h-38.393V196.116zM1329.546 196.116h28.117v25.686h-28.117v69.211c0 12.977 3.244 16.221 16.221 16.221 4.057 0 7.842-.271 11.896-1.082v30.01c-6.49 1.082-14.871 1.354-22.441 1.354-23.52 0-44.068-5.408-44.068-33.254v-82.459h-23.25v-25.686h23.25v-41.904h38.393v41.903zM1378.454 142.856h38.391v72.727h.813c9.73-15.682 26.494-23.252 40.822-23.252 40.826 0 51.1 22.98 51.1 57.586v85.975h-38.393v-78.945c0-22.98-6.758-34.334-24.602-34.334-20.818 0-29.74 11.625-29.74 40.014v73.266h-38.391V142.856zM1632.8 260.731l-71.105-117.875h47.854l45.15 76.24 44.881-76.24h47.311l-71.645 118.957v74.078H1632.8v-75.16zM1802.042 192.331c44.068 0 72.455 29.199 72.455 73.807 0 44.34-28.387 73.539-72.455 73.539-43.799 0-72.186-29.199-72.186-73.539 0-44.608 28.387-73.807 72.186-73.807zm0 118.416c26.225 0 34.064-22.439 34.064-44.609 0-22.439-7.84-44.879-34.064-44.879-25.955 0-33.795 22.439-33.795 44.879 0 22.17 7.84 44.609 33.795 44.609zM1899.368 196.116h36.5v25.955h.539c7.029-17.574 25.955-29.74 44.611-29.74 2.701 0 5.947.541 8.379 1.352v35.688c-3.514-.811-9.191-1.352-13.787-1.352-28.117 0-37.852 20.277-37.852 44.881v62.992h-38.391V196.116zM2008.052 142.856h38.391v103.545l48.393-50.285h45.422l-52.721 51.367 58.666 88.408h-46.5l-38.391-62.453-14.869 14.33v48.123h-38.391V142.856zM2189.458 290.472c.271 16.762 14.33 23.52 29.469 23.52 11.084 0 25.145-4.324 25.145-17.844 0-11.623-15.951-15.68-43.529-21.627-22.168-4.865-44.338-12.707-44.338-37.311 0-35.688 30.82-44.879 60.83-44.879 30.553 0 58.668 10.273 61.643 44.609h-36.498c-1.082-14.869-12.438-18.924-26.225-18.924-8.65 0-21.359 1.621-21.359 12.977 0 13.787 21.627 15.682 43.527 20.816 22.441 5.137 44.34 13.248 44.34 39.203 0 36.768-31.902 48.664-63.805 48.664-32.443 0-64.074-12.166-65.697-49.205h36.497zM2304.897 142.856h38.393v72.727h.811c9.732-15.682 26.496-23.252 40.824-23.252 40.824 0 51.098 22.98 51.098 57.586v85.975h-38.391v-78.945c0-22.98-6.76-34.334-24.604-34.334-20.816 0-29.738 11.625-29.738 40.014v73.266h-38.393V142.856zM2504.688 174.487H2466.3v-31.631h38.389v31.631zm-38.388 21.629h38.389v139.775H2466.3V196.116zM2534.968 196.116h36.498v25.955h.541c7.029-17.574 25.953-29.74 44.609-29.74 2.703 0 5.947.541 8.381 1.352v35.688c-3.516-.811-9.191-1.352-13.787-1.352-28.117 0-37.852 20.277-37.852 44.881v62.992h-38.391V196.116zM2666.903 275.329c1.082 24.334 12.979 35.418 34.336 35.418 15.41 0 27.846-9.461 30.281-18.113h33.793c-10.814 32.984-33.793 47.043-65.426 47.043-44.068 0-71.375-30.281-71.375-73.539 0-41.904 28.928-73.807 71.375-73.807 47.582 0 70.564 40.014 67.861 82.998h-100.845zm62.453-24.33c-3.514-19.467-11.896-29.74-30.551-29.74-24.332 0-31.361 18.926-31.902 29.74h62.453z"/></g><g fill="#FFF"><path d="M956.187 441.942c-6.49-29.74-31.092-46.771-59.209-46.771-51.098 0-72.726 42.715-72.726 84.893 0 42.174 21.628 84.893 72.726 84.893 35.688 0 58.396-27.578 61.912-61.912h18.385c-5.137 47.313-35.146 77.592-80.297 77.592-60.83 0-91.11-47.852-91.11-100.572s30.28-100.572 91.11-100.572c36.498 0 72.727 21.898 77.594 62.451h-18.385zM1127.052 506.829c0 40.012-23.252 73.807-65.969 73.807s-65.969-33.795-65.969-73.807c0-40.014 23.252-73.809 65.969-73.809s65.969 33.795 65.969 73.809zm-114.905 0c0 29.738 16.223 59.479 48.936 59.479s48.934-29.74 48.934-59.479c0-29.74-16.221-59.48-48.934-59.48s-48.936 29.74-48.936 59.48zM1265.474 576.581h-15.68v-25.145h-.541c-8.922 18.656-27.307 29.199-48.125 29.199-35.146 0-48.934-20.547-48.934-52.988v-90.57h17.031v90.84c.813 25.141 10.275 38.391 37.311 38.391 29.199 0 41.904-27.576 41.904-55.965v-73.266h17.033v139.504zM1297.372 437.077h17.033v24.061h.541c6.219-16.762 24.873-28.117 44.609-28.117 39.203 0 51.098 20.547 51.098 53.803v89.758h-17.033v-87.055c0-24.063-7.84-42.178-35.416-42.178-27.037 0-43.258 20.549-43.799 47.855v81.377h-17.033V437.077zM1469.856 437.077h28.389v14.328h-28.389v94.084c0 11.086 1.623 17.574 13.789 18.387 4.867 0 9.734-.271 14.6-.813v14.598c-5.139 0-10.004.543-15.141.543-22.709 0-30.551-7.57-30.279-31.363v-95.436h-24.332v-14.328h24.332v-41.906h17.031v41.906zM1507.163 437.077h18.115l45.961 118.957 42.986-118.957h17.033l-60.561 160.863c-9.732 23.52-15.41 30.279-36.77 30.279-6.758-.271-10.271-.271-12.975-1.352V612.54c4.055.809 7.84 1.35 11.625 1.35 15.139 0 18.654-8.922 24.33-21.898l5.949-15.953-55.693-138.962zM1844.228 441.942c-6.49-29.74-31.092-46.771-59.209-46.771-51.098 0-72.727 42.715-72.727 84.893 0 42.174 21.629 84.893 72.727 84.893 35.688 0 58.398-27.578 61.912-61.912h18.383c-5.135 47.313-35.146 77.592-80.295 77.592-60.83 0-91.111-47.852-91.111-100.572s30.281-100.572 91.111-100.572c36.498 0 72.727 21.898 77.592 62.451h-18.383zM2015.091 506.829c0 40.012-23.25 73.807-65.967 73.807s-65.967-33.795-65.967-73.807c0-40.014 23.25-73.809 65.967-73.809s65.967 33.795 65.967 73.809zm-114.901 0c0 29.738 16.221 59.479 48.934 59.479s48.936-29.74 48.936-59.479c0-29.74-16.223-59.48-48.936-59.48s-48.934 29.74-48.934 59.48zM2153.515 576.581h-15.682v-25.145h-.539c-8.922 18.656-27.307 29.199-48.123 29.199-35.148 0-48.936-20.547-48.936-52.988v-90.57h17.031v90.84c.813 25.141 10.273 38.391 37.311 38.391 29.199 0 41.906-27.576 41.906-55.965v-73.266h17.031v139.504zM2185.413 437.077h17.033v24.061h.541c6.217-16.762 24.873-28.117 44.609-28.117 39.201 0 51.098 20.547 51.098 53.803v89.758h-17.033v-87.055c0-24.063-7.84-42.178-35.416-42.178-27.035 0-43.258 20.549-43.799 47.855v81.377h-17.033V437.077zM2429.272 480.876c-4.596-20.818-17.303-33.527-39.473-33.527-32.713 0-48.934 29.74-48.934 59.48 0 29.738 16.221 59.479 48.934 59.479 21.09 0 38.393-16.492 40.555-39.742h17.033c-4.598 33.523-26.496 54.07-57.588 54.07-42.717 0-65.965-33.795-65.965-73.807 0-40.014 23.248-73.809 65.965-73.809 29.74 0 52.721 15.951 56.506 47.855h-17.033zM2471.448 383.546h17.033v27.305h-17.033v-27.305zm0 53.531h17.033v139.504h-17.033V437.077zM2521.464 383.546h17.033v193.035h-17.033V383.546z"/></g><g fill="#FFF"><path d="M81.129 335.925C92.187 193.487 211.625 80.966 356.852 80.966s264.666 112.521 275.724 254.959h80.568c-2.404-40.547-11.574-79.934-27.402-117.352-17.98-42.512-43.713-80.684-76.48-113.451-32.771-32.77-70.943-58.504-113.453-76.484C451.774 10.015 405.024.569 356.852.569s-94.924 9.445-138.957 28.068c-42.51 17.98-80.682 43.715-113.451 76.484a360.845 360.845 0 0 0-24.154 26.701V.001H-.107v335.924h81.236zM632.549 379.444C621.34 521.735 501.973 634.091 356.852 634.091S92.366 521.735 81.157 379.444H.578c2.434 40.438 11.598 79.719 27.384 117.041 17.98 42.51 43.713 80.682 76.482 113.451 32.77 32.768 70.941 58.502 113.451 76.482 44.033 18.625 90.785 28.068 138.957 28.068 8.02 0 16.002-.268 23.938-.791-39.061 13.719-81.038 21.184-124.728 21.184-98.791 0-188.833-38.162-256.169-100.518V736.98c24.467 16.547 50.517 30.689 77.98 42.307 56.459 23.881 116.41 35.988 178.188 35.988s121.729-12.107 178.188-35.988c54.514-23.057 103.462-56.057 145.488-98.082 42.027-42.027 75.027-90.977 98.084-145.49 21.045-49.756 32.941-102.229 35.471-156.271h-80.743z"/></g><path fill="#FFF" d="M135.33 427.215c1.297 3.992 32.342 97.77 82.518 97.77 11.505 0 22.946-4.91 34.007-14.59.361-.314.685-.67.966-1.057l36.181-49.799a65.47 65.47 0 0 1-5.367-3.5 66.067 66.067 0 0 1-5.023-4.051l-35.75 49.203c-8.471 7.264-16.884 10.947-25.015 10.947-33.935 0-62.254-64.17-70.315-88.936-6.826-21.008-20.464-81.141-1.848-106.762 6.951-9.568 17.787-13.613 33.13-12.369l57.838 18.793a65.775 65.775 0 0 1 1.674-6.184 65.487 65.487 0 0 1 2.301-6.031l-58.545-19.022a6.392 6.392 0 0 0-1.403-.287 77.18 77.18 0 0 0-7.001-.328c-16.852 0-29.766 6.015-38.385 17.878-26.237 36.114-1.061 114.944.037 118.325z"/><path fill="#FFF" d="M471.341 501.787l-36.18-49.799a65.987 65.987 0 0 1-4.988 4.023 65.797 65.797 0 0 1-5.405 3.525l35.749 49.205c5.686 13.631 5.458 24.803-.691 34.133-21.1 32.016-102.081 32.43-102.938 32.432-22.683 0-85.392-5.828-102.937-32.432-6.153-9.332-6.383-20.502-.697-34.133l35.749-49.203a65.642 65.642 0 0 1-5.367-3.5 65.607 65.607 0 0 1-5.023-4.053l-36.183 49.801a6.386 6.386 0 0 0-.708 1.246c-7.691 17.951-7.185 33.734 1.506 46.912 24.908 37.771 110.047 38.205 113.703 38.205 3.61 0 88.71-.434 113.612-38.195 8.692-13.182 9.198-28.967 1.505-46.922a6.352 6.352 0 0 0-.707-1.245z"/><path fill="#FFF" d="M475.429 316.637a65.839 65.839 0 0 1 1.686 6.23l57.842-18.793c15.341-1.236 26.181 2.799 33.134 12.363 22.406 30.822-1.591 105.969-1.813 106.652l-.037.111c-8.038 24.736-36.342 88.936-70.324 88.936-8.129 0-16.54-3.682-25.008-10.943l-35.748-49.203a65.763 65.763 0 0 1-4.988 4.021 65.447 65.447 0 0 1-5.405 3.525l36.183 49.801c.282.389.605.744.966 1.059 11.058 9.678 22.497 14.586 34 14.586 50.18 0 81.242-93.818 82.517-97.742l.037-.111c1.084-3.336 26.25-82.127.017-118.234-8.621-11.865-21.538-17.88-38.394-17.88a77.24 77.24 0 0 0-7.003.328 6.392 6.392 0 0 0-1.403.287l-58.542 19.021a65.594 65.594 0 0 1 2.283 5.986z"/><path fill="#FFF" d="M356.861 230.527c2.153 0 4.306.111 6.447.322v-60.82c4.73-19.896 16.194-29.569 35.028-29.569 37.033 0 87.398 36.24 87.936 36.63 18.351 13.333 65.659 54.906 64.215 86.742-.506 11.167-6.887 20.34-19.499 28.025l-57.843 18.794a65.413 65.413 0 0 1 2.283 5.986 65.839 65.839 0 0 1 1.686 6.23l58.542-19.021a6.368 6.368 0 0 0 1.305-.592c16.774-10.002 25.642-23.07 26.357-38.84 2.049-45.197-66.575-95.592-69.532-97.74-2.195-1.595-54.231-39.059-95.451-39.059-25.227 0-41.726 13.92-47.713 40.254a6.43 6.43 0 0 0-.16 1.424v61.554a65.45 65.45 0 0 1 6.399-.32z"/><path fill="#FFF" d="M150.449 264.406c.715 15.771 9.585 28.842 26.362 38.846.411.246.849.443 1.305.592l58.538 19.021a65.775 65.775 0 0 1 1.674-6.184 65.708 65.708 0 0 1 2.301-6.031l-57.844-18.796c-12.612-7.685-18.995-16.858-19.504-28.022-1.748-38.304 63.522-86.236 64.134-86.682l.083-.06c.504-.366 50.841-36.625 87.942-36.625 18.833 0 30.296 9.671 35.025 29.563v60.817a65.69 65.69 0 0 1 6.397-.319c2.153 0 4.306.111 6.447.322v-61.557c0-.479-.054-.956-.16-1.424-5.986-26.33-22.484-40.247-47.71-40.247-41.23 0-93.296 37.483-95.446 39.045l-.083.06c-2.92 2.123-71.51 52.493-69.461 97.681z"/><g fill="#FFF"><path d="M437.951 512.639c0 46.283-59.668 27.523-81.025 27.523-21.395 0-81.063 18.521-81.063-27.523 12.27 38.76 53.155 15.959 81.063 15.959 27.906 0 68.756 22.8 81.025-15.959zM531.706 326.758c44.018 14.303 7.737 65.254 1.136 85.564-6.611 20.348-7.435 82.818-51.224 68.592 40.654.307 31.603-45.623 40.227-72.164s42.932-58.346 9.861-81.992zM383.895 180.15c27.205-37.443 64.45 12.807 81.729 25.359 17.308 12.576 76.467 32.664 49.403 69.914 12.856-38.57-33.623-44.154-56.201-60.557-22.577-16.404-42.223-58.863-74.931-34.716zM198.786 275.423c-27.204-37.443 32.096-57.338 49.375-69.893 17.308-12.574 54.693-62.631 81.757-25.381-32.709-24.145-52.383 18.334-74.96 34.736-22.578 16.404-69.028 21.968-56.172 60.538zM232.195 480.914c-44.019 14.303-44.613-48.244-51.214-68.557-6.61-20.346-42.664-71.369 1.125-85.6-33.07 23.648 1.248 55.484 9.873 82.025 8.623 26.544-.439 72.439 40.216 72.132z"/></g><path fill="#FFF" d="M240.142 378.889c3.419 4.705 7.452 8.201 11.816 10.367-2.009 3.832-3.181 8.365-3.41 13.434-.91 20.084 12.259 44.705 31.314 58.545 12.989 9.434 29.771 14.844 46.043 14.844 13.499 0 24.401-3.865 30.982-10.566 6.579 6.697 17.478 10.563 30.972 10.563 16.05 0 33.28-5.559 46.091-14.867 19.035-13.836 32.188-38.445 31.277-58.516-.23-5.068-1.401-9.602-3.41-13.434 4.362-2.168 8.392-5.664 11.808-10.367 11.712-16.123 14.967-42.539 7.913-64.24-8.659-26.636-33.93-49.14-55.183-49.14-1.582 0-3.124.131-4.616.386-.632-4.269-2.346-8.612-5.131-12.835-11.065-16.778-36.187-28.956-59.734-28.956h-.012c-23.53.004-48.636 12.181-59.697 28.954-2.785 4.224-4.5 8.568-5.131 12.837a27.45 27.45 0 0 0-4.612-.385c-21.263 0-46.542 22.524-55.201 49.186-7.045 21.682-3.786 48.078 7.921 64.19zm110.321 73.052c-2.435 8.318-14.646 11.293-24.559 11.293-13.42 0-27.811-4.633-38.495-12.393-17.725-12.873-26.641-34.119-26.031-47.572.26-5.734 2.097-9.795 5.463-12.08l2.565-.834 24.058-7.816c9.808 22.648 31.397 39.041 56.998 41.414v27.988zm-49.814-96.759c0-16.363 7.029-31.111 18.221-41.398a56.61 56.61 0 0 1 10.387-7.557 55.875 55.875 0 0 1 27.628-7.283 55.867 55.867 0 0 1 27.626 7.283 56.352 56.352 0 0 1 10.388 7.557c11.192 10.285 18.222 25.035 18.222 41.398a55.721 55.721 0 0 1-5.104 23.363c-8.037 17.52-24.807 30.221-44.709 32.494a56.32 56.32 0 0 1-6.424.379c-2.172 0-4.313-.137-6.422-.379-19.903-2.273-36.673-14.975-44.71-32.492a55.721 55.721 0 0 1-3.989-12.211 56.328 56.328 0 0 1-1.114-11.154zm125.748 95.634c-10.696 7.771-25.103 12.412-38.54 12.412-9.909 0-22.116-2.971-24.549-11.287v-27.99c25.601-2.371 47.189-18.766 56.997-41.412l26.628 8.652c3.364 2.287 5.2 6.348 5.461 12.082.611 13.444-8.293 34.676-25.997 47.543zm-7.438-170.148c2-1.556 4.427-2.313 7.395-2.313 14.104 0 35.476 17.221 42.967 40.266 6.467 19.896 1.689 42.012-6.089 52.719-2.531 3.484-6.667 7.639-11.993 7.639a9.15 9.15 0 0 1-.332-.006l-26.633-8.652a69.008 69.008 0 0 0 1.691-15.139c0-20.631-9.101-39.164-23.485-51.832l16.479-22.682zM307.887 260.13c7.408-11.235 27.091-23.178 48.976-23.182l.01-6.422v6.422c21.903 0 41.6 11.945 49.012 23.184 3.16 4.792 4.061 9.157 2.682 12.986l-16.466 22.663a68.64 68.64 0 0 0-35.215-9.682 68.639 68.639 0 0 0-35.217 9.684l-16.465-22.664c-1.379-3.829-.478-8.196 2.683-12.989zm-63.451 58.534c7.492-23.07 28.873-40.308 42.984-40.308 2.965 0 5.39.757 7.39 2.312l16.479 22.682c-14.384 12.67-23.485 31.203-23.485 51.832 0 5.201.597 10.264 1.692 15.141l-26.625 8.65c-5.492.166-9.752-4.074-12.338-7.635-7.775-10.699-12.554-32.795-6.097-52.674z"/></svg>
