<svg xmlns="http://www.w3.org/2000/svg" width="491.262" height="160.914" viewBox="0 0 129.98 42.575"><path d="M.5 5.257v12.901c0 .459.476.762.892.568l6.475-3.023c.36-.167.618-.494.699-.881l2.839-13.564a.628.628 0 0 0-.84-.716l-9.257 3.54A1.257 1.257 0 0 0 .5 5.258" fill="#251b5b"/><path d="M18.91 6.085L3.08 12.138a1.254 1.254 0 0 0-.806 1.171v21.517c0 .477.512.779.93.548l11.453-6.343a1.26 1.26 0 0 0 .62-.84l4.475-21.388a.63.63 0 0 0-.842-.718" fill="#e5007d"/><path d="M17.78 24.759l-8.644-5.866v13.195l-1.923 1.065v1.269c0 .416.206.805.55 1.038l9.588 6.506a.627.627 0 0 0 .98-.52v-15.65c0-.415-.206-.804-.55-1.037m9.489-7.317c.159.239.362.415.61.528.249.114.504.17.768.17.147 0 .297-.023.45-.069a1.37 1.37 0 0 0 .418-.206c.126-.092.228-.205.308-.34a.902.902 0 0 0 .12-.469c0-.251-.08-.443-.24-.574a2.064 2.064 0 0 0-.592-.331 11.586 11.586 0 0 0-.772-.257 3.127 3.127 0 0 1-.772-.345 1.886 1.886 0 0 1-.593-.593c-.159-.248-.239-.583-.239-1.006 0-.19.042-.392.125-.607.082-.214.212-.41.39-.587.178-.178.406-.327.685-.446.279-.12.614-.18 1.006-.18.355 0 .695.05 1.02.148.325.097.61.297.855.597l-.717.652a1.193 1.193 0 0 0-.469-.413 1.485 1.485 0 0 0-.69-.156c-.244 0-.448.032-.61.096a1.094 1.094 0 0 0-.39.248.878.878 0 0 0-.207.326 1 1 0 0 0-.06.322c0 .276.08.487.239.634.159.147.357.266.593.359.235.091.492.174.771.248.28.073.536.176.772.308.236.131.434.309.593.532.16.224.239.532.239.924 0 .312-.06.594-.18.845-.119.252-.28.463-.482.634a2.134 2.134 0 0 1-.716.395c-.276.092-.57.138-.883.138-.416 0-.812-.073-1.185-.22a1.948 1.948 0 0 1-.891-.68zm5.476-.818c0 .22.034.424.101.611.068.187.162.346.285.478.123.132.273.236.45.312.178.077.377.115.597.115.221 0 .42-.038.598-.115a1.32 1.32 0 0 0 .45-.312 1.38 1.38 0 0 0 .285-.478c.067-.187.101-.39.101-.611a1.8 1.8 0 0 0-.101-.611 1.38 1.38 0 0 0-.285-.478 1.317 1.317 0 0 0-.45-.312 1.492 1.492 0 0 0-.598-.115c-.22 0-.419.038-.597.115-.177.076-.327.18-.45.312a1.374 1.374 0 0 0-.285.478 1.78 1.78 0 0 0-.1.611m-.883 0c0-.319.06-.616.18-.891a2.294 2.294 0 0 1 2.136-1.397 2.305 2.305 0 0 1 2.136 1.397c.12.275.18.572.18.891a2.254 2.254 0 0 1-.672 1.622 2.331 2.331 0 0 1-1.645.666 2.327 2.327 0 0 1-1.645-.666 2.26 2.26 0 0 1-.67-1.622m9.024-1.02a1.733 1.733 0 0 0-.483-.363 1.35 1.35 0 0 0-.602-.124c-.226 0-.424.041-.592.124-.169.083-.31.196-.423.34a1.53 1.53 0 0 0-.257.496 1.94 1.94 0 0 0-.088.584c0 .202.034.394.102.574.067.18.162.339.284.473.123.135.27.24.442.317.17.077.364.115.579.115.232 0 .431-.04.597-.124.165-.082.318-.203.46-.363l.587.588c-.214.24-.464.41-.749.515a2.616 2.616 0 0 1-.905.156 2.49 2.49 0 0 1-.923-.165 2.048 2.048 0 0 1-1.19-1.18 2.487 2.487 0 0 1-.166-.925c0-.336.055-.646.166-.928a2.12 2.12 0 0 1 .464-.726 2.1 2.1 0 0 1 .717-.473c.278-.113.59-.17.932-.17a2.5 2.5 0 0 1 .914.17c.291.113.544.286.758.52zm1.892-1.158h.828v4.356h-.828zm-.192-1.562c0-.165.06-.308.179-.427a.583.583 0 0 1 .427-.18c.165 0 .308.06.428.18.119.12.179.262.179.427a.58.58 0 0 1-.18.427.585.585 0 0 1-.427.18.584.584 0 0 1-.427-.18.584.584 0 0 1-.18-.427m4.723 3.823c-.195 0-.396.01-.601.032a2.35 2.35 0 0 0-.56.124 1.077 1.077 0 0 0-.414.257.58.58 0 0 0-.161.423c0 .251.084.432.252.542.17.11.397.165.685.165.227 0 .42-.037.58-.114a1.089 1.089 0 0 0 .596-.708c.043-.15.065-.299.065-.446v-.275zm-2.333-1.728c.232-.214.502-.375.809-.482.306-.107.612-.16.918-.16.319 0 .593.04.823.118.23.08.418.187.565.322.147.135.255.29.326.464.07.175.105.357.105.547v2.223a8.626 8.626 0 0 0 .038.791h-.736a7.976 7.976 0 0 1-.027-.662h-.019c-.183.282-.401.481-.652.598a2.063 2.063 0 0 1-.873.174 2.01 2.01 0 0 1-.579-.082 1.416 1.416 0 0 1-.482-.248 1.18 1.18 0 0 1-.326-.41 1.26 1.26 0 0 1-.12-.565c0-.281.063-.517.188-.707.126-.19.297-.345.515-.464.217-.12.472-.206.762-.258.291-.052.603-.078.934-.078h.606v-.184a.91.91 0 0 0-.579-.84 1.22 1.22 0 0 0-.46-.078 1.688 1.688 0 0 0-.744.16c-.098.046-.187.1-.266.161l-.23.175zm4.98-3.124h.827v6.947h-.827zm5.762 5.587c.159.239.363.415.61.528.249.114.505.17.768.17.147 0 .297-.023.45-.069a1.4 1.4 0 0 0 .419-.206c.125-.092.228-.205.307-.34a.902.902 0 0 0 .12-.469c0-.251-.08-.443-.24-.574a2.055 2.055 0 0 0-.592-.331 11.506 11.506 0 0 0-.772-.257 3.13 3.13 0 0 1-.772-.345 1.888 1.888 0 0 1-.592-.593c-.16-.248-.24-.583-.24-1.006 0-.19.042-.392.125-.607a1.68 1.68 0 0 1 .39-.587 2.14 2.14 0 0 1 .685-.446c.279-.12.614-.18 1.006-.18.355 0 .695.05 1.02.148.325.097.61.297.855.597l-.717.652a1.194 1.194 0 0 0-.469-.413 1.484 1.484 0 0 0-.689-.156c-.245 0-.449.032-.611.096a1.1 1.1 0 0 0-.39.248.878.878 0 0 0-.207.326.999.999 0 0 0-.06.322c0 .276.08.487.239.634.16.147.357.266.593.359.235.091.493.174.771.248.28.073.537.176.772.308.236.131.434.309.593.532.16.224.24.532.24.924 0 .312-.06.594-.18.845a1.86 1.86 0 0 1-.483.634 2.13 2.13 0 0 1-.716.395c-.276.092-.57.138-.882.138-.417 0-.812-.073-1.186-.22a1.95 1.95 0 0 1-.891-.68zm8.059-1.176a1.75 1.75 0 0 0-.088-.506 1.11 1.11 0 0 0-.234-.4 1.08 1.08 0 0 0-.39-.266 1.424 1.424 0 0 0-.547-.097 1.352 1.352 0 0 0-1.254.823c-.065.15-.097.299-.097.446zm-2.61.661c0 .19.041.363.124.52.083.156.191.289.326.4a1.664 1.664 0 0 0 1.02.348c.257 0 .481-.06.67-.179.19-.12.365-.277.525-.473l.625.478c-.46.594-1.103.891-1.93.891-.343 0-.654-.058-.933-.174a2.026 2.026 0 0 1-.707-.483 2.128 2.128 0 0 1-.446-.726 2.566 2.566 0 0 1-.156-.905c0-.325.056-.626.17-.905a2.148 2.148 0 0 1 1.18-1.209 2.3 2.3 0 0 1 .901-.174c.386 0 .712.067.979.202.266.135.485.311.657.529.171.217.295.462.372.734.076.273.115.55.115.832v.294zm7.774-1.323a1.737 1.737 0 0 0-.482-.363 1.352 1.352 0 0 0-.603-.124c-.226 0-.424.041-.592.124a1.2 1.2 0 0 0-.423.34 1.53 1.53 0 0 0-.257.496 1.94 1.94 0 0 0-.088.584c0 .202.034.394.102.574.067.18.162.339.284.473.123.135.27.24.442.317a1.4 1.4 0 0 0 .579.115c.232 0 .431-.04.597-.124.165-.082.318-.203.46-.363l.587.588c-.214.24-.464.41-.749.515a2.616 2.616 0 0 1-.905.156c-.337 0-.644-.055-.923-.165a2.048 2.048 0 0 1-1.19-1.18 2.487 2.487 0 0 1-.165-.925c0-.336.055-.646.165-.928.11-.281.265-.524.464-.726a2.1 2.1 0 0 1 .717-.473c.278-.113.59-.17.932-.17a2.5 2.5 0 0 1 .915.17c.29.113.543.286.758.52zm5.541 3.198h-.827v-.671h-.018a1.217 1.217 0 0 1-.543.565 1.792 1.792 0 0 1-.891.216c-.215 0-.417-.032-.606-.096a1.368 1.368 0 0 1-.501-.299 1.437 1.437 0 0 1-.345-.519 1.987 1.987 0 0 1-.129-.749v-2.803h.827v2.573c0 .203.028.375.083.52.055.144.129.26.22.349a.828.828 0 0 0 .318.193c.12.04.243.06.372.06.172 0 .331-.028.478-.083a.997.997 0 0 0 .386-.262c.11-.12.196-.271.257-.455s.092-.401.092-.653v-2.242h.827zm1.25-4.356h.827v.67h.018c.055-.115.129-.221.22-.316a1.48 1.48 0 0 1 .309-.243 1.63 1.63 0 0 1 .372-.161c.134-.04.27-.06.404-.06s.257.019.367.055l-.036.891a2.49 2.49 0 0 0-.203-.045 1.123 1.123 0 0 0-.202-.019c-.404 0-.713.113-.928.34-.214.227-.321.58-.321 1.057v2.187h-.827zm3.684 0h.827v4.356h-.827zm-.192-1.562c0-.165.06-.308.178-.427a.583.583 0 0 1 .428-.18c.165 0 .308.06.427.18.12.12.18.262.18.427a.58.58 0 0 1-.18.427.584.584 0 0 1-.427.18.585.585 0 0 1-.428-.18.584.584 0 0 1-.178-.427m5.081 2.279H83.12v1.976c0 .122.002.243.009.363a.94.94 0 0 0 .069.321c.04.095.1.172.184.23.082.058.203.087.362.087.098 0 .2-.009.304-.027a.866.866 0 0 0 .284-.102v.754a1.076 1.076 0 0 1-.38.115 2.857 2.857 0 0 1-.364.032c-.318 0-.565-.044-.74-.133a.91.91 0 0 1-.385-.345 1.11 1.11 0 0 1-.147-.473 5.965 5.965 0 0 1-.023-.528v-2.27h-.956v-.717h.956v-1.222h.827v1.222h1.185zm.891-.717h.956l1.29 3.4h.018l1.237-3.4h.883l-2.068 5.293c-.073.19-.15.363-.229.52-.08.156-.174.289-.284.399a1.16 1.16 0 0 1-.398.258 1.573 1.573 0 0 1-.571.091c-.123 0-.246-.008-.371-.023a1.354 1.354 0 0 1-.362-.096l.1-.754c.165.068.33.101.494.101a.92.92 0 0 0 .324-.05.65.65 0 0 0 .228-.147.85.85 0 0 0 .16-.225 3.57 3.57 0 0 0 .128-.294l.268-.69zm8.73 2.996c.16.239.363.415.611.528.248.114.504.17.767.17.147 0 .298-.023.45-.069.154-.046.293-.115.419-.206a1.14 1.14 0 0 0 .308-.34.902.902 0 0 0 .12-.469c0-.251-.08-.443-.24-.574a2.057 2.057 0 0 0-.592-.331 11.586 11.586 0 0 0-.772-.257 3.13 3.13 0 0 1-.772-.345 1.888 1.888 0 0 1-.593-.593c-.16-.248-.239-.583-.239-1.006 0-.19.042-.392.124-.607.083-.214.213-.41.39-.587.178-.178.406-.327.685-.446.279-.12.614-.18 1.007-.18.354 0 .695.05 1.02.148.324.097.61.297.854.597l-.717.652a1.194 1.194 0 0 0-.468-.413 1.483 1.483 0 0 0-.69-.156c-.245 0-.449.032-.61.096a1.095 1.095 0 0 0-.391.248.875.875 0 0 0-.207.326.999.999 0 0 0-.06.322c0 .276.08.487.24.634.159.147.356.266.592.359.235.091.493.174.772.248.278.073.536.176.772.308.235.131.433.309.592.532.16.224.24.532.24.924 0 .312-.06.594-.18.845a1.87 1.87 0 0 1-.482.634 2.136 2.136 0 0 1-.717.395c-.276.092-.57.138-.882.138-.417 0-.812-.073-1.185-.22a1.951 1.951 0 0 1-.892-.68zm7.939-1.838a1.738 1.738 0 0 0-.482-.363 1.35 1.35 0 0 0-.602-.124c-.226 0-.424.041-.593.124a1.21 1.21 0 0 0-.422.34c-.113.144-.2.31-.258.496a1.95 1.95 0 0 0-.087.584c0 .202.034.394.101.574.067.18.163.339.285.473.122.135.27.24.441.317.171.077.364.115.579.115.233 0 .432-.04.598-.124.165-.082.318-.203.459-.363l.588.588c-.215.24-.464.41-.749.515a2.616 2.616 0 0 1-.905.156 2.49 2.49 0 0 1-.923-.165 2.048 2.048 0 0 1-1.19-1.18 2.494 2.494 0 0 1-.166-.925c0-.336.055-.646.165-.928a2.12 2.12 0 0 1 .465-.726c.198-.202.437-.36.716-.473.279-.113.59-.17.933-.17a2.5 2.5 0 0 1 .914.17c.291.113.544.286.758.52zm2.27 1.02c0 .22.034.424.101.611a1.306 1.306 0 0 0 .735.79c.178.077.377.115.597.115.221 0 .42-.038.598-.115a1.32 1.32 0 0 0 .45-.312 1.38 1.38 0 0 0 .285-.478 1.78 1.78 0 0 0 .101-.611c0-.22-.033-.424-.101-.611a1.38 1.38 0 0 0-.285-.478 1.316 1.316 0 0 0-.45-.312 1.495 1.495 0 0 0-.598-.115c-.22 0-.419.038-.596.115a1.3 1.3 0 0 0-.451.312 1.374 1.374 0 0 0-.285.478 1.78 1.78 0 0 0-.1.611m-.883 0c0-.319.06-.616.179-.891a2.294 2.294 0 0 1 2.136-1.397 2.305 2.305 0 0 1 2.137 1.397c.12.275.18.572.18.891a2.254 2.254 0 0 1-.672 1.622 2.327 2.327 0 0 1-1.645.666 2.327 2.327 0 0 1-1.645-.666 2.26 2.26 0 0 1-.67-1.622m8.298-1.461h-1.186v1.976c0 .122.003.243.01.363a.95.95 0 0 0 .068.321.52.52 0 0 0 .184.23c.083.058.204.087.363.087.098 0 .2-.009.303-.027a.866.866 0 0 0 .285-.102v.754a1.076 1.076 0 0 1-.381.115 2.857 2.857 0 0 1-.363.032c-.319 0-.565-.044-.74-.133a.91.91 0 0 1-.386-.345 1.11 1.11 0 0 1-.147-.473 5.965 5.965 0 0 1-.023-.528v-2.27h-.955v-.717h.955v-1.222h.827v1.222h1.186zm1.388-3.308h.826v6.947h-.827zm4.566 4.852c-.196 0-.397.01-.602.032a2.347 2.347 0 0 0-.56.124 1.076 1.076 0 0 0-.414.257.58.58 0 0 0-.16.423c0 .251.083.432.252.542.168.11.397.165.684.165.227 0 .42-.037.58-.114a1.09 1.09 0 0 0 .597-.708c.043-.15.064-.299.064-.446v-.275zm-2.334-1.728c.233-.214.502-.375.809-.482.306-.107.612-.16.919-.16.318 0 .592.04.822.118.23.08.418.187.565.322.147.135.256.29.327.464.07.175.105.357.105.547v2.223a7.824 7.824 0 0 0 .037.791h-.735a7.979 7.979 0 0 1-.028-.662h-.018c-.184.282-.401.481-.653.598a2.061 2.061 0 0 1-.873.174 2.01 2.01 0 0 1-.579-.082 1.414 1.414 0 0 1-.482-.248 1.184 1.184 0 0 1-.326-.41 1.26 1.26 0 0 1-.12-.565c0-.281.063-.517.189-.707a1.43 1.43 0 0 1 .514-.464c.218-.12.472-.206.763-.258.291-.052.602-.078.933-.078h.606v-.184a.91.91 0 0 0-.579-.84 1.219 1.219 0 0 0-.459-.078 1.688 1.688 0 0 0-.744.16c-.098.046-.187.1-.267.161-.08.062-.156.12-.23.175zm4.861-.533h.827v.67h.018c.104-.232.285-.42.543-.564.257-.144.554-.216.891-.216.208 0 .409.032.602.096.193.065.361.165.505.299.144.135.259.308.345.52.085.21.128.46.128.748v2.803h-.826V16.23c0-.202-.028-.375-.083-.52a.946.946 0 0 0-.22-.348.825.825 0 0 0-.318-.193c-.12-.04-.243-.06-.372-.06-.172 0-.33.027-.478.083a.997.997 0 0 0-.386.261 1.24 1.24 0 0 0-.257.455 2.069 2.069 0 0 0-.092.653v2.242h-.827zm7.186 3.694c.22 0 .42-.038.597-.115a1.297 1.297 0 0 0 .735-.79c.068-.186.101-.39.101-.611a1.8 1.8 0 0 0-.1-.611 1.375 1.375 0 0 0-.286-.478 1.312 1.312 0 0 0-.45-.312 1.49 1.49 0 0 0-.597-.115c-.22 0-.42.038-.597.115-.178.076-.328.18-.45.312a1.375 1.375 0 0 0-.285.478 1.77 1.77 0 0 0-.101.61c0 .222.033.426.1.612a1.313 1.313 0 0 0 .735.79c.179.077.378.115.598.115m2.26.662h-.827v-.625h-.018c-.16.233-.378.414-.657.542a2.034 2.034 0 0 1-.859.193 2.31 2.31 0 0 1-.914-.174 2.014 2.014 0 0 1-.698-.487 2.194 2.194 0 0 1-.446-.726 2.521 2.521 0 0 1-.157-.901c0-.325.052-.626.157-.905a2.055 2.055 0 0 1 1.144-1.209 2.31 2.31 0 0 1 .914-.174c.312 0 .606.066.882.198.276.131.487.31.634.537h.018v-3.216h.828z" fill="#251b5b"/><path d="M30.812 23.68H26.68v.584h1.752v5.069h.629v-5.07h1.75zm.524 3.587c.04-.3.16-.539.359-.718.2-.18.461-.27.786-.27.324 0 .578.09.763.27.185.18.282.419.292.718zm2.369-1.044a1.454 1.454 0 0 0-.528-.359 1.786 1.786 0 0 0-.674-.123c-.26 0-.499.044-.718.134-.22.09-.41.216-.57.378a1.73 1.73 0 0 0-.373.584c-.09.227-.135.475-.135.744 0 .255.041.495.123.719a1.662 1.662 0 0 0 .91.976c.22.098.466.147.74.147.33 0 .62-.054.869-.161.25-.108.479-.296.689-.566l-.442-.343c-.14.174-.297.306-.472.396a1.39 1.39 0 0 1-.643.135c-.16 0-.307-.03-.442-.09a1.125 1.125 0 0 1-.352-.243 1.24 1.24 0 0 1-.243-.36 1.225 1.225 0 0 1-.108-.43h2.829v-.187c0-.29-.04-.548-.12-.775a1.614 1.614 0 0 0-.34-.576m3.659 1.65c-.005.145-.03.281-.075.408a.933.933 0 0 1-.513.561 1.071 1.071 0 0 1-.445.086 1.01 1.01 0 0 1-.55-.138c-.148-.092-.221-.248-.221-.468 0-.24.11-.411.329-.516.22-.105.516-.157.89-.157h.585zm.583.853v-1.504c0-.498-.115-.87-.344-1.115-.23-.245-.604-.367-1.123-.367a2.25 2.25 0 0 0-.752.131c-.247.088-.46.224-.64.408l.367.382c.14-.13.3-.226.483-.288.182-.063.368-.094.557-.094.274 0 .488.065.64.195.152.13.229.322.229.576v.105h-.225c-.215 0-.45.01-.707.03-.258.02-.497.07-.72.15-.221.08-.407.201-.557.366-.15.165-.224.392-.224.681a.933.933 0 0 0 .385.775c.117.087.255.153.412.198.157.045.326.068.505.068a1.322 1.322 0 0 0 1.153-.614h.015l.003.258c.003.097.014.186.034.266H38a4.148 4.148 0 0 1-.053-.607m2.807-2.986a1.403 1.403 0 0 0-.741.206c-.1.063-.186.134-.259.214-.072.08-.128.162-.168.246h-.015c0-.1-.002-.197-.007-.291a5.08 5.08 0 0 1-.008-.285h-.553c0 .115.004.242.014.382s.016.29.016.449v2.672h.583v-1.706c0-.405.081-.723.243-.955.162-.232.423-.348.783-.348.109 0 .214.015.314.045l.037-.591a.514.514 0 0 0-.12-.03.969.969 0 0 0-.12-.007m3.369 2.132a1.36 1.36 0 0 1-.075.408.933.933 0 0 1-.513.561 1.071 1.071 0 0 1-.445.086 1.01 1.01 0 0 1-.55-.138c-.148-.092-.221-.248-.221-.468 0-.24.11-.411.329-.516.22-.105.516-.157.89-.157h.585zm.583.853v-1.504c0-.498-.115-.87-.344-1.115-.23-.245-.603-.367-1.123-.367a2.25 2.25 0 0 0-.752.131c-.247.088-.46.224-.64.408l.367.382c.14-.13.3-.226.483-.288.182-.063.368-.094.557-.094.275 0 .488.065.64.195.152.13.229.322.229.576v.105h-.225c-.215 0-.45.01-.707.03-.258.02-.497.07-.719.15a1.36 1.36 0 0 0-.557.366c-.15.165-.225.392-.225.681a.933.933 0 0 0 .385.775c.118.087.255.153.412.198.158.045.326.068.505.068a1.322 1.322 0 0 0 1.153-.614h.015c0 .075.001.16.004.258.002.097.013.186.033.266h.562a4.153 4.153 0 0 1-.053-.607m1.4-4.692a.41.41 0 0 0-.303.127.416.416 0 0 0-.124.3c0 .124.04.227.12.306.08.08.182.12.307.12.124 0 .227-.04.307-.12.08-.08.12-.182.12-.306a.416.416 0 0 0-.124-.3.406.406 0 0 0-.303-.127m-.292 5.299h.584V25.83h-.584zm4.46-3.196a1.125 1.125 0 0 0-.415-.292 1.54 1.54 0 0 0-.595-.104 1.401 1.401 0 0 0-.74.205c-.1.063-.187.134-.26.213a1.04 1.04 0 0 0-.168.247h-.014c0-.1-.003-.197-.008-.291a5.461 5.461 0 0 1-.007-.285h-.554c0 .115.005.242.015.382.01.14.015.29.015.449v2.672h.583v-1.706c0-.2.022-.382.064-.547.043-.165.108-.307.195-.426a.861.861 0 0 1 .337-.277c.137-.065.3-.098.49-.098.274 0 .476.085.606.255.13.17.194.401.194.696v2.103h.584V27.17c0-.21-.026-.403-.078-.58a1.177 1.177 0 0 0-.244-.453m3.174 2.717c-.09.02-.177.03-.262.03a.585.585 0 0 1-.3-.064.403.403 0 0 1-.157-.172.655.655 0 0 1-.06-.255 5.891 5.891 0 0 1-.007-.317v-1.752h1.033v-.494H52.66v-.995h-.584v.995h-.763v.494h.763v1.923c0 .18.011.344.034.49a.865.865 0 0 0 .138.372c.07.1.167.176.292.231.125.055.292.082.502.082.11 0 .225-.01.348-.03.122-.02.233-.052.333-.097l-.023-.53c-.08.04-.164.069-.254.089m1.535-1.587c.04-.3.16-.539.36-.718.199-.18.46-.27.785-.27.324 0 .579.09.764.27.184.18.281.419.291.718zm2.369-1.044a1.451 1.451 0 0 0-.528-.359 1.784 1.784 0 0 0-.674-.123c-.259 0-.498.044-.718.134-.22.09-.41.216-.569.378a1.72 1.72 0 0 0-.374.584c-.09.227-.135.475-.135.744 0 .255.041.495.124.719a1.66 1.66 0 0 0 .91.976c.219.098.466.147.74.147.33 0 .619-.054.868-.161.25-.108.479-.296.689-.566l-.442-.343a1.48 1.48 0 0 1-.471.396c-.175.09-.39.135-.644.135-.16 0-.307-.03-.442-.09a1.125 1.125 0 0 1-.351-.243 1.24 1.24 0 0 1-.243-.36 1.225 1.225 0 0 1-.109-.43h2.829v-.187c0-.29-.04-.548-.12-.775a1.604 1.604 0 0 0-.34-.576m3.58 1.65a1.36 1.36 0 0 1-.074.408.933.933 0 0 1-.513.561 1.071 1.071 0 0 1-.445.086 1.01 1.01 0 0 1-.55-.138c-.147-.092-.22-.248-.22-.468 0-.24.109-.411.328-.516.22-.105.517-.157.891-.157h.584zm.585.853v-1.504c0-.498-.115-.87-.345-1.115-.23-.245-.603-.367-1.122-.367-.255 0-.505.044-.753.131-.247.088-.46.224-.64.408l.367.382c.14-.13.3-.226.483-.288.182-.063.368-.094.558-.094.274 0 .487.065.64.195.152.13.228.322.228.576v.105h-.225c-.214 0-.45.01-.707.03a2.74 2.74 0 0 0-.718.15c-.222.08-.408.201-.558.366-.15.165-.224.392-.224.681a.933.933 0 0 0 .385.775c.117.087.254.153.411.198.158.045.326.068.506.068a1.321 1.321 0 0 0 1.152-.614h.015c0 .075.001.16.004.258a1.2 1.2 0 0 0 .034.266h.561a4.153 4.153 0 0 1-.052-.607m1.792-2.065a.994.994 0 0 1 .37-.28 1.24 1.24 0 0 1 .517-.102c.175 0 .334.034.479.101.144.068.28.176.404.326l.464-.412a1.613 1.613 0 0 0-.61-.419 2.03 2.03 0 0 0-.737-.134 1.9 1.9 0 0 0-.737.138 1.7 1.7 0 0 0-.573.385 1.73 1.73 0 0 0-.37.584 2.01 2.01 0 0 0-.131.733c0 .27.044.517.13.741.088.225.21.42.367.584.158.165.348.292.573.382.224.09.471.135.74.135.255 0 .497-.045.727-.135.23-.09.429-.232.599-.427l-.435-.411c-.21.29-.506.433-.89.433a1.077 1.077 0 0 1-.857-.382 1.332 1.332 0 0 1-.24-.414 1.458 1.458 0 0 1-.086-.506c0-.18.025-.347.075-.505.05-.157.124-.295.221-.415m5.879-.524a1.124 1.124 0 0 0-.416-.292 1.536 1.536 0 0 0-.594-.104c-.135 0-.263.017-.382.052-.12.035-.228.08-.326.135a1.218 1.218 0 0 0-.25.183.93.93 0 0 0-.165.206h-.015v-2.642h-.584v5.658h.584v-1.706c0-.2.021-.382.063-.547.043-.165.108-.307.195-.426.087-.12.2-.212.337-.277.137-.065.3-.098.49-.098.274 0 .476.085.606.255.13.17.195.401.195.696v2.103h.584V27.17c0-.21-.026-.403-.08-.58a1.177 1.177 0 0 0-.242-.453m4.18 1.957a1.193 1.193 0 0 1-1.157.79c-.19 0-.36-.034-.512-.101a1.182 1.182 0 0 1-.644-.689 1.474 1.474 0 0 1-.086-.513c0-.184.028-.355.086-.512a1.195 1.195 0 0 1 .644-.689c.152-.067.323-.1.512-.1a1.193 1.193 0 0 1 1.156.79c.058.156.087.327.087.511 0 .185-.029.356-.086.513m.086-1.755h-.015a1.72 1.72 0 0 0-.558-.441 1.558 1.558 0 0 0-.7-.157c-.274 0-.525.045-.752.138a1.68 1.68 0 0 0-.954.97c-.09.223-.135.468-.135.732 0 .265.045.51.135.734.09.225.213.419.37.584a1.722 1.722 0 0 0 1.246.524c.315 0 .59-.069.828-.206a1.34 1.34 0 0 0 .52-.505h.015v.62h.584v-5.657h-.584zm6.844.501a2.008 2.008 0 0 0-.509-.284 9.883 9.883 0 0 0-.595-.21 4.764 4.764 0 0 1-.531-.194 1.358 1.358 0 0 1-.345-.21.667.667 0 0 1-.183-.25.843.843 0 0 1-.056-.318c0-.155.032-.29.097-.404a.785.785 0 0 1 .259-.277 1.22 1.22 0 0 1 .362-.158c.135-.035.272-.052.412-.052.19 0 .372.039.546.116a.93.93 0 0 1 .42.37l.516-.448a1.603 1.603 0 0 0-.663-.483 2.321 2.321 0 0 0-.819-.139c-.235 0-.46.033-.674.098a1.84 1.84 0 0 0-.576.288c-.17.127-.304.285-.404.475-.1.19-.15.411-.15.666 0 .22.034.408.101.565.068.157.16.292.277.404.117.113.256.207.416.285.16.077.334.146.523.206l.614.21c.175.059.32.126.434.201a.74.74 0 0 1 .255.266.851.851 0 0 1 .082.4.75.75 0 0 1-.105.397.954.954 0 0 1-.27.288 1.23 1.23 0 0 1-.37.176 1.448 1.448 0 0 1-1.058-.09 1.11 1.11 0 0 1-.48-.442l-.538.442c.09.135.197.248.321.34.125.093.259.168.4.225.143.057.291.1.446.127a2.645 2.645 0 0 0 1.16-.052c.225-.062.423-.157.595-.284.172-.128.31-.288.416-.483.104-.195.157-.424.157-.689 0-.26-.044-.475-.131-.647a1.26 1.26 0 0 0-.352-.43m4.217-.704a1.128 1.128 0 0 0-.415-.292 1.54 1.54 0 0 0-.595-.104c-.135 0-.262.017-.382.052-.12.035-.228.08-.325.135a1.218 1.218 0 0 0-.251.183.932.932 0 0 0-.165.206h-.015v-2.642h-.584v5.658h.584v-1.706c0-.2.021-.382.064-.547a1.21 1.21 0 0 1 .195-.426.865.865 0 0 1 .336-.277c.138-.065.3-.098.49-.098.275 0 .477.085.607.255.13.17.194.401.194.696v2.103h.584V27.17c0-.21-.026-.403-.079-.58a1.182 1.182 0 0 0-.243-.453m4.143 1.957a1.188 1.188 0 0 1-.644.688 1.247 1.247 0 0 1-.513.102c-.19 0-.36-.034-.512-.101a1.19 1.19 0 0 1-.644-.689 1.482 1.482 0 0 1-.086-.513c0-.184.029-.355.086-.512a1.195 1.195 0 0 1 .644-.689c.152-.067.323-.1.512-.1a1.198 1.198 0 0 1 .906.378c.11.117.193.254.25.41.058.158.087.329.087.513 0 .185-.029.356-.086.513m.183-1.841a1.737 1.737 0 0 0-.591-.378c-.23-.09-.48-.134-.749-.134s-.519.044-.748.134a1.73 1.73 0 0 0-.591.378 1.769 1.769 0 0 0-.39.58 1.904 1.904 0 0 0-.141.748c0 .275.047.524.142.749a1.72 1.72 0 0 0 .98.958c.23.09.48.135.748.135.27 0 .52-.045.749-.135.23-.09.426-.216.591-.378a1.77 1.77 0 0 0 .39-.58c.094-.225.142-.474.142-.749a1.9 1.9 0 0 0-.143-.748 1.774 1.774 0 0 0-.389-.58m1.751-2.219a.41.41 0 0 0-.303.127.416.416 0 0 0-.123.3c0 .124.04.227.12.306.08.08.182.12.306.12.125 0 .227-.04.307-.12.08-.08.12-.182.12-.306a.415.415 0 0 0-.124-.3.406.406 0 0 0-.303-.127m-.291 5.299h.583V25.83H90.3zm3.915-1.752a1.29 1.29 0 0 0-.367-.19 3.36 3.36 0 0 0-.441-.116 3.329 3.329 0 0 1-.333-.075 1.719 1.719 0 0 1-.285-.105.63.63 0 0 1-.194-.138.275.275 0 0 1-.071-.191c0-.08.02-.151.063-.214a.524.524 0 0 1 .161-.153.774.774 0 0 1 .221-.09c.082-.02.163-.03.243-.03a.818.818 0 0 1 .741.42l.487-.322a1.08 1.08 0 0 0-.498-.487 1.701 1.701 0 0 0-1.171-.082 1.46 1.46 0 0 0-.42.194.978.978 0 0 0-.299.322.882.882 0 0 0-.112.45.86.86 0 0 0 .101.44.83.83 0 0 0 .27.281c.111.073.243.131.392.176.15.045.307.085.472.12.094.02.187.042.277.067.09.025.17.06.239.101.07.043.126.094.169.154.042.06.063.137.063.232a.425.425 0 0 1-.067.243.55.55 0 0 1-.18.169.827.827 0 0 1-.25.097c-.093.02-.184.03-.274.03a.971.971 0 0 1-.52-.127 1.48 1.48 0 0 1-.378-.345l-.464.36c.175.249.37.42.588.512.217.092.475.139.774.139.175 0 .346-.02.513-.06.167-.04.317-.104.449-.191a.988.988 0 0 0 .318-.34c.08-.14.12-.31.12-.51a.984.984 0 0 0-.09-.441.85.85 0 0 0-.247-.3m1.691-.314c.04-.3.16-.539.36-.718.2-.18.461-.27.786-.27.324 0 .578.09.763.27.185.18.282.419.292.718zm2.37-1.044a1.454 1.454 0 0 0-.528-.359 1.784 1.784 0 0 0-.674-.123c-.26 0-.499.044-.718.134-.22.09-.41.216-.57.378a1.726 1.726 0 0 0-.373.584c-.09.227-.135.475-.135.744 0 .255.041.495.123.719a1.66 1.66 0 0 0 .91.976c.22.098.466.147.74.147.33 0 .62-.054.869-.161.25-.108.479-.296.688-.566l-.441-.343c-.14.174-.297.306-.472.396-.175.09-.39.135-.643.135-.16 0-.307-.03-.442-.09a1.127 1.127 0 0 1-.352-.243 1.26 1.26 0 0 1-.243-.36 1.225 1.225 0 0 1-.109-.43h2.83v-.187c0-.29-.04-.548-.12-.775a1.609 1.609 0 0 0-.34-.576m3.58 1.65c-.004.145-.03.281-.074.408a.933.933 0 0 1-.513.561 1.073 1.073 0 0 1-.445.086 1.01 1.01 0 0 1-.55-.138c-.148-.092-.221-.248-.221-.468 0-.24.11-.411.33-.516.219-.105.516-.157.89-.157h.583zm.584.853v-1.504c0-.498-.115-.87-.344-1.115-.23-.245-.604-.367-1.123-.367a2.25 2.25 0 0 0-.752.131c-.247.088-.46.224-.64.408l.367.382c.14-.13.3-.226.482-.288a1.72 1.72 0 0 1 .558-.094c.275 0 .488.065.64.195.153.13.228.322.228.576v.105h-.224c-.215 0-.45.01-.707.03a2.74 2.74 0 0 0-.719.15 1.36 1.36 0 0 0-.557.366c-.15.165-.225.392-.225.681a.93.93 0 0 0 .386.775c.117.087.254.153.411.198.157.045.326.068.505.068.27 0 .5-.058.693-.173a1.37 1.37 0 0 0 .46-.441h.015c0 .075.001.16.004.258.002.097.013.186.033.266h.561a4.148 4.148 0 0 1-.052-.607m1.071.607h.583v-5.658h-.584zm3.614-.479c-.09.02-.177.03-.262.03a.585.585 0 0 1-.299-.064.403.403 0 0 1-.157-.172.655.655 0 0 1-.06-.255 5.881 5.881 0 0 1-.008-.317v-1.752h1.033v-.494h-1.033v-.995h-.584v.995h-.763v.494h.763v1.923c0 .18.012.344.034.49a.878.878 0 0 0 .139.372c.07.1.167.176.292.231.124.055.291.082.501.082.11 0 .226-.01.348-.03.122-.02.233-.052.333-.097l-.022-.53a1.1 1.1 0 0 1-.255.089m3.443-.981c-.005.145-.03.281-.075.408a.933.933 0 0 1-.513.561 1.071 1.071 0 0 1-.445.086 1.01 1.01 0 0 1-.55-.138c-.147-.092-.22-.248-.22-.468 0-.24.109-.411.328-.516.22-.105.517-.157.891-.157h.584zm.584.853v-1.504c0-.498-.115-.87-.345-1.115-.23-.245-.603-.367-1.122-.367-.255 0-.505.044-.753.131-.246.088-.46.224-.64.408l.367.382c.14-.13.301-.226.483-.288.182-.063.368-.094.558-.094.274 0 .487.065.64.195.152.13.228.322.228.576v.105h-.224a9.2 9.2 0 0 0-.708.03 2.74 2.74 0 0 0-.718.15c-.222.08-.408.201-.558.366-.15.165-.224.392-.224.681a.933.933 0 0 0 .385.775c.117.087.254.153.411.198.158.045.326.068.506.068a1.321 1.321 0 0 0 1.152-.614h.015c0 .075.001.16.004.258a1.2 1.2 0 0 0 .034.266h.561a4.148 4.148 0 0 1-.052-.607m4.505-1.279l1.1-2.605h.015l1.048 2.605zm.831-3.413l-2.335 5.299h.71l.547-1.303h2.65l.538 1.303h.734l-2.253-5.299zm3.682 5.299h.583v-5.658h-.583zm4.726-1.239a1.193 1.193 0 0 1-1.156.79c-.19 0-.36-.034-.513-.101a1.182 1.182 0 0 1-.643-.689 1.482 1.482 0 0 1-.086-.513c0-.184.028-.355.086-.512a1.195 1.195 0 0 1 .643-.689c.153-.067.323-.1.513-.1s.36.033.512.1a1.193 1.193 0 0 1 .644.689c.058.157.086.328.086.512 0 .185-.028.356-.086.513m.206-1.83a1.676 1.676 0 0 0-.58-.385 1.978 1.978 0 0 0-.752-.138c-.255 0-.488.052-.7.157a1.718 1.718 0 0 0-.558.441h-.014v-2.664h-.584v5.658h.584v-.621h.014c.11.199.283.368.52.505.238.137.513.206.828.206a1.72 1.72 0 0 0 1.246-.524c.157-.165.28-.36.37-.584.09-.225.135-.47.135-.734s-.045-.509-.135-.733a1.771 1.771 0 0 0-.374-.584m3.622 1.609c-.005.145-.03.281-.074.408a.933.933 0 0 1-.513.561 1.071 1.071 0 0 1-.446.086c-.22 0-.402-.045-.55-.138-.147-.092-.22-.248-.22-.468 0-.24.11-.411.329-.516.22-.105.516-.157.89-.157h.584zm.6 1.164a3.275 3.275 0 0 1-.016-.31v-1.505c0-.498-.115-.87-.344-1.115-.23-.245-.604-.367-1.123-.367a2.25 2.25 0 0 0-.752.131c-.247.088-.46.224-.64.408l.367.382c.14-.13.3-.226.482-.288.183-.063.368-.094.558-.094.275 0 .488.065.64.195.152.13.228.322.228.576v.105h-.224c-.215 0-.45.01-.707.03a2.74 2.74 0 0 0-.719.15 1.36 1.36 0 0 0-.557.366c-.15.165-.225.392-.225.681a.933.933 0 0 0 .385.775c.117.087.255.153.412.198.157.045.326.068.505.068a1.322 1.322 0 0 0 1.153-.614h.015c0 .075 0 .16.003.258.003.097.014.186.034.266h.561a4.148 4.148 0 0 1-.037-.296M32.935 25.2l-.676-.936h-.772l.93.935zm55.075.014l-.687-.95h-.784l.944.95z" fill="#695d90"/></svg>
