<svg xmlns="http://www.w3.org/2000/svg" viewBox="0 0 436 173.1"><style>.st0{fill:#fff}</style><path class="st0" d="M75.3 22.2c4.7-5.9 7.9-13.7 7-21.8-6.9.3-15.2 4.5-20.1 10.4-4.4 5-8.2 13.2-7.2 21 7.8.6 15.5-3.9 20.3-9.6M82.3 33.2c-11.2-.7-20.7 6.4-26.1 6.4-5.3 0-13.5-6-22.4-5.9-11.5.2-22.2 6.7-28.1 17.1-12 20.7-3.2 51.5 8.5 68.4 5.7 8.4 12.5 17.6 21.5 17.2 8.5-.3 11.9-5.5 22.2-5.5 10.4 0 13.4 5.5 22.4 5.4 9.4-.2 15.2-8.4 20.9-16.7 6.5-9.5 9.2-18.7 9.4-19.2-.2-.2-18-7-18.2-27.6-.2-17.2 14-25.4 14.7-25.9-8-12-20.5-13.3-24.8-13.7"/><g><path class="st0" d="M179.7 9.9C204 9.9 221 26.7 221 51.1c0 24.5-17.3 41.4-41.9 41.4h-26.9v42.8h-19.5V9.9h47zm-27.5 66.3h22.3c16.9 0 26.6-9.1 26.6-24.9 0-15.8-9.6-24.9-26.5-24.9h-22.4v49.8zM226.1 109.4c0-16 12.3-25.8 34-27l25-1.5v-7c0-10.2-6.9-16.3-18.3-16.3-10.9 0-17.6 5.2-19.3 13.4h-17.7c1-16.5 15.1-28.7 37.7-28.7 22.2 0 36.3 11.7 36.3 30.1v63h-18v-15h-.4c-5.3 10.2-16.9 16.6-28.9 16.6-17.9-.1-30.4-11.2-30.4-27.6zm59-8.3v-7.2l-22.5 1.4c-11.2.8-17.6 5.7-17.6 13.6 0 8 6.6 13.2 16.7 13.2 13.2 0 23.4-9.1 23.4-21zM320.8 169v-15.2c1.4.3 4.5.3 6.1.3 8.7 0 13.4-3.6 16.3-13 0-.2 1.7-5.6 1.7-5.6l-33-91.5h20.3l23.1 74.4h.3L378.7 44h19.8l-34.2 96.2c-7.8 22.2-16.9 29.3-35.8 29.3-1.6-.1-6.3-.3-7.7-.5z"/></g></svg>
