<?xml version="1.0" encoding="utf-8"?>
<!-- Generator: Adobe Illustrator 16.0.0, SVG Export Plug-In . SVG Version: 6.00 Build 0)  -->
<!DOCTYPE svg PUBLIC "-//W3C//DTD SVG 1.1//EN" "http://www.w3.org/Graphics/SVG/1.1/DTD/svg11.dtd">
<svg version="1.1" id="Layer_1" xmlns="http://www.w3.org/2000/svg" xmlns:xlink="http://www.w3.org/1999/xlink" x="0px" y="0px"
	 width="1000px" height="800.003px" viewBox="99.994 0.023 1000 800.003" enable-background="new 99.994 0.023 1000 800.003"
	 xml:space="preserve">
<title>Artboard 2</title>
<path d="M453.67,384.703c1.996,5.858-1.736,48.43-14.147,62.272c-9.765,9.295-20.94,16.984-33.11,22.783
	c-13.453,6.727-30.941,19.397-39.49,22.565c-8.487,3.272-17.776,3.849-26.602,1.649c-1.489-0.45-2.939-1.017-4.34-1.692
	c-6.913-4.055-12.679-9.805-16.751-16.708c-1.296-2.483-2.315-5.104-3.038-7.811c-1.098-3.822-1.306-7.846-0.607-11.761
	c0.421-1.643,0.3-3.379-0.347-4.947c-1.153-2.285-2.746-4.32-4.687-5.988c-2.677-1.939-4.373-4.951-4.644-8.245
	c0.032-0.969,0.238-1.925,0.607-2.82c2.43-5.469,13.236-9.591,26.038-9.591c13.843,0,25.256,4.687,26.602,10.675
	c0,0,1.779,7.421-4.557,9.591c-4.148,1.29-8.403,2.205-12.715,2.734c-2.126,0-12.064,1.909-14.494,6.031
	c-3.086,6.635-2,14.463,2.777,20.006c2.669,2.92,6.004,5.152,9.721,6.51c3.173,0.976,6.49,1.401,9.807,1.258
	c4.83-0.448,9.552-1.695,13.974-3.688c6.596-3.038,10.892-8.679,17.619-13.496c17.358-12.454,42.18-20.223,51.771-33.11
	c8.115-13.801,7.681-30.378,16.664-46.694c0,0,0.955-1.735,2.17-1.519C452.897,382.836,453.656,383.688,453.67,384.703z"/>
<path d="M561.421,254.863c0.564,2.387-17.792,2.126-21.351,18.399c-6.075,27.817-36.409,19.745-52.074,41.312
	c-3.689,4.34-7.204,3.646-8.983,2.04c8.679-11.066,18.704-28.641,24.172-35.15C511.56,271.44,543.325,250.697,561.421,254.863z"/>
<path d="M478.405,161.302c8.546,10.959,13.257,24.422,13.409,38.318c62.576-16.403,114.044-51.164,111.267-123.765
	c-1.775-24.958-8.254-49.355-19.094-71.906c-1.042-2.344,0-3.472,0-3.472c1.476-1.215,3.124,0.391,3.124,0.391
	c21.395,27.513,41.009,98.855,24.822,137.694c-22.826,54.852-68.392,68.565-99.506,88.18c-10.361,6.626-19.765,14.643-27.947,23.824
	c-8.679,9.503-24.692,36.93-29.118,46.347c0,0-0.825-16.924-24.519-27.687c-2.777-1.258,35.758-43.873,39.62-66.092
	c4.687-27.079-13.019-63.705-35.237-69.433C435.227,133.442,455.84,131.532,478.405,161.302z"/>
<path d="M597.18,227.741c2.744,17.486-0.481,35.388-9.157,50.816c-6.697,12.435-15.508,23.61-26.037,33.024
	c-9.243,9.113-21.48,14.017-32.112,21.698c-13.02-1.085-25.69-2.604-34.153-8.289c36.192-3.298,69.043-32.546,76.116-55.937
	c3.168-10.849,7.725-34.196-5.381-34.716c-10.502-0.26-24.648,7.334-35.584,13.019c-12.542,6.466-32.33,17.358-34.066,12.542
	c-4.773-8.202,19.225-24.042,33.241-31.289C549.01,218.845,580.342,205.609,597.18,227.741z"/>
<path d="M487.909,338.486c2.69,4.73,3.124,8.68,0.911,16.794c-9.981,36.844,2.257,89.829,2.083,129.45
	c0,5.555,7.638,65.787-8.68,66.222c-3.731-0.435-8.245-27.296-9.33-42.441c-1.952-27.6-7.941-54.331-7.203-83.232
	c1.128-36.93-0.694-61.796,12.021-88.224c1.041-2.604,4.773-2.431,4.773-2.431c0.858-0.021,1.709,0.174,2.474,0.564
	C486.223,336,487.242,337.14,487.909,338.486z"/>
<path d="M321.486,597.473c-7.464,0-8.375-12.759-9.547-19.095c-1.432-7.854-0.521-17.618-1.997-27.643l-0.434-2.604l-1.91,2.04
	c-14.798,16.187-30.377,33.501-62.533,35.584c-17.879,1.172-37.06-0.911-55.894,2.083c-20.005,3.168-40.185,15.319-57.977,20.7
	c-9.348,2.456-19.275,1.357-27.86-3.081c-4.079-1.519-2.69-3.516-2.69-3.516c4.177-3.956,9.189-6.922,14.668-8.679
	c13.626-4.34,53.333-20.83,62.099-22.782c29.162-6.423,60.754,1.996,88.006-5.164c19.789-5.208,39.056-33.589,44.524-54.853
	c2.387-9.33,4.34-15.449,7.855-15.84c1.654-0.179,3.234,0.734,3.905,2.257c3.92,14.298,5.704,29.097,5.294,43.916
	c-0.868,19.051,5.902,53.551-2.343,56.415C323.612,597.42,322.549,597.508,321.486,597.473z"/>
<path d="M444.947,346.775c-9.591-3.168-25.69,0-31.071,2.3c-8.68,3.775-10.068,14.451-10.806,21.134
	c-0.343,1.804-0.253,3.662,0.26,5.425c0.826,1.562,2.685,2.269,4.34,1.648c0.825,0,5.251-1.041,6.77-1.389
	c13.02-1.953,23.998,0,29.119-10.589c1.557-3.457,2.51-7.156,2.82-10.936C447.334,348.381,444.947,346.775,444.947,346.775z
	 M432.753,358.883c-1.508-0.079-2.984-0.463-4.34-1.129c-0.781-1.345,0.478-4.339,0.478-4.339c0.792-2.109,3.144-3.178,5.253-2.386
	c1.576,0.592,2.627,2.091,2.646,3.774C436.663,356.985,434.934,358.733,432.753,358.883z"/>
<path d="M336.284,256.686c-7.811-6.813-17.358-23.998-20.049-40.705c-2.494-18.198,0.801-36.721,9.417-52.943
	c2.663-5.547,6.428-10.493,11.066-14.538c-4.153,0.077-8.199,1.326-11.673,3.602c0,0-14.885,8.028-22.436,31.288
	c-1.083,2.91-1.938,5.898-2.561,8.94h-0.651c-10.485-2.825-20.662-6.692-30.377-11.543c-21.698-11.196-41.183-30.377-46.65-55.417
	c-6.423-29.466,5.858-56.414,19.311-78.112c0.258-0.541,0.048-1.188-0.478-1.476c-0.918-0.443-1.989-0.443-2.907,0
	c-7.551,3.602-48.604,45.826-25.604,108.489c12.411,33.806,57.152,55.851,79.11,65.094c0,0,2.126,0.781,3.775,1.302
	c0.939,10.734,2.534,21.4,4.773,31.939c1.696,7.865,4.364,15.489,7.941,22.696c-5.338,6.727-4.773,19.354-8.679,27.383
	c0,0-1.475,3.038-2.604,5.208l-0.304,0.478l0,0l-1.432-1.172c-10.415-9.113-11.153-24.432-16.838-35.845
	c-12.107-24.171-34.977-33.241-60.754-43.873c-9.634,6.249-8.766,19.875-6.553,33.111c2.257,14.19,10.285,28.121,16.273,40.532
	c5.228,10.034,13.553,18.115,23.737,23.043c9.591,3.905,19.615,5.164,23.781-1.909c0.387-0.727,0.226-1.624-0.391-2.17
	c-0.478-0.868-3.428-1.605-3.428-1.605c-3.428-1.346-6.466-2.387-9.374-3.385c-19.485-7.812-24.302-19.442-24.302-19.442
	c-8.679-15.796-16.621-35.498-8.679-48.646c18.356,7.551,18.704,6.553,30.377,19.658c9.504,10.719,6.77,27.904,13.757,41.183
	c2.126,4.079,12.498,7.377,16.881,11.673l0.347,0.348c-0.304,0.391-1.389,2.777-1.389,2.777s-4.86,11.717,1.476,20.482
	c5.207,8.679,4.99,20.656,13.669,26.559c2.126,1.475,4.339,2.733,9.677,5.944c4.687,2.777,11.066,5.382,12.064,3.603
	c2.083-19.354,0.738-42.268-22.653-36.322c1.432-24.432,20.526-50.947,21.915-53.55c4.735-7.785,12.341-13.396,21.177-15.623
	c10.198-2.821,20.439-2.387,28.554-10.806C360.152,260.808,345.875,265.104,336.284,256.686z M309.813,350.725
	c1.711,0.007,3.236,1.081,3.819,2.69c0,0,1.258,2.994,0.477,4.339c-1.355,0.665-2.832,1.049-4.339,1.129
	c-2.198-0.129-3.951-1.882-4.079-4.079c0.023-2.253,1.869-4.061,4.121-4.037c0.015,0,0.03,0.001,0.045,0.001L309.813,350.725z"/>
<path d="M611.283,557.375v-16.491H553.22v105.973h18.183v-47.735h39.881v-16.49h-39.881v-25.213L611.283,557.375z"/>
<path d="M680.499,586.146c-7.153-6.942-16.811-10.699-26.775-10.414c-10.028-0.3-19.761,3.418-27.035,10.328
	c-14.261,14.177-14.328,37.229-0.151,51.489c0.051,0.051,0.101,0.102,0.151,0.151c7.124,6.837,16.688,10.54,26.558,10.284
	c10.028,0.303,19.777-3.325,27.166-10.11c7.143-6.536,11.114-15.838,10.893-25.517C691.531,602.492,687.611,592.984,680.499,586.146
	z M668.392,626.33c-3.97,3.833-9.327,5.885-14.841,5.686c-5.561,0.214-10.972-1.82-15.016-5.642
	c-3.908-3.819-6.008-9.121-5.771-14.581c-0.227-5.511,1.812-10.873,5.642-14.842c3.796-3.891,9.063-5.988,14.494-5.771
	c5.643-0.205,11.126,1.895,15.188,5.815c7.902,8.131,7.998,21.044,0.217,29.292L668.392,626.33z"/>
<path d="M751.364,582.544c-4.408-4.753-10.458-7.654-16.925-8.115c-6.292,0-12.324,4.34-18.355,13.02v-11.587h-16.795v70.995h16.925
	v-37.104c-0.125-4.887,1.404-9.673,4.34-13.583c2.164-3.331,5.835-5.378,9.807-5.468c4.532,0.506,8.712,2.688,11.717,6.119
	l1.562,1.476l8.68-14.798L751.364,582.544z"/>
<path d="M816.458,610.708c0.461-9.495-2.529-18.836-8.419-26.298c-5.656-6.627-14.033-10.304-22.739-9.981
	c-9.104-0.277-17.866,3.469-23.954,10.242c-6.241,7.208-9.527,16.508-9.2,26.037c-0.132,6.567,1.358,13.066,4.34,18.921
	c2.73,5.24,6.729,9.716,11.63,13.019c5.701,3.506,12.32,5.229,19.007,4.946c4.95,0.08,9.888-0.533,14.668-1.822
	c4.524-1.363,8.812-3.412,12.715-6.075l0.781-0.521v-17.358l-2.734,1.996c-6.736,5.053-14.926,7.792-23.347,7.812
	c-10.406,0.641-19.36-7.276-20.001-17.682c-0.002-0.022-0.003-0.045-0.004-0.067h47.258V610.708z M785.3,589.531
	c3.792-0.234,7.509,1.135,10.241,3.775c2.3,2.595,3.687,5.872,3.949,9.33h-29.596c0.713-3.492,2.397-6.711,4.86-9.287
	c2.829-2.572,6.549-3.942,10.371-3.818H785.3z"/>
<path d="M857.119,604.633l-4.729-2.69c-2.596-1.312-5.016-2.945-7.204-4.86c-0.954-0.822-1.534-1.997-1.605-3.255
	c-0.025-1.21,0.605-2.339,1.649-2.951c1.585-0.979,3.433-1.448,5.294-1.345c6.677,0.684,13.069,3.059,18.573,6.899l2.604,1.562
	v-17.358l-0.912-0.478c-6.454-3.659-13.716-5.657-21.134-5.814c-6.017-0.245-11.929,1.629-16.707,5.294
	c-4.31,3.359-6.786,8.553-6.683,14.017c0.015,4.44,1.545,8.743,4.339,12.194c4.967,5.268,10.849,9.591,17.358,12.759
	c2.843,1.492,5.52,3.281,7.985,5.337c0.965,0.98,1.483,2.314,1.432,3.689c-0.102,1.48-0.952,2.806-2.257,3.515
	c-1.839,1.206-4.007,1.813-6.205,1.735c-3.198-0.182-6.333-0.962-9.243-2.3c-3.943-1.661-7.697-3.742-11.196-6.205l-2.69-1.91
	v18.747l0.954,0.478c3.888,1.968,7.938,3.594,12.107,4.86c3.643,0.936,7.393,1.388,11.153,1.346
	c6.401,0.261,12.689-1.753,17.749-5.686c4.591-3.596,7.227-9.14,7.116-14.971C874.868,618.953,868.923,611.315,857.119,604.633z"/>
<path d="M929.98,628.066c-4.293,2.679-9.219,4.176-14.276,4.34c-3.385,0-7.854-0.999-7.854-9.852V591.31h21.221v-15.448H907.85
	v-16.447l-28.598,28.164v3.775h11.803v28.207c-0.18,4.36,0.126,8.727,0.912,13.019c0.479,2.013,1.254,3.943,2.3,5.729
	c0.959,1.517,2.144,2.878,3.515,4.036c4.547,3.885,10.383,5.928,16.36,5.728c6.15,0.108,12.223-1.387,17.618-4.339l0.868-0.478
	v-16.403L929.98,628.066z"/>
<path d="M605.207,438.297c8.059-3.893,13.135-12.099,13.02-21.047c0.361-10.657-5.812-20.459-15.579-24.735
	c-6.52-2.657-13.537-3.871-20.57-3.559h-28.598v105.755h36.453c6.992,0.216,13.941-1.18,20.309-4.079
	c5.049-2.372,9.366-6.06,12.498-10.675c2.895-4.452,4.405-9.662,4.34-14.972c0.11-6.778-2.428-13.333-7.073-18.27
	C615.922,442.627,610.809,439.719,605.207,438.297z M595.14,428.576c-4.559,3.132-10.073,4.561-15.579,4.036h-8.071v-27.34h10.936
	c15.318,0,17.098,7.421,17.098,13.019C599.683,422.204,598.073,425.981,595.14,428.576z M571.489,449.103h12.021
	c5.198-0.256,10.402,0.346,15.405,1.779c2.822,0.973,5.277,2.791,7.03,5.207c1.593,2.228,2.443,4.899,2.43,7.638
	c0.016,2.719-0.786,5.38-2.3,7.638c-1.483,2.299-3.612,4.11-6.118,5.208c-5.084,1.475-10.384,2.062-15.666,1.735h-12.759
	L571.489,449.103z"/>
<path d="M670.475,422.327c-6.292,0-12.324,4.34-18.356,13.019v-11.587h-16.924v70.952h16.924v-37.146
	c-0.135-4.902,1.395-9.705,4.34-13.626c2.16-3.343,5.829-5.404,9.808-5.512c4.532,0.506,8.711,2.688,11.717,6.119l1.562,1.476
	l8.68-14.755l-0.998-0.955C682.839,425.646,676.861,422.796,670.475,422.327z"/>
<path d="M745.983,482.951c0,0-0.607,0-0.607-1.736V452.4c0.1-3.971-0.074-7.943-0.521-11.891c-0.389-2.358-1.213-4.625-2.43-6.683
	c-1.125-2.019-2.594-3.824-4.34-5.338c-5.264-4.251-11.901-6.428-18.66-6.119c-8.973-0.523-17.695,3.071-23.694,9.765l-0.434,0.478
	v19.614l2.994-3.255c4.854-6.233,12.125-10.114,20.006-10.675c4.968-0.805,9.647,2.571,10.452,7.539
	c0.154,0.952,0.156,1.923,0.006,2.876v2.387l-15.926,5.511c-5.228,1.696-9.943,4.681-13.713,8.68
	c-3.23,3.394-5.032,7.899-5.034,12.585c-0.146,4.874,1.74,9.589,5.207,13.019c3.448,3.433,8.155,5.3,13.019,5.164
	c6.225-0.076,12.279-2.044,17.358-5.642c2.114,3.975,6.472,6.223,10.936,5.642c2.207-0.044,4.385-0.5,6.423-1.346
	c2.64-1.085,5.168-2.422,7.551-3.992l0.825-0.521v-12.281l-2.69,1.822C750.79,481.385,748.47,482.493,745.983,482.951z
	 M728.625,461.991v16.881c-2.682,2.675-6.282,4.227-10.068,4.339c-4.386-0.043-7.906-3.633-7.863-8.019
	c0.021-2.07,0.849-4.052,2.309-5.521c2.679-2.267,5.754-4.018,9.07-5.164L728.625,461.991z"/>
<path d="M797.233,480c-5.812,0.308-11.51-1.706-15.839-5.598c-3.993-4.032-6.09-9.567-5.772-15.232
	c-0.215-5.525,1.713-10.921,5.382-15.059c3.496-3.882,8.535-6.012,13.756-5.814c6.482,0.327,12.74,2.478,18.053,6.205l2.647,1.649
	v-18.486l-1.042-0.478c-3.412-1.576-6.955-2.854-10.588-3.819c-3.219-0.723-6.51-1.072-9.808-1.041
	c-9.596-0.368-18.894,3.373-25.561,10.285c-6.624,7.354-10.099,17.016-9.677,26.905c-0.462,9.826,3.131,19.412,9.938,26.515
	c7.148,6.789,16.752,10.377,26.602,9.938c6.959-0.07,13.852-1.378,20.353-3.862l1.128-0.434v-17.099l-2.43,1.085
	C809.022,478.277,803.186,479.755,797.233,480z"/>
<path d="M893.051,423.759h-20.482l-28.077,30.985v-65.962H827.74v105.929h16.795v-32.634l32.025,32.634h22.783l-36.539-36.409
	L893.051,423.759z"/>
<path d="M961.66,435.562c-1.973-4.028-5.08-7.392-8.939-9.677c-3.818-2.32-8.204-3.537-12.672-3.516
	c-6.96,0.106-13.623,2.834-18.66,7.638v-6.249h-17.055v70.952h17.055v-49.515c3.082-5.031,8.508-8.153,14.407-8.288
	c3.501-0.392,6.962,1.012,9.2,3.731c2.26,4.246,3.254,9.05,2.864,13.844v40.228h16.794v-40.357
	C965.046,447.946,964.023,441.531,961.66,435.562z"/>
<path d="M1007.659,422.327c-9.103-0.278-17.866,3.469-23.954,10.241c-6.222,7.217-9.491,16.516-9.156,26.037
	c-0.138,6.583,1.353,13.097,4.339,18.965c2.722,5.233,6.704,9.708,11.587,13.019c5.707,3.488,12.325,5.195,19.008,4.903
	c4.949,0.077,9.887-0.536,14.667-1.822c4.522-1.368,8.81-3.417,12.715-6.075l0.781-0.521v-17.358l-2.733,1.996
	c-6.737,5.053-14.926,7.793-23.348,7.812c-10.405,0.64-19.359-7.278-19.999-17.684c-0.002-0.036-0.004-0.072-0.006-0.108h47.258
	v-3.429c0.466-9.495-2.525-18.838-8.419-26.298C1024.691,425.48,1016.318,421.917,1007.659,422.327z M1007.659,437.429
	c3.797-0.206,7.507,1.177,10.241,3.819c2.266,2.612,3.634,5.882,3.906,9.33h-29.596c0.708-3.493,2.394-6.714,4.859-9.287
	C999.95,438.653,1003.758,437.265,1007.659,437.429z"/>
<rect x="1050.708" y="388.782" width="16.794" height="106.06"/>
<rect x="1082.777" y="388.782" width="16.794" height="106.06"/>
<path d="M642.311,771.836c-10.449,7.13-22.762,11.038-35.41,11.24c-10.381,0.374-20.489-3.369-28.121-10.415
	c-14.66-14.688-14.66-38.473,0-53.16c7.551-7.148,17.641-10.99,28.034-10.676c12.091,0.303,23.894,3.758,34.239,10.024l2.56,1.476
	v-19.832l-1.041-0.434c-11.463-5.305-23.873-8.256-36.496-8.679c-15.072-0.377-29.669,5.296-40.531,15.752
	c-10.787,10.091-16.781,24.288-16.49,39.057c-0.031,9.49,2.454,18.818,7.203,27.035c4.646,8.173,11.387,14.959,19.528,19.658
	c9.194,4.973,19.539,7.428,29.986,7.117c13.25,0.254,26.347-2.867,38.059-9.069l0.867-0.478v-20.31L642.311,771.836z"/>
<path d="M715.866,738.161c-7.161-6.931-16.812-10.685-26.774-10.415c-10.029-0.3-19.762,3.419-27.036,10.328
	c-14.26,14.109-14.383,37.106-0.274,51.367c0.092,0.092,0.183,0.183,0.274,0.273c7.124,6.838,16.688,10.541,26.559,10.285
	c10.043,0.318,19.812-3.312,27.209-10.111c7.138-6.538,11.108-15.839,10.893-25.517
	C726.926,754.502,722.991,744.995,715.866,738.161z M703.629,778.389c-3.972,3.856-9.354,5.912-14.885,5.686
	c-5.551,0.236-10.957-1.801-14.972-5.642c-3.897-3.81-5.995-9.093-5.771-14.538c-0.185-5.512,1.865-10.863,5.685-14.841
	c3.799-3.887,9.064-5.983,14.494-5.772c5.652-0.182,11.14,1.914,15.232,5.815c3.997,3.811,6.177,9.148,5.988,14.668
	C709.595,769.229,707.503,774.529,703.629,778.389z"/>
<path d="M777.966,727.876v49.341c-3.206,4.998-8.688,8.073-14.624,8.202c-3.508,0.396-6.992-0.91-9.374-3.515
	c-2.157-4.261-3.06-9.047-2.604-13.8v-40.229h-16.925v40.229c-0.404,6.446,0.604,12.903,2.951,18.92
	c1.93,3.896,4.943,7.15,8.68,9.374c3.848,2.276,8.243,3.462,12.715,3.428c4.044-0.046,8.029-0.979,11.673-2.733
	c2.66-1.305,5.128-2.97,7.334-4.947v6.553h16.968v-70.822H777.966z"/>
<path d="M865.582,739.637c-1.969-4.031-5.077-7.396-8.939-9.678c-3.819-2.317-8.205-3.534-12.672-3.515
	c-6.96,0.105-13.623,2.833-18.66,7.638v-6.206h-17.055v70.996h16.881v-49.559c3.082-5.032,8.509-8.153,14.408-8.288
	c3.499-0.384,6.956,1.019,9.199,3.731c2.25,4.248,3.229,9.054,2.82,13.844v40.314h16.969v-40.401
	C868.947,752.081,867.94,745.636,865.582,739.637z"/>
<path d="M932.324,779.69c-5.342,2.603-11.161,4.079-17.098,4.34c-5.813,0.308-11.511-1.706-15.84-5.598
	c-3.965-4.05-6.057-9.572-5.771-15.232c-0.209-5.511,1.719-10.891,5.381-15.015c3.477-3.858,8.479-5.986,13.67-5.815
	c6.479,0.342,12.733,2.491,18.053,6.206l2.647,1.649v-18.487l-1.042-0.477c-3.424-1.587-6.981-2.865-10.632-3.819
	c-3.218-0.725-6.509-1.074-9.808-1.042c-9.604-0.361-18.904,3.396-25.56,10.329c-6.629,7.353-10.104,17.015-9.678,26.905
	c-0.441,9.806,3.168,19.361,9.981,26.428c7.155,6.773,16.759,10.346,26.602,9.895c6.975-0.055,13.884-1.363,20.396-3.862
	l1.129-0.435v-17.055L932.324,779.69z"/>
<path d="M955.715,718.677c5.335,0,9.673-4.3,9.721-9.634c0.045-2.573-0.995-5.046-2.864-6.813c-1.827-1.794-4.297-2.779-6.856-2.734
	c-2.513,0.004-4.913,1.039-6.64,2.864c-3.703,3.584-3.8,9.49-0.217,13.193c0.071,0.073,0.144,0.146,0.217,0.216
	C950.791,717.614,953.194,718.667,955.715,718.677z"/>
<rect x="947.34" y="727.876" width="16.75" height="70.996"/>
<rect x="979.191" y="692.899" width="16.795" height="105.973"/>
</svg>
