<svg xmlns="http://www.w3.org/2000/svg" width="245" height="75" viewBox="0 0 245 75" preserveAspectRatio="xMinYMid"><path d="M24.247 55.968V41.132a6.442 6.442 0 0 1 .5-.863v-1.953a6.548 6.548 0 0 1 .478-.651l.545-5.618.518 5.618a6.548 6.548 0 0 1 .491.651v1.952a6.641 6.641 0 0 1 .5.877v4.277h1.78l.677-3.48.651 3.48h1.873V26.058a8.208 8.208 0 0 1 1.009-1V22.9l.491-.837.611-6.375.531 6.375s.491.784.491.837v2.178a8.208 8.208 0 0 1 1.009 1v3.2h9.523v-3.22a7.969 7.969 0 0 1 .5-1V22.9a7.478 7.478 0 0 1 .584-.744l.638-6.269.664 6.269a7.65 7.65 0 0 1 .651.744v2.178s.545.943.6 1.063v19.3h2.006l.611-3.48.624 3.48h1.753v-4.29a6.641 6.641 0 0 1 .5-.877v-1.958l.638-.651.372-2.736V15.472a5.884 5.884 0 0 0-5.888-5.862H7.818s-6.256-.186-6.256 5.857v44.219s.159 5.9 6.256 5.9h14.915v-8.3zm16.881-6.588a9.682 9.682 0 0 0-5.937 7.252 17.107 17.107 0 0 0-.345 3.6v5.206h12.6v-5.207a18.86 18.86 0 0 0-.372-3.6 9.709 9.709 0 0 0-5.937-7.252m39.331-17.451a14.517 14.517 0 0 1-5.313.863c-6.176 0-10.121-3.759-10.121-9.775 0-5.592 3.838-10.16 10.944-10.16a13.746 13.746 0 0 1 4.542.744l-.983 4.423a8.181 8.181 0 0 0-3.32-.584 4.954 4.954 0 0 0-5.127 5.313 4.967 4.967 0 0 0 5.233 5.313 9.178 9.178 0 0 0 3.4-.584zm13.122.478l-.359-1.913h-.12a6.893 6.893 0 0 1-5.472 2.351 5.857 5.857 0 0 1-6.167-5.53q-.009-.164-.009-.327c0-4.967 4.463-7.345 11.223-7.3V19.4c0-1.023-.545-2.457-3.48-2.457a10.758 10.758 0 0 0-5.313 1.448L82.8 14.566a15.778 15.778 0 0 1 7.424-1.687c6.375 0 8.407 3.759 8.407 8.248v6.641a29.391 29.391 0 0 0 .279 4.649zm-.77-9.031c-3.134 0-5.552.7-5.552 3.015a2.138 2.138 0 0 0 2.351 2.271 3.241 3.241 0 0 0 3.2-2.191 4.263 4.263 0 0 0 .12-1.023zm8.62-3.984c0-2.377-.08-4.423-.159-6.1h5.153l.279 2.656h.12a6.986 6.986 0 0 1 5.91-3.081c3.9 0 6.84 2.577 6.84 8.208v11.345h-5.937V21.794c0-2.457-.863-4.144-3.015-4.144a3.161 3.161 0 0 0-3 2.231 4.064 4.064 0 0 0-.2 1.5v11.025h-5.99zM129.3 7.822v5.512h4.263V17.7H129.3v6.92c0 2.311.545 3.36 2.338 3.36a9.749 9.749 0 0 0 1.766-.159v4.489a11.581 11.581 0 0 1-3.865.518 6.176 6.176 0 0 1-4.463-1.647c-1.089-1.129-1.647-2.975-1.647-5.671v-7.846h-2.5v-4.33h2.537V9.15zm10.878 16.921c.2 2.457 2.656 3.639 5.392 3.639a16.894 16.894 0 0 0 5.313-.784l.784 3.984a18.9 18.9 0 0 1-6.92 1.169c-6.495 0-10.2-3.759-10.2-9.735 0-4.848 3.015-10.2 9.656-10.2 6.176 0 8.527 4.808 8.527 9.536a14.2 14.2 0 0 1-.186 2.351zm7-4.064c0-1.448-.624-3.865-3.36-3.865a3.9 3.9 0 0 0-3.679 3.865zm7.876-1.089c0-2.816-.08-4.649-.159-6.3h5.113l.2 3.52h.159a5.618 5.618 0 0 1 5.167-3.984 6.083 6.083 0 0 1 1.248.08V18.5a8.487 8.487 0 0 0-1.607-.159 3.812 3.812 0 0 0-4.064 3.015 6.868 6.868 0 0 0-.12 1.328v9.7h-5.937zm13.388 12.817c.08-1.248.159-3.559.159-5.711V6.016l5.937-1.328v10.877h.08a6.734 6.734 0 0 1 5.791-2.656c4.569 0 7.969 3.785 7.9 9.656 0 6.88-4.383 10.32-8.753 10.32a6.349 6.349 0 0 1-5.724-3.134h-.08l-.239 2.656zm6.1-8.128a4.343 4.343 0 0 0 .12 1.049 3.6 3.6 0 0 0 3.48 2.816c2.537 0 4.1-1.952 4.1-5.392 0-2.975-1.328-5.313-4.1-5.313a3.679 3.679 0 0 0-3.48 2.935 4.967 4.967 0 0 0-.12 1.1zm33.828 1.992c0 2.5.08 4.542.159 6.136h-5.167l-.279-2.656h-.12a6.813 6.813 0 0 1-5.977 3.121c-3.865 0-6.72-2.417-6.72-8.328v-11.21h5.977v10.28c0 2.776.9 4.463 2.975 4.463A3.188 3.188 0 0 0 202.18 26a3.267 3.267 0 0 0 .2-1.328V13.334h5.99zm2.656-6.681c0-2.816-.08-4.649-.159-6.3h5.113l.2 3.52h.159a5.618 5.618 0 0 1 5.161-3.981 6.083 6.083 0 0 1 1.248.08V18.5a8.487 8.487 0 0 0-1.607-.159 3.812 3.812 0 0 0-4.064 3.015 6.865 6.865 0 0 0-.12 1.328v9.7h-5.937zm19.723-6.256l2.856 9.3c.3 1.129.7 2.537.943 3.559h.12c.279-1.023.584-2.457.863-3.559l2.324-9.3h6.375l-4.463 12.591c-2.736 7.584-4.569 10.625-6.72 12.551a10.957 10.957 0 0 1-5.751 2.656l-1.248-5.047a7.451 7.451 0 0 0 2.577-1.009 6.906 6.906 0 0 0 2.457-2.391 1.567 1.567 0 0 0 .3-.863 2.178 2.178 0 0 0-.266-.97l-6.986-17.518zm-151 47.813a12.724 12.724 0 0 1-5.485 1.209c-5.313 0-8.938-3.984-8.938-9.523 0-5.95 3.984-9.948 9.6-9.948a9.536 9.536 0 0 1 4.9 1.169l-.664 1.514a8.354 8.354 0 0 0-4.4-1.089c-5.02 0-7.584 3.812-7.584 8.208 0 4.9 3.068 8.088 7.385 8.088a10.333 10.333 0 0 0 4.662-1.089zM83.2 39.565A1.5 1.5 0 0 1 81.768 38v-.031a1.594 1.594 0 0 1 1.514-1.634 1.541 1.541 0 0 1 1.476 1.6v.031a1.514 1.514 0 0 1-1.432 1.592h-.082zm-.859 3.735h1.873v18.657h-1.873zm8.606-4.131v4.117h5.313v1.527h-5.313V56.95c0 2.364.744 3.852 2.656 3.852a6.88 6.88 0 0 0 2.138-.279l.239 1.408a7.385 7.385 0 0 1-2.656.425 3.984 3.984 0 0 1-3.188-1.328 6.813 6.813 0 0 1-1.169-4.476V44.811H85.94V43.3h3.148v-3.4zm8.872 4.131l4.954 12.2a52.003 52.003 0 0 1 1.328 3.984c.385-1.129.863-2.656 1.448-4.117l4.556-12.1h1.966l-5.538 13.892c-2.258 5.791-3.852 9.3-6.3 11.4a11.17 11.17 0 0 1-3.267 1.941l-.584-1.554a10.187 10.187 0 0 0 3.267-2.059 14.756 14.756 0 0 0 3.121-4.649 2.391 2.391 0 0 0 .239-.823 2.656 2.656 0 0 0-.239-.81l-6.92-17.268zm34.864 17.85a12.724 12.724 0 0 1-5.485 1.209c-5.313 0-8.938-3.984-8.938-9.523 0-5.95 3.984-9.948 9.6-9.948a9.536 9.536 0 0 1 4.9 1.169l-.664 1.514a8.354 8.354 0 0 0-4.4-1.089c-5.02 0-7.584 3.812-7.584 8.208 0 4.9 3.068 8.088 7.385 8.088a10.333 10.333 0 0 0 4.662-1.089zm10.081 1.235c-4.821 0-8.553-3.772-8.553-9.6 0-6.375 4.2-9.921 8.832-9.921 5.18 0 8.673 3.891 8.673 9.6 0 6.92-4.781 9.921-8.912 9.921zm.12-1.554c3.891 0 6.96-3.506 6.96-8.288 0-3.427-1.9-8.128-6.853-8.128s-6.92 4.237-6.92 8.248c0 4.662 2.948 8.168 6.76 8.168zm25.416-3.416a41.776 41.776 0 0 0 .159 4.556h-1.749l-.186-3.347a7.185 7.185 0 0 1-6.375 3.772c-2.364 0-6.375-1.209-6.375-8.248V43.3h1.873v10.489c0 3.984 1.248 6.96 4.941 6.96a6.176 6.176 0 0 0 5.525-3.772 6.747 6.747 0 0 0 .345-2.059V43.3h1.873zm3.732-9.656a39.942 39.942 0 0 0-.159-4.476h1.753l.12 3.347h.08a7.026 7.026 0 0 1 6.415-3.772c1.793 0 6.535.89 6.535 7.889v11.2h-1.859V50.921c0-3.427-1.328-6.495-5.18-6.495a5.99 5.99 0 0 0-5.6 4.316 6.641 6.641 0 0 0-.239 1.634v11.595h-1.873zm31.756 13.388a12.724 12.724 0 0 1-5.485 1.209c-5.313 0-8.938-3.984-8.938-9.523 0-5.95 3.984-9.948 9.6-9.948a9.536 9.536 0 0 1 4.9 1.169l-.664 1.514a8.341 8.341 0 0 0-4.4-1.089c-5.02 0-7.584 3.812-7.584 8.208 0 4.9 3.068 8.088 7.385 8.088a10.333 10.333 0 0 0 4.662-1.089zm4.512-21.582A1.5 1.5 0 0 1 208.872 38v-.031a1.594 1.594 0 0 1 1.514-1.634 1.541 1.541 0 0 1 1.476 1.6v.031a1.514 1.514 0 0 1-1.432 1.592h-.082zm-.863 3.732h1.873v18.66h-1.873zm5.5-8.328h1.873v26.988h-1.873z" fill="#fff"/></svg>
