<svg xmlns="http://www.w3.org/2000/svg" width="72" height="46"><style>.st0{fill:#5f6368}</style><path class="st0" d="M65.4 0H5.1c-.5 0-.9 0-1.3.1-.5.1-1 .3-1.4.5C1.6 1 1 1.6.6 2.5c-.3.4-.4.8-.5 1.2-.1.5-.1.9-.1 1.4V40.9c0 .5 0 .9.1 1.3.1.5.2.9.4 1.3.5.8 1.1 1.5 1.9 1.9.4.2.8.3 1.3.4.5.1.9.2 1.4.2h61.6c.5 0 .9 0 1.3-.1s.9-.2 1.3-.4c.8-.4 1.5-1.1 1.9-1.9.2-.4.3-.8.4-1.3.1-.4.1-.9.1-1.3V5.7v-.6c0-.5 0-.9-.1-1.3s-.2-.9-.4-1.3c-.4-.8-1.1-1.5-1.9-1.9-.4-.2-.8-.3-1.3-.4-.4-.1-.8-.2-1.3-.2H65.4"/><path d="M65.4 1.5H66.7c.3 0 .7 0 1.1.1.3.1.6.1.9.3.5.3 1 .7 1.2 1.2l.3.9c.1.4.1.8.1 1.1v35.7c0 .4 0 .8-.1 1.1 0 .3-.1.6-.3.9-.3.5-.7 1-1.2 1.2-.3.1-.5.2-.9.3-.4.1-.7.1-1.1.1H5.1c-.4 0-.7 0-1.1-.1-.3 0-.6-.1-.9-.3-.3-.1-.5-.3-.7-.5-.2-.2-.4-.4-.5-.7l-.3-.9c-.1-.4-.1-.7-.1-1.1V5.6 5c0-.4 0-.8.1-1.1.1-.3.1-.6.3-.9.3-.5.7-.9 1.2-1.2.3 0 .6-.1.9-.1.4-.1.7-.1 1.1-.1h.6l59.7-.1" fill="#fffffe"/><path class="st0" d="M1 10h70.1v8H1zM6.7 24.8h40v4h-40zM6.7 32.8h20v4h-20z"/></svg>
