<?xml version="1.0" encoding="UTF-8" standalone="no"?>
<svg
   xmlns:dc="http://purl.org/dc/elements/1.1/"
   xmlns:cc="http://creativecommons.org/ns#"
   xmlns:rdf="http://www.w3.org/1999/02/22-rdf-syntax-ns#"
   xmlns:svg="http://www.w3.org/2000/svg"
   xmlns="http://www.w3.org/2000/svg"
   viewBox="0 0 679.26666 170.12"
   height="170.12"
   width="679.26666"
   xml:space="preserve"
   id="svg2"
   version="1.1"><metadata
     id="metadata8"><rdf:RDF><cc:Work
         rdf:about=""><dc:format>image/svg+xml</dc:format><dc:type
           rdf:resource="http://purl.org/dc/dcmitype/StillImage" /></cc:Work></rdf:RDF></metadata><defs
     id="defs6" /><g
     transform="matrix(1.3333333,0,0,-1.3333333,0,170.12)"
     id="g10"><g
       transform="scale(0.1)"
       id="g12"><path
         id="path14"
         style="fill:#354a8e;fill-opacity:1;fill-rule:nonzero;stroke:none"
         d="m 526.504,917.23 c -17.445,37.004 -40.973,67.579 -70.473,91.7 -29.543,24.12 -64.258,42.21 -104.179,54.28 -39.934,12.05 -82.372,18.09 -127.274,18.09 H 121.023 V 489.914 h 103.555 c 44.902,0 87.34,5.785 127.274,17.473 39.921,11.613 74.636,29.695 104.179,54.269 29.5,24.532 53.028,55.293 70.473,92.336 17.48,36.992 26.215,80.879 26.215,131.602 0,50.742 -8.735,94.617 -26.215,131.636 z M 638.805,615.297 C 614.68,565.789 582.652,524.215 542.719,490.504 502.797,456.863 457.047,431.246 405.504,413.758 353.918,396.336 300.258,387.602 244.539,387.602 H 0 v 796.008 h 244.539 c 55.719,0 109.379,-8.73 160.965,-26.2 51.543,-17.46 97.293,-43.04 137.215,-76.73 39.933,-33.7 71.961,-75.29 96.086,-124.77 24.117,-49.508 36.179,-106.258 36.179,-170.316 0,-64.063 -12.062,-120.793 -36.179,-170.297" /><path
         id="path16"
         style="fill:#354a8e;fill-opacity:1;fill-rule:nonzero;stroke:none"
         d="m 1487.51,478.039 c -8.74,-20.351 -21.65,-38.266 -38.68,-53.613 -17.05,-15.414 -38.48,-27.664 -64.26,-36.824 -25.78,-9.137 -55.73,-13.743 -89.82,-13.743 -33.28,0 -63.86,3.989 -91.7,11.875 -27.88,7.887 -50.13,17.68 -66.76,29.297 l -26.21,124.766 c 23.29,-19.996 51.58,-36.617 84.86,-49.883 33.26,-13.316 67.35,-19.969 102.3,-19.969 26.61,0 48.23,6.418 64.87,19.356 16.65,12.863 24.96,28.871 24.96,48.019 0,19.95 -6.86,36.379 -20.6,49.27 -13.7,12.89 -33.89,23.941 -60.49,33.074 -56.58,20.797 -99.83,45.305 -129.76,73.609 -29.94,28.258 -44.92,65.29 -44.92,111.051 0,23.266 4.57,44.903 13.73,64.875 9.14,19.949 22.02,37.203 38.67,51.785 16.63,14.532 36.59,25.758 59.9,33.661 23.27,7.91 49.05,11.867 77.33,11.867 32.45,0 62.4,-4.367 89.84,-13.102 27.45,-8.726 46.58,-16.43 57.4,-23.082 l -21.22,-94.816 c -12.48,9.148 -29.12,17.468 -49.89,24.953 -20.81,7.496 -46.6,11.234 -77.37,11.234 -24.12,0 -43.25,-5.844 -57.4,-17.469 -14.13,-11.66 -21.2,-27.039 -21.2,-46.16 0,-18.312 6.64,-32.886 19.96,-43.668 13.29,-10.82 34.1,-21.222 62.4,-31.183 56.55,-20.824 100.21,-45.59 131,-74.246 30.76,-28.707 46.16,-67.571 46.16,-116.696 0,-22.476 -4.36,-43.863 -13.1,-64.238" /><path
         id="path18"
         style="fill:#354a8e;fill-opacity:1;fill-rule:nonzero;stroke:none"
         d="m 2021.67,824.285 c -25.79,17.113 -50.74,28.672 -74.86,34.684 -24.12,5.969 -49.91,8.992 -77.36,8.992 -25.78,0 -50.74,-4.629 -74.85,-13.836 -24.14,-9.195 -45.35,-22.391 -63.63,-39.551 -18.3,-17.156 -33.08,-37.883 -44.3,-62.148 -11.21,-24.258 -16.84,-51.906 -16.84,-82.852 0,-30.152 5.63,-57.586 16.84,-82.254 11.22,-24.715 26.2,-45.398 44.93,-62.136 18.7,-16.758 40.32,-29.723 64.88,-38.95 24.52,-9.187 49.67,-13.789 75.47,-13.789 26.61,0 52.4,2.996 77.37,9.016 24.95,5.973 53.21,16.715 84.83,32.156 L 2010.43,402.59 c -42.42,-19.145 -91.9,-28.731 -148.46,-28.731 -39.1,0 -76.94,6.68 -113.53,19.996 -36.62,13.29 -69.15,32.86 -97.62,58.641 -28.45,25.758 -51.35,56.754 -68.62,92.922 -17.27,36.168 -25.91,77.555 -25.91,124.156 0,46.551 8.64,88.164 25.91,124.754 17.27,36.602 40.17,67.789 68.62,93.578 28.47,25.793 61,45.328 97.62,58.645 36.59,13.289 74.43,19.961 113.53,19.961 37.44,0 70.9,-3.742 100.44,-11.227 29.52,-7.484 56.34,-17.894 80.48,-31.187 l -21.22,-99.813" /><path
         id="path20"
         style="fill:#354a8e;fill-opacity:1;fill-rule:nonzero;stroke:none"
         d="m 2267.01,365.125 c -9.19,2.523 -20.21,6.867 -33.1,13.125 -12.89,6.211 -25.16,15.371 -36.81,27.457 -11.64,12.039 -21.62,27.43 -29.91,46.152 -8.33,18.696 -12.51,41.786 -12.51,69.243 v 754.828 h 113.56 V 536.09 c 0,-26.606 8.3,-48.067 24.95,-64.238 16.64,-16.239 33.69,-26.039 51.16,-29.34 l -77.34,-77.387" /><path
         id="path22"
         style="fill:#354a8e;fill-opacity:1;fill-rule:nonzero;stroke:none"
         d="m 2879.02,751.168 c -10.08,24.273 -23.68,45 -40.82,62.164 -17.19,17.141 -36.9,30.547 -59.09,40.18 -22.14,9.621 -45.84,14.449 -70.97,14.449 -25.07,0 -48.96,-4.828 -71.57,-14.449 -22.6,-9.633 -42.5,-23.039 -59.64,-40.18 -17.19,-17.164 -30.8,-37.891 -40.84,-62.164 -10.08,-24.277 -15.08,-51.496 -15.08,-81.594 0,-29.297 5,-56.094 15.08,-80.344 10.04,-24.335 23.65,-45.019 40.84,-62.203 17.14,-17.14 37.04,-30.55 59.64,-40.16 22.61,-9.629 46.5,-14.422 71.57,-14.422 25.13,0 48.83,4.793 70.97,14.422 22.19,9.61 41.9,23.02 59.09,40.16 17.14,17.184 30.74,37.868 40.82,62.203 10.01,24.25 15.06,51.047 15.06,80.344 0,30.098 -5.05,57.317 -15.06,81.594 z m 105.51,-201.996 c -15.42,-36.192 -36.61,-67.168 -63.64,-92.945 -27.05,-25.805 -58.61,-45.965 -94.82,-60.508 -36.15,-14.563 -75.48,-21.86 -117.93,-21.86 -42.39,0 -81.91,7.297 -118.51,21.86 -36.62,14.543 -68.41,34.703 -95.42,60.508 -27.07,25.777 -48.27,56.753 -63.65,92.945 -15.4,36.211 -23.07,76.301 -23.07,120.402 0,44.051 7.67,84.219 23.07,120.399 15.38,36.175 36.58,67.375 63.65,93.57 27.01,26.199 58.8,46.574 95.42,61.141 36.6,14.543 76.12,21.828 118.51,21.828 42.45,0 81.78,-7.285 117.93,-21.828 36.21,-14.567 67.77,-34.942 94.82,-61.141 27.03,-26.195 48.22,-57.395 63.64,-93.57 15.36,-36.18 23.1,-76.348 23.1,-120.399 0,-44.101 -7.74,-84.191 -23.1,-120.402" /><path
         id="path24"
         style="fill:#354a8e;fill-opacity:1;fill-rule:nonzero;stroke:none"
         d="m 3454.89,478.039 c -8.71,-20.351 -21.63,-38.266 -38.65,-53.613 -17.09,-15.414 -38.51,-27.664 -64.26,-36.824 -25.83,-9.137 -55.78,-13.743 -89.86,-13.743 -33.26,0 -63.82,3.989 -91.71,11.875 -27.86,7.887 -50.12,17.68 -66.71,29.297 l -26.23,124.766 c 23.3,-19.996 51.58,-36.617 84.87,-49.883 33.24,-13.316 67.32,-19.969 102.28,-19.969 26.62,0 48.24,6.418 64.89,19.356 16.64,12.863 24.95,28.871 24.95,48.019 0,19.95 -6.85,36.379 -20.62,49.27 -13.69,12.89 -33.89,23.941 -60.48,33.074 -56.56,20.797 -99.83,45.305 -129.74,73.609 -29.96,28.258 -44.95,65.29 -44.95,111.051 0,23.266 4.58,44.903 13.74,64.875 9.16,19.949 22.05,37.203 38.69,51.785 16.62,14.532 36.57,25.758 59.87,33.661 23.27,7.91 49.08,11.867 77.38,11.867 32.42,0 62.36,-4.367 89.81,-13.102 27.46,-8.726 46.55,-16.43 57.39,-23.082 l -21.25,-94.816 c -12.41,9.148 -29.08,17.468 -49.85,24.953 -20.83,7.496 -46.6,11.234 -77.35,11.234 -24.18,0 -43.27,-5.844 -57.44,-17.469 -14.14,-11.66 -21.17,-27.039 -21.17,-46.16 0,-18.312 6.63,-32.886 19.92,-43.668 13.32,-10.82 34.14,-21.222 62.42,-31.183 56.55,-20.824 100.2,-45.59 130.98,-74.246 30.81,-28.707 46.17,-67.571 46.17,-116.696 0,-22.476 -4.36,-43.863 -13.09,-64.238" /><path
         id="path26"
         style="fill:#354a8e;fill-opacity:1;fill-rule:nonzero;stroke:none"
         d="m 3974.55,388.492 -4.98,56.145 c -21.65,-24.457 -45.17,-42.379 -70.5,-53.711 -25.4,-11.352 -60.11,-17.067 -104.21,-17.067 -30.78,0 -59.28,4.817 -85.43,14.375 -26.21,9.536 -48.9,23.067 -68.02,40.512 -19.15,17.492 -34.09,38.883 -44.9,64.258 -10.86,25.406 -16.24,53.855 -16.24,85.488 v 374.289 h 113.52 V 590.652 c 0,-14.922 2.3,-29.464 6.88,-43.535 4.55,-14.117 12.25,-26.797 23.08,-37.961 10.82,-11.215 24.32,-20.164 40.54,-26.746 16.24,-6.683 36.41,-9.965 60.51,-9.965 22.47,0 42.21,3.282 59.3,9.965 17,6.582 31.19,15.531 42.38,26.746 11.26,11.164 19.76,23.844 25.59,37.961 5.81,14.071 8.76,28.613 8.76,43.535 v 362.129 h 113.55 V 388.492 h -99.83" /><path
         id="path28"
         style="fill:#354a8e;fill-opacity:1;fill-rule:nonzero;stroke:none"
         d="m 4511.29,864.207 c -22.45,0 -45.78,-3.34 -69.85,-9.977 -24.13,-6.679 -45.73,-18.105 -64.9,-34.312 -19.12,-16.219 -34.91,-37.871 -47.38,-64.875 -12.49,-27.043 -18.74,-60.52 -18.74,-100.418 V 387.602 h -113.54 v 565.179 h 107.32 l 4.98,-88.574 c 14.99,34.941 40.14,59.684 75.5,74.223 35.34,14.566 74.25,21.851 116.62,21.851 l 21.23,-96.074 h -11.24" /><path
         id="path30"
         style="fill:#354a8e;fill-opacity:1;fill-rule:nonzero;stroke:none"
         d="m 4972.16,790.582 c -5.83,14.141 -14.21,27.031 -25.07,38.684 -10.84,11.64 -24.01,21.011 -39.47,28.082 -15.49,7.07 -32.36,10.613 -50.76,10.613 -17.54,0 -35.29,-3.356 -53.25,-10 -17.97,-6.656 -34.45,-16.016 -49.48,-28.07 -15.04,-12.063 -27.98,-26.192 -38.86,-42.422 -10.84,-16.207 -17.95,-34.301 -21.3,-54.25 h 285.72 c 0.83,3.281 1.26,8.289 1.26,14.953 0,14.129 -2.93,28.269 -8.79,42.41 z m 118.62,-85.457 -63.68,-63.84 h -340.61 c 0.85,-17.488 5.61,-36.043 14.37,-55.664 8.73,-19.594 21.42,-37.937 38.08,-55.008 16.64,-17.113 37.23,-31.113 61.81,-41.906 24.55,-10.859 53.49,-16.262 86.78,-16.262 36.62,0 69.26,4.864 97.99,14.66 28.69,9.774 56.41,24.387 83.06,43.981 L 5039.85,410.07 c -19.97,-10.836 -43.25,-19.593 -69.88,-26.203 -26.65,-6.633 -59.1,-10.008 -97.39,-10.008 -39.96,0 -78.28,7.106 -114.87,21.246 -36.59,14.118 -68.87,34.278 -96.72,60.508 -27.88,26.207 -50.16,57.367 -66.79,93.559 -16.67,36.211 -24.98,76.301 -24.98,120.402 0,48.203 8.51,90.852 25.6,127.879 17.02,36.996 38.86,67.992 65.49,92.945 26.58,24.965 56.75,43.868 90.44,56.793 33.69,12.864 66.74,19.321 99.18,19.321 39.09,0 73.82,-6.254 104.15,-18.77 30.41,-12.523 55.97,-28.965 76.75,-49.387 20.8,-20.445 36.62,-43.582 47.43,-69.433 10.81,-25.84 16.24,-51.699 16.24,-77.563 0,-18.328 -1.25,-33.769 -3.72,-46.234" /><path
         id="path32"
         style="fill:#60b79d;fill-opacity:1;fill-rule:nonzero;stroke:none"
         d="m 985.43,1131.98 c 0,-46.12 -37.407,-83.52 -83.528,-83.52 v 0 c -46.14,0 -83.539,37.4 -83.539,83.52 v 0 c 0,46.12 37.399,83.54 83.539,83.54 v 0 c 46.121,0 83.528,-37.42 83.528,-83.54 v 0" /><path
         id="path34"
         style="fill:#60b79d;fill-opacity:1;fill-rule:nonzero;stroke:none"
         d="m 901.902,1015.05 c -73.797,0 -133.644,-59.839 -133.644,-133.648 V 689.309 c 0,-42 19.773,-79.02 50.105,-103.571 V 455.422 c 0,-46.078 37.399,-83.5 83.539,-83.5 46.121,0 83.528,37.422 83.528,83.5 v 130.316 c 30.32,24.551 50.11,61.571 50.11,103.571 v 192.093 c 0,73.809 -59.837,133.648 -133.638,133.648" /><path
         id="path36"
         style="fill:#60b79d;fill-opacity:1;fill-rule:nonzero;stroke:none"
         d="m 3220.9,120.5 c -5.87,5.898 -13.02,11.211 -21.24,15.82 -8.07,4.481 -17.12,8.418 -26.89,11.68 -20.54,6.961 -30.97,16.41 -30.97,28 0,6.262 2.47,11.59 7.6,16.359 5.19,4.86 12.41,7.223 22.02,7.223 8.08,0 15.72,-1.32 22.7,-3.863 7.13,-2.649 12.51,-5.199 15.95,-7.629 l 7.27,-5.121 9.47,39.59 -3.16,2.382 c -4.49,3.348 -11.08,6.418 -20.17,9.321 -18.57,5.929 -45.22,5.84 -63.12,-0.961 -9.33,-3.5 -17.24,-8.36 -23.49,-14.41 -6.26,-6.09 -11.03,-13.172 -14.17,-21.082 -3.09,-7.829 -4.67,-15.981 -4.67,-24.188 0,-16.48 5.57,-30.883 16.55,-42.762 10.6,-11.488 26.29,-20.699 46.67,-27.359 12.07,-3.9687 20.87,-8.8281 26.16,-14.3984 4.93,-5.2618 7.34,-11.711 7.34,-19.711 0,-8.4297 -2.86,-14.9414 -8.71,-19.9101 -12.39,-10.4688 -37.3,-9.3711 -56.89,-2.5 -10.09,3.539 -20.21,8.8789 -30.15,15.7695 l -12.47,8.6914 11.1,-53.3516 2.02,-1.371 c 6.17,-4.2305 14.64,-7.92974 25.17,-11.01958 10.51,-3.09766 22.08,-4.67969 34.42,-4.67969 12.89,0 24.44,1.71875 34.33,5.08203 10.06,3.4375 18.65,8.39844 25.59,14.69924 7.04,6.3984 12.37,14.0898 15.86,22.8281 3.45,8.5899 5.2,18.3203 5.2,28.832 0,9.8399 -1.7,18.8594 -5.05,26.8594 -3.36,7.9607 -8.14,15.0897 -14.27,21.1797" /><path
         id="path38"
         style="fill:#60b79d;fill-opacity:1;fill-rule:nonzero;stroke:none"
         d="m 3478.14,44.9492 c -17.4,-4.289 -41.64,-5.8984 -63.17,1.3711 -9.71,3.2813 -18.51,8.168 -26.19,14.5899 -7.55,6.3281 -13.72,14.4492 -18.32,24.1796 -4.6,9.7188 -6.91,21.2892 -6.91,34.3712 0,13.32 2.38,24.98 7.08,34.648 4.68,9.731 10.91,17.871 18.51,24.231 7.64,6.39 16.45,11.308 26.16,14.59 14.91,5.031 30.83,6.129 45.22,3.679 5.13,-0.879 9.97,-1.961 14.55,-3.257 4.49,-1.27 8.52,-2.711 12.16,-4.321 3.6,-1.609 6.7,-3.14 9.25,-4.621 l 7.29,-4.262 8.34,41.114 -3.73,2.187 c -7.08,4.16 -15.98,7.653 -27.22,10.653 -21.17,5.707 -53,7.32 -83.05,-3 -14.5,-4.981 -27.78,-12.532 -39.54,-22.383 -11.81,-9.887 -21.58,-22.379 -29.09,-37.137 -7.58,-14.871 -11.4,-32.434 -11.4,-52.121 0,-19.5001 3.75,-36.9024 11.19,-51.7501 7.37,-14.7304 17.11,-27.2421 28.97,-37.1796 11.73,-9.8399 25.09,-17.4024 39.7,-22.38286 14.55,-4.95703 29.14,-7.476565 43.34,-7.476565 14.62,0 26.1,0.886715 35.09,2.687505 9.06,1.78906 17.36,4.67187 24.64,8.58982 l 2.48,1.3203 10.32,48.0391 -11.94,-7.168 c -6.26,-3.7617 -14.24,-6.8711 -23.73,-9.1914" /><path
         id="path40"
         style="fill:#60b79d;fill-opacity:1;fill-rule:nonzero;stroke:none"
         d="m 3753.29,119.789 c 0,-12.457 -2.22,-23.6992 -6.62,-33.4296 -4.41,-9.75 -10.29,-18.0391 -17.46,-24.5977 -7.25,-6.6133 -15.48,-11.7109 -24.51,-15.1601 -18.24,-6.9805 -36.8,-6.8399 -54.58,0 -9.01,3.4492 -17.19,8.5468 -24.27,15.1367 -7.08,6.543 -12.91,14.8203 -17.35,24.6211 -4.38,9.7304 -6.61,20.9726 -6.61,33.4296 0,12.461 2.23,23.652 6.61,33.262 4.42,9.711 10.27,17.918 17.35,24.488 7.07,6.563 15.23,11.66 24.27,15.133 9.05,3.469 18.27,5.207 27.48,5.207 8.98,0 18.09,-1.738 27.1,-5.207 9.05,-3.473 17.29,-8.57 24.51,-15.184 7.17,-6.558 13.05,-14.777 17.46,-24.41 4.4,-9.637 6.62,-20.828 6.62,-33.289 z m 7.53,87.109 c -11.28,10.082 -24.29,17.993 -38.67,23.473 -28.76,10.91 -60.37,10.91 -89.12,0 -14.37,-5.48 -27.38,-13.391 -38.67,-23.473 -11.36,-10.168 -20.61,-22.757 -27.45,-37.347 -6.97,-14.68 -10.49,-31.422 -10.49,-49.762 0,-18.559 3.52,-35.4101 10.46,-50.0976 6.87,-14.5898 16.12,-27.1719 27.48,-37.3398 11.31,-10.1133 24.32,-17.9922 38.67,-23.47269 14.38,-5.42969 29.37,-8.207035 44.57,-8.207035 15.21,0 30.17,2.777345 44.55,8.207035 14.35,5.48049 27.36,13.35939 38.67,23.47269 11.33,10.1484 20.58,22.707 27.51,37.3398 6.91,14.6875 10.42,31.5706 10.42,50.0976 0,18.32 -3.51,35.082 -10.42,49.762 -6.93,14.64 -16.18,27.199 -27.51,37.347" /><path
         id="path42"
         style="fill:#60b79d;fill-opacity:1;fill-rule:nonzero;stroke:none"
         d="m 3855.73,193.801 h 69.83 V 4.76953 h 45.47 V 193.801 h 69.82 v 40.347 h -185.12 v -40.347" /><path
         id="path44"
         style="fill:#60b79d;fill-opacity:1;fill-rule:nonzero;stroke:none"
         d="M 4262.15,45.1602 V 4.80078 H 4120.98 V 234.219 h 45.45 V 45.1602 h 95.72" /><path
         id="path46"
         style="fill:#60b79d;fill-opacity:1;fill-rule:nonzero;stroke:none"
         d="m 4762.24,100.051 c 0,-3.301 0.03,-6.5627 0.1,-9.7893 l -0.5,0.5899 c -4.01,4.6875 -8.08,9.3474 -12.18,13.9294 -4.04,4.481 -7.98,8.938 -11.82,13.379 -3.93,4.488 -7.46,8.449 -10.66,11.828 l -94.92,104.16 h -31.47 V 4.76953 h 45.46 V 145.691 c 0,4.129 -0.04,8.329 -0.13,12.649 4.46,-5.219 9.11,-10.649 13.97,-16.258 8.88,-10.273 17.42,-19.863 25.62,-28.73 L 4789.14,0 h 18.55 v 234.148 h -45.45 V 100.051" /><path
         id="path48"
         style="fill:#60b79d;fill-opacity:1;fill-rule:nonzero;stroke:none"
         d="m 4941.03,194.148 h 22.21 c 11.59,0 22.71,-1.597 33.01,-4.687 10.07,-3.051 18.95,-7.68 26.36,-13.723 7.33,-6 13.24,-13.687 17.59,-22.937 4.37,-9.242 6.59,-20.449 6.59,-33.34 0,-12.891 -2.22,-24.129 -6.59,-33.3594 -4.35,-9.2305 -10.26,-17.0196 -17.61,-23.1328 -7.44,-6.168 -16.27,-10.75 -26.3,-13.668 -10.32,-3 -21.43,-4.5391 -33.05,-4.5391 h -22.21 z m 140.72,-25.539 c -6.94,14.211 -16.27,26.352 -27.76,36.032 -11.43,9.629 -24.7,17.039 -39.42,22.05 -14.64,4.95 -30.06,7.457 -45.87,7.457 h -72.82 V 4.76953 h 72.82 c 15.81,0 31.23,2.5 45.87,7.46097 14.77,5.0078 28.02,12.4179 39.42,22.0508 11.49,9.707 20.85,21.8203 27.76,36.0273 6.97,14.3008 10.51,30.8324 10.51,49.1524 0,18.32 -3.54,34.84 -10.51,49.148" /><path
         id="path50"
         style="fill:#60b79d;fill-opacity:1;fill-rule:nonzero;stroke:none"
         d="m 4392.21,99.3203 17.9,44.7387 c 1.44,2.882 2.67,6.281 4.1,9.89 1.45,-3.609 2.67,-7.008 3.88,-9.89 l 18.13,-44.7387 z m 32.39,137.8007 h -19.8 l -86.31,-205.2499 -7.99,-18.6016 -3.37,-8.46872 h 45.44 l 23.45,56.08982 h 76.4 l 23.43,-56.08982 h 46.68 L 4424.6,237.121" /></g></g></svg>