<svg xmlns="http://www.w3.org/2000/svg" viewBox="0 0 679.267 170.12" height="170.12" width="679.267"><path d="M70.2 47.823c-2.325-4.934-5.463-9.01-9.396-12.227-3.939-3.216-8.568-5.628-13.89-7.237-5.325-1.607-10.983-2.412-16.97-2.412H16.136v78.851h13.808c5.987 0 11.645-.771 16.97-2.33 5.322-1.548 9.951-3.959 13.89-7.235 3.933-3.271 7.07-7.373 9.397-12.312 2.33-4.932 3.495-10.784 3.495-17.547 0-6.765-1.165-12.615-3.495-17.551zM85.175 88.08c-3.217 6.601-7.487 12.145-12.811 16.64-5.323 4.485-11.423 7.9-18.296 10.232-6.878 2.323-14.033 3.488-21.462 3.488H0V12.305h32.605c7.43 0 14.584 1.164 21.462 3.494 6.873 2.328 12.973 5.738 18.296 10.23 5.324 4.494 9.594 10.039 12.811 16.636 3.216 6.601 4.824 14.168 4.824 22.71 0 8.54-1.608 16.105-4.824 22.705M198.335 106.381c-1.166 2.714-2.887 5.103-5.158 7.149-2.273 2.055-5.13 3.688-8.568 4.91-3.437 1.218-7.43 1.832-11.976 1.832-4.437 0-8.514-.532-12.226-1.583-3.718-1.052-6.684-2.358-8.902-3.906l-3.494-16.636c3.105 2.666 6.877 4.882 11.314 6.651 4.435 1.776 8.98 2.663 13.64 2.663 3.548 0 6.431-.856 8.65-2.581 2.22-1.715 3.328-3.85 3.328-6.403 0-2.66-.915-4.85-2.747-6.569-1.827-1.719-4.519-3.192-8.065-4.41-7.544-2.773-13.311-6.04-17.302-9.814-3.992-3.768-5.989-8.706-5.989-14.807 0-3.102.61-5.987 1.83-8.65a20.347 20.347 0 0 1 5.157-6.905c2.217-1.937 4.878-3.434 7.986-4.488 3.103-1.055 6.54-1.582 10.311-1.582 4.327 0 8.32.582 11.979 1.747 3.66 1.163 6.21 2.19 7.653 3.077l-2.83 12.642c-1.663-1.22-3.882-2.329-6.651-3.327-2.775-1-6.214-1.498-10.316-1.498-3.216 0-5.767.78-7.654 2.33-1.884 1.554-2.826 3.605-2.826 6.154 0 2.442.885 4.385 2.661 5.823 1.772 1.442 4.547 2.83 8.32 4.157 7.54 2.777 13.361 6.08 17.467 9.9 4.101 3.828 6.154 9.01 6.154 15.56 0 2.996-.581 5.848-1.746 8.564M269.556 60.215c-3.439-2.281-6.765-3.823-9.981-4.624-3.216-.796-6.655-1.2-10.315-1.2-3.437 0-6.765.618-9.98 1.846-3.219 1.226-6.047 2.985-8.484 5.273-2.44 2.288-4.41 5.051-5.907 8.287-1.494 3.234-2.245 6.92-2.245 11.046 0 4.02.75 7.679 2.245 10.968 1.496 3.295 3.494 6.053 5.991 8.284 2.493 2.235 5.376 3.964 8.65 5.194a28.458 28.458 0 0 0 10.063 1.838c3.548 0 6.987-.4 10.316-1.202 3.327-.796 7.095-2.228 11.311-4.287l-3.163 14.803c-5.656 2.553-12.253 3.831-19.794 3.831-5.214 0-10.259-.89-15.138-2.666-4.882-1.772-9.22-4.381-13.016-7.819-3.793-3.434-6.846-7.567-9.149-12.39-2.303-4.822-3.455-10.34-3.455-16.554 0-6.206 1.152-11.755 3.455-16.633 2.303-4.88 5.356-9.039 9.15-12.477 3.795-3.44 8.133-6.044 13.015-7.82a44.009 44.009 0 0 1 15.138-2.661c4.992 0 9.453.499 13.392 1.497 3.936.998 7.512 2.386 10.73 4.158l-2.829 13.308M302.268 121.437c-1.225-.337-2.695-.916-4.413-1.75-1.719-.828-3.355-2.05-4.908-3.661-1.552-1.605-2.883-3.658-3.988-6.154-1.111-2.493-1.668-5.571-1.668-9.232V-.004h15.141v98.645c0 3.548 1.107 6.41 3.327 8.565 2.218 2.166 4.492 3.472 6.821 3.912l-10.312 10.319M383.87 69.964c-1.345-3.236-3.158-6-5.443-8.288a25.384 25.384 0 0 0-7.879-5.358c-2.952-1.282-6.112-1.926-9.463-1.926-3.342 0-6.528.644-9.542 1.926a25.006 25.006 0 0 0-7.952 5.358c-2.292 2.288-4.107 5.052-5.446 8.288-1.344 3.237-2.01 6.866-2.01 10.88 0 3.906.666 7.479 2.01 10.712 1.339 3.245 3.154 6.003 5.446 8.294a24.95 24.95 0 0 0 7.952 5.354c3.014 1.284 6.2 1.923 9.542 1.923 3.351 0 6.511-.639 9.463-1.923a25.326 25.326 0 0 0 7.879-5.354c2.285-2.291 4.098-5.05 5.442-8.294 1.335-3.233 2.008-6.806 2.008-10.713 0-4.013-.673-7.642-2.008-10.879zm14.067 26.933c-2.056 4.826-4.881 8.956-8.485 12.393-3.607 3.44-7.815 6.128-12.643 8.067-4.82 1.942-10.064 2.915-15.724 2.915-5.652 0-10.921-.973-15.801-2.915-4.883-1.939-9.121-4.627-12.723-8.067-3.609-3.437-6.436-7.567-8.486-12.393-2.054-4.828-3.076-10.173-3.076-16.054 0-5.873 1.022-11.229 3.076-16.053 2.05-4.823 4.877-8.983 8.486-12.476 3.602-3.493 7.84-6.21 12.723-8.152 4.88-1.939 10.15-2.91 15.801-2.91 5.66 0 10.904.971 15.724 2.91 4.828 1.942 9.036 4.66 12.643 8.152 3.604 3.493 6.43 7.653 8.485 12.476 2.048 4.824 3.08 10.18 3.08 16.053 0 5.88-1.032 11.226-3.08 16.054M460.652 106.381c-1.161 2.714-2.884 5.103-5.153 7.149-2.279 2.055-5.135 3.688-8.568 4.91-3.444 1.218-7.438 1.832-11.982 1.832-4.434 0-8.509-.532-12.228-1.583-3.714-1.052-6.682-2.358-8.894-3.906l-3.498-16.636c3.107 2.666 6.878 4.882 11.316 6.651 4.432 1.776 8.976 2.663 13.638 2.663 3.549 0 6.432-.856 8.652-2.581 2.218-1.715 3.326-3.85 3.326-6.403 0-2.66-.913-4.85-2.749-6.569-1.825-1.719-4.519-3.192-8.064-4.41-7.541-2.773-13.31-6.04-17.299-9.814-3.994-3.768-5.993-8.706-5.993-14.807 0-3.102.61-5.987 1.832-8.65a20.407 20.407 0 0 1 5.159-6.905c2.216-1.937 4.876-3.434 7.982-4.488 3.103-1.055 6.544-1.582 10.318-1.582 4.322 0 8.314.582 11.974 1.747 3.662 1.163 6.207 2.19 7.652 3.077l-2.833 12.642c-1.655-1.22-3.877-2.329-6.647-3.327-2.777-1-6.213-1.498-10.313-1.498-3.224 0-5.77.78-7.659 2.33-1.885 1.554-2.822 3.605-2.822 6.154 0 2.442.884 4.385 2.656 5.823 1.776 1.442 4.552 2.83 8.322 4.157 7.54 2.777 13.36 6.08 17.464 9.9 4.108 3.828 6.156 9.01 6.156 15.56a21.51 21.51 0 0 1-1.745 8.564M529.94 118.321l-.664-7.486c-2.887 3.261-6.023 5.65-9.4 7.162-3.387 1.513-8.015 2.275-13.895 2.275-4.104 0-7.904-.642-11.39-1.917-3.495-1.271-6.52-3.075-9.07-5.401-2.553-2.332-4.545-5.185-5.986-8.568-1.448-3.387-2.166-7.18-2.166-11.398V43.083h15.136v48.283c0 1.99.307 3.929.918 5.805.606 1.882 1.633 3.573 3.077 5.062 1.443 1.495 3.243 2.688 5.405 3.566 2.166.89 4.855 1.328 8.068 1.328 2.996 0 5.628-.437 7.907-1.328 2.267-.878 4.159-2.071 5.65-3.566a15.291 15.291 0 0 0 3.413-5.062 15.093 15.093 0 0 0 1.168-5.805V43.083h15.14v75.238H529.94M601.505 54.892c-2.993 0-6.104.446-9.313 1.33a22.568 22.568 0 0 0-8.653 4.576c-2.55 2.162-4.655 5.05-6.318 8.65-1.665 3.605-2.498 8.069-2.498 13.389v35.603h-15.139V43.083h14.31l.663 11.81c1.999-4.66 5.352-7.958 10.067-9.897 4.712-1.942 9.9-2.913 15.55-2.913l2.83 12.81h-1.499M662.955 64.71c-.778-1.886-1.895-3.605-3.343-5.159-1.445-1.552-3.201-2.801-5.263-3.744-2.065-.943-4.314-1.415-6.768-1.415-2.338 0-4.705.447-7.1 1.333a23.557 23.557 0 0 0-6.597 3.743 25.154 25.154 0 0 0-5.181 5.656c-1.446 2.161-2.394 4.574-2.84 7.233h38.096c.11-.437.168-1.105.168-1.993 0-1.884-.391-3.77-1.172-5.655zm15.816 11.393l-8.491 8.512h-45.415c.114 2.332.748 4.806 1.916 7.422 1.164 2.613 2.856 5.058 5.078 7.335 2.218 2.281 4.964 4.148 8.241 5.587 3.273 1.448 7.132 2.168 11.57 2.168 4.883 0 9.235-.648 13.066-1.954 3.825-1.304 7.521-3.252 11.075-5.864l-3.831 16.135c-2.663 1.445-5.767 2.612-9.317 3.494-3.554.884-7.88 1.334-12.986 1.334-5.328 0-10.437-.947-15.316-2.833-4.878-1.882-9.182-4.57-12.896-8.067-3.717-3.495-6.688-7.65-8.905-12.475-2.223-4.828-3.33-10.173-3.33-16.054 0-6.427 1.134-12.113 3.413-17.05 2.269-4.933 5.181-9.066 8.732-12.393a36.614 36.614 0 0 1 12.058-7.572c4.492-1.715 8.899-2.576 13.224-2.576 5.212 0 9.843.834 13.887 2.502 4.055 1.67 7.463 3.862 10.233 6.585 2.774 2.726 4.883 5.811 6.324 9.258 1.442 3.445 2.166 6.893 2.166 10.342 0 2.444-.167 4.502-.496 6.164" fill="#354a8e"/><path d="M131.39 19.19c0 6.149-4.987 11.135-11.136 11.135-6.152 0-11.139-4.986-11.139-11.136 0-6.149 4.987-11.138 11.139-11.138 6.15 0 11.137 4.989 11.137 11.138M120.254 34.78c-9.84 0-17.82 7.979-17.82 17.82v25.612c0 5.6 2.637 10.536 6.681 13.81v17.375c0 6.144 4.987 11.133 11.139 11.133 6.15 0 11.137-4.99 11.137-11.133V92.022c4.042-3.274 6.681-8.21 6.681-13.81V52.6c0-9.841-7.978-17.82-17.818-17.82M429.453 154.053c-.782-.786-1.736-1.494-2.832-2.109a21.306 21.306 0 0 0-3.585-1.557c-2.739-.928-4.13-2.188-4.13-3.734 0-.835.33-1.545 1.014-2.18.692-.649 1.655-.964 2.936-.964 1.077 0 2.096.176 3.027.515.95.353 1.668.693 2.126 1.017l.97.683 1.262-5.279-.421-.317c-.599-.447-1.477-.856-2.69-1.243-2.475-.79-6.029-.779-8.415.128-1.244.467-2.299 1.115-3.132 1.922a8.045 8.045 0 0 0-1.89 2.81 8.762 8.762 0 0 0-.622 3.226c0 2.197.742 4.117 2.206 5.701 1.414 1.532 3.506 2.76 6.223 3.648 1.61.53 2.783 1.177 3.488 1.92.657.701.979 1.561.979 2.628 0 1.124-.382 1.992-1.162 2.655-1.652 1.395-4.973 1.25-7.585.333-1.345-.472-2.695-1.184-4.02-2.103l-1.663-1.159 1.48 7.114.27.183c.822.564 1.952 1.057 3.356 1.47 1.401.412 2.944.623 4.589.623 1.719 0 3.259-.23 4.577-.678 1.342-.458 2.487-1.12 3.412-1.96a8.185 8.185 0 0 0 2.115-3.043c.46-1.146.693-2.443.693-3.844 0-1.312-.226-2.515-.673-3.582a8.756 8.756 0 0 0-1.903-2.824M463.752 164.127c-2.32.572-5.552.786-8.423-.183a10.798 10.798 0 0 1-3.492-1.945c-1.006-.844-1.829-1.927-2.442-3.224-.614-1.296-.922-2.839-.922-4.583 0-1.776.318-3.33.944-4.62.624-1.297 1.455-2.383 2.468-3.23a10.804 10.804 0 0 1 3.488-1.946 12.52 12.52 0 0 1 6.03-.49c.684.117 1.329.26 1.94.434.598.17 1.136.361 1.621.576.48.214.893.419 1.233.616l.972.568 1.112-5.482-.497-.291c-.944-.555-2.13-1.02-3.63-1.42-2.822-.762-7.066-.977-11.073.4a16.56 16.56 0 0 0-5.272 2.984c-1.574 1.318-2.877 2.984-3.878 4.951-1.011 1.983-1.52 4.325-1.52 6.95 0 2.6.5 4.92 1.492 6.9.982 1.964 2.281 3.632 3.862 4.957a16.487 16.487 0 0 0 5.294 2.985c1.94.66 3.885.996 5.778.996 1.95 0 3.48-.118 4.679-.358 1.208-.238 2.315-.623 3.285-1.145l.331-.176 1.376-6.405-1.592.955c-.835.502-1.899.916-3.164 1.226M500.439 154.148c0 1.661-.296 3.16-.883 4.457-.588 1.3-1.372 2.406-2.328 3.28a10.267 10.267 0 0 1-3.268 2.021c-2.432.931-4.907.912-7.277 0a9.957 9.957 0 0 1-3.236-2.018c-.944-.872-1.722-1.976-2.314-3.283-.584-1.297-.881-2.796-.881-4.457s.297-3.153.881-4.435c.59-1.295 1.37-2.389 2.314-3.265a10.013 10.013 0 0 1 3.236-2.018 10.196 10.196 0 0 1 3.664-.694c1.197 0 2.412.232 3.613.694a10.258 10.258 0 0 1 3.268 2.025c.956.874 1.74 1.97 2.328 3.255.587 1.285.883 2.777.883 4.438zm1.004-11.614a16.548 16.548 0 0 0-5.156-3.13 16.723 16.723 0 0 0-11.883 0 16.578 16.578 0 0 0-5.156 3.13c-1.515 1.355-2.748 3.034-3.66 4.98-.93 1.957-1.399 4.189-1.399 6.634 0 2.475.47 4.721 1.395 6.68.916 1.945 2.15 3.623 3.664 4.978a16.562 16.562 0 0 0 5.156 3.13 16.769 16.769 0 0 0 5.943 1.094c2.028 0 4.022-.37 5.94-1.094a16.562 16.562 0 0 0 5.156-3.13c1.51-1.353 2.744-3.027 3.668-4.978.921-1.959 1.389-4.21 1.389-6.68 0-2.443-.468-4.677-1.39-6.635-.923-1.952-2.157-3.626-3.667-4.98M514.097 144.28h9.311v25.204h6.063V144.28h9.309v-5.38h-24.683v5.38M568.287 164.099v5.38h-18.823v-30.588h6.06v25.208h12.763M634.965 156.78c0 .44.004.875.014 1.305l-.067-.079a110.916 110.916 0 0 0-1.624-1.857 114.786 114.786 0 0 1-1.576-1.784 56.08 56.08 0 0 0-1.421-1.577L617.635 138.9h-4.196v30.584h6.061v-18.79c0-.55-.005-1.11-.017-1.686.594.696 1.214 1.42 1.862 2.168a153.66 153.66 0 0 0 3.416 3.83l13.791 15.114h2.473V138.9h-6.06v17.88M658.804 144.234h2.961c1.546 0 3.028.213 4.402.625 1.342.406 2.526 1.024 3.514 1.83.978.8 1.766 1.824 2.346 3.058.582 1.232.878 2.726.878 4.445 0 1.719-.296 3.217-.878 4.448-.58 1.23-1.368 2.27-2.348 3.084-.992.823-2.17 1.433-3.507 1.823a15.78 15.78 0 0 1-4.407.605h-2.961zm18.763 3.405c-.926-1.895-2.17-3.514-3.702-4.804-1.524-1.284-3.293-2.272-5.256-2.94a19.045 19.045 0 0 0-6.116-.995h-9.709v30.584h9.71c2.107 0 4.163-.333 6.115-.995 1.97-.667 3.736-1.655 5.256-2.94 1.532-1.294 2.78-2.91 3.702-4.803.929-1.907 1.401-4.111 1.401-6.554 0-2.443-.472-4.645-1.401-6.553M585.628 156.877l2.387-5.965c.192-.384.356-.837.546-1.319.194.482.356.935.518 1.32l2.417 5.964zm4.319-18.373h-2.64l-11.508 27.367-1.066 2.48-.449 1.129h6.059l3.126-7.479h10.187l3.124 7.479h6.224l-13.057-30.976" fill="#60b79d"/></svg>
