<svg xmlns="http://www.w3.org/2000/svg" viewBox="0 0 436 173.1"><path d="M206.2 84.6v50.8h-16.1V10h42.7c10.3-.2 20.2 3.7 27.6 10.9 7.5 6.7 11.7 16.4 11.6 26.5.2 10.1-4 19.8-11.5 26.6-7.5 7.1-16.7 10.7-27.6 10.7l-26.7-.1zm0-59.2v43.8h27c6 .2 11.8-2.2 15.9-6.5 8.5-8.2 8.6-21.7.4-30.2l-.4-.4c-4.1-4.4-9.9-6.8-15.9-6.7h-27zm102.9 21.4c11.9 0 21.3 3.2 28.2 9.5 6.9 6.4 10.3 15.1 10.3 26.2v52.8h-15.4v-11.9h-.7c-6.7 9.8-15.5 14.7-26.6 14.7-9.4 0-17.4-2.8-23.7-8.4-6.2-5.2-9.7-12.9-9.5-21 0-8.9 3.4-15.9 10.1-21.2s15.7-7.9 26.9-7.9c9.6 0 17.4 1.8 23.6 5.2v-3.7c0-5.5-2.4-10.7-6.6-14.2-4.3-3.8-9.8-5.9-15.5-5.9-9 0-16.1 3.8-21.4 11.4l-14.2-8.9c7.7-11.1 19.2-16.7 34.5-16.7zm-20.8 62.3c0 4.2 2 8.1 5.3 10.5 3.6 2.8 8 4.3 12.5 4.2 6.8 0 13.3-2.7 18.1-7.5 5.3-5 8-10.9 8-17.7-5-4-12-6-21-6-6.5 0-12 1.6-16.4 4.7-4.3 3.2-6.5 7.1-6.5 11.8zM436 49.6l-53.8 123.6h-16.6l20-43.2-35.4-80.3h17.5l25.5 61.6h.4l24.9-61.6 17.5-.1z" fill="#fff"/><path d="M141.1 73.6c0-4.9-.4-9.8-1.2-14.6H72v27.7h38.9c-1.6 8.9-6.8 16.9-14.4 21.9v18h23.2c13.6-12.5 21.4-31.1 21.4-53z" fill="#4285f4"/><path d="M72 144c19.4 0 35.8-6.4 47.7-17.4l-23.2-18c-6.5 4.4-14.8 6.9-24.5 6.9-18.8 0-34.7-12.7-40.4-29.7H7.7v18.6C19.9 128.6 44.8 144 72 144z" fill="#34a853"/><path d="M31.6 85.8c-3-8.9-3-18.6 0-27.6V39.7H7.7a71.39 71.39 0 0 0 0 64.6l23.9-18.5z" fill="#fbbc04"/><path d="M72 28.5c10.3-.2 20.2 3.7 27.6 10.8l20.5-20.6C107.1 6.5 89.9-.2 72 0 44.8 0 19.9 15.4 7.7 39.7l23.9 18.5c5.7-17 21.6-29.7 40.4-29.7z" fill="#ea4335"/></svg>
