<svg height="94" preserveAspectRatio="xMinYMid" viewBox="0 0 312.98 47.11" width="626" xmlns="http://www.w3.org/2000/svg"><g fill="#fff"><path d="M309.83 44.83c.64-2.3 1.4-3.05 2.27-5.12 1.34-3.21.92-5.1.25-6.37-.79-1.47-1.53-1.56-3.08-1.71s-2.87 1.41-3.45 2.87-.29 4-.66 5.51a2.78 2.78 0 0 1-1.73 2.25c-.73.37-2.17-.21-2.17-.21l.33.79s1.26.08 1.84.08a2.86 2.86 0 0 0 1.92-1.61c.46-.88.83-2.9 1.27-4s1.48-.95 2.8-.51 1.07 2.68 1.07 2.68.54-2.86-.72-3.66-2.93.32-2.93.32a2.83 2.83 0 0 1 3.16-1.5c1 .23 1.26 2.13 1 4.34s-1.48 3-2.94 5-1.7 1.34-2.79 3c0 0 0 .07-.05.1h.78a2.11 2.11 0 0 1 1.57-1 4.46 4.46 0 0 0-.9 1H310a2.66 2.66 0 0 1-.21-2.28"/><circle cx="289.38" cy="7.33" transform="rotate(-29.74 289.43 7.322)"/><path d="M299.93 41.93c-1-2.06-1.09-2.66-2.37-3.89a10.65 10.65 0 0 0-2.56-2.56 8.5 8.5 0 0 1-2.72-3.59 5.81 5.81 0 0 1-.4-2.31 9.7 9.7 0 0 0-2.63.45c-.62.47-2.18 2.28-3.93 2.19-3-.16-3.32-1.7-3.32-1.7s3.89 1 4.7-1.58c.21-.66-.89-.4-2.23.41-.54.33.08-1.54 2.15-1.62 2.79-.11 1.5-.53.16-.85a6 6 0 0 0-3.12.37 6.57 6.57 0 0 1 2-1.58c2.12-1.23 3.79.15 4.65.08a3.88 3.88 0 0 0 3-1.75 5.84 5.84 0 0 1-2.71.94c-2.23 0-1.66-1.53-3.36-1.74C286 23 285 24.44 285 24.44a2.26 2.26 0 0 1 1.5-2.71c1.39-.4.7-1.58 2-1.58 2.63 0 1.62 1.57 3.15 1.81a3.8 3.8 0 0 0 3.39-1.26c1.2-1.27 3.73-7.47 2-11.41-1.57-4.3-3.35-4.77-4.59-5-.41-.08-.73-1.05-.73-1.05a9.27 9.27 0 0 0-.55-2c-.53-1.22-1.05-.94-1.05-.94a3.56 3.56 0 0 0 0 1.07 5.24 5.24 0 0 1 0 1.39s-.46.92-.79.59a1.08 1.08 0 0 1-.32-.73 5.11 5.11 0 0 0-1.69 1.24c-1.23 1.13-1.67 1.25-2.05 2.55a10.14 10.14 0 0 1-2.73 3.28c-1.38 1.09-2.4 1.42-2.75 1.75-.58.36-.15.48 0 .84s.09.84 1.19.56a1.54 1.54 0 0 1 1.17.48c.91.61-.51 1.67 0 1.75 1.16.21.91-1.4 1.32-1.75a2.56 2.56 0 0 1 1.3-.56c.66-.18 1-.25 1.37-.08s2.14 1 3.44.38c3.09-.58 4-4.89 4-4.89s.5 3.94-3.92 6.46a6.88 6.88 0 0 1-2.14 1.35c-.59.18-1.3-.18-2.59.5a13 13 0 0 0-2.1 1.52c-.66.43-1.6.37-2 .86a11.08 11.08 0 0 0-1.5 2.14c-.51 1-1.3 1.72-1.37 2.54s-.08 1.75-.08 1.75h1.27l1.39.05a4.55 4.55 0 0 1 1-1.4c.71-.76 1.46-1.33 1.62-1.09s-.4.28-1 1.09a3.75 3.75 0 0 0-.77 2.29s-2.42-.13-4.19 0-1.52-.12-2.18 0-3.61.86-4.22.91-1.45-.19-2.08.39-.36 1.78-.38 2.18.18 4.24 0 4.65a3 3 0 0 0-.28 1.7 14 14 0 0 1 .66 1.3c.26.74 1.39-.46 1.8-1.07.14-.2.46-.51 0-.79 0-.09 0 0-.35-.77a3.11 3.11 0 0 1-.31-2.27c.13-1.24-.07-1.83.11-2.06s0-.25.28-.46.77-.76 1.17-.81 2.13.29 3.58.2 3.39 0 5-.2c2.8-.28 3.22-1.12 3.52-.89s.54 1.16-1.26 1.62a6.13 6.13 0 0 1-2.84.16s1.16 2 2 3.56 1.14 3.23 2.11 4.53c.47 1.19-.09 2.55 2.6 4.18 1 .59 1.77 2.89 1.77 2.89.27.19 0 .53.76.39a1.65 1.65 0 0 1 1.17.14s-.15-.38.29-2.06a19.84 19.84 0 0 1 1.65-3.82 15.33 15.33 0 0 0-.83 5.29c0 .79.05 1.45.11 2h9.17c.05-.15.1-.3.15-.47.99-3.13.53-2.65-.44-4.72zm-17.87-29.58l-.29.1h-.11v-.25a1.94 1.94 0 0 1 0-.3h-.84v-.11a.63.63 0 0 1 .07-.26 1 1 0 0 1 .87-.47 1.34 1.34 0 0 1 .55.1l.07.06a.47.47 0 0 1 .23.39c.02.46-.25.63-.55.74zm7.31-5a6.69 6.69 0 0 1-1.68.29.74.74 0 0 1-.23 0l-.18-.07-.21-.09-.13-.08a.37.37 0 0 1-.1-.13A.43.43 0 0 1 287 7a1.11 1.11 0 0 0 .34-.31.59.59 0 0 1 .14-.14.42.42 0 0 1 .26-.11.76.76 0 0 1 .31.09l.18.09.16.06.07.13a.12.12 0 0 1-.08 0 .59.59 0 0 1-.2-.06h-.22c-.06 0-.07 0-.1.1a.2.2 0 0 0 0 .06.31.31 0 0 0 .15.23.43.43 0 0 0 .25.09 1.46 1.46 0 0 0 .47-.23l.18-.12a1.76 1.76 0 0 0 .46-.44h-.78c-.4-.06-.74 0-.89-.15l-.06-.06a.1.1 0 0 1 0-.07h.19c.59 0 1.74-.14 1.78-.13h.08a1 1 0 0 1 .53.71c-.04.07-.22.34-.84.59z"/><path d="M281.62 13.93c.13-.2.1-.35-.26-.43s-.23-.22-.46.08-.27.23-.11.47c.36.1.7.08.83-.12m17.59-.93c-.16-5.14-2.43-6.48-2.43-6.48s2.15 2.26 1.9 6.72a17.94 17.94 0 0 1-2.55 8 11.45 11.45 0 0 0 3.08-8.24m12.93 29.34a10.7 10.7 0 0 0 .74-3.42 25.37 25.37 0 0 1-1.24 3.38c-.61 1.41-1.39 3-.62 4.63l.09.18h.89a5 5 0 0 1-.39-.74c-.46-1.2.2-3 .58-4M287.76 0a2.36 2.36 0 0 0-1.27.4 3.75 3.75 0 0 1 1.34.74 1.5 1.5 0 0 1 .59 1.05l.8-.13a1.74 1.74 0 0 1 .13-.59 2.86 2.86 0 0 0 .07-1 4.64 4.64 0 0 0-1.66-.47m-1.27 1.2a2.48 2.48 0 0 0-1.85-.13 7.52 7.52 0 0 1 1.22.57 1.56 1.56 0 0 1 .63 1.16c0 .3-1-.06-1.52.06-.86.2.05.17.54.27a1.62 1.62 0 0 1 .78.41s.07 0 .53-.33a2.55 2.55 0 0 0 .6-.54 1.44 1.44 0 0 0-.93-1.46M295 1.2a7 7 0 0 0-1.79.4 5 5 0 0 0-1 .72l.47 1 .33.2a5.39 5.39 0 0 1 .66-1.2A3.38 3.38 0 0 1 295 1.2m2.86 1.86a2.13 2.13 0 0 0-1.45 0 13.88 13.88 0 0 0-2.34.93 2.17 2.17 0 0 1 .94.34c.33.27.73.65.73.65a4 4 0 0 1 1.73-1.52c1.05-.4 1-.2.4-.4"/><path d="M300.93 8.52c-.73-.54-.6-.8-1.27-1.33a3.07 3.07 0 0 0-1.39-.6 4.69 4.69 0 0 1 1.19-.07 3.49 3.49 0 0 1 1.07.46l1.13-.06a2.82 2.82 0 0 0-1.54-1.14c-1.07-.33-1.19.06-2.26.13a2.41 2.41 0 0 1-1.27-.18c.27.18.88.58 1.14.79a11.8 11.8 0 0 1 1.21 1.72s1.05.53 1.18 1 1.21.86 1.21.86a2.5 2.5 0 0 1-.54.07 2.67 2.67 0 0 1-1.15-.53l.22 1.39a7.63 7.63 0 0 0 .94.6c.4.2.67-.13 1.39-.2a3.14 3.14 0 0 1 1.54.4l-1.07-2.12c-.4-.79-1-.67-1.72-1.2m-4.35-2.77l-.13-.08a.69.69 0 0 0 .13.08m5.07 6.77a.83.83 0 0 1-.67.07c-.34-.13-1.2-.6-1.2-.6a5.11 5.11 0 0 1 .2 1.07 4.08 4.08 0 0 1-.07.72 1.33 1.33 0 0 1 1.07 0c.47.27.52-.2 1.05 0a8.37 8.37 0 0 1 1.6 1.14s-.88-1.12-1.4-1.72l-.59-.67m-.26 3.91a1.65 1.65 0 0 1-.34-1.59 4.25 4.25 0 0 0-.53-.33c-.27-.13-.6.13-.6.13s-.1.4-.16.8c0 .17-.11.35 0 .47 1.54 2.53-.06.47-.13.73s-.2.6-.2.6a1.3 1.3 0 0 0 1.07 1.14c1.2.27.8-.26 1.66.73 1.42 1.64 1 2.92 1 2.92a5.75 5.75 0 0 0 .27-2.46c-.13-1.46-1.34-2.4-2-3.13"/><path d="M300.05 19.69c-.57 0-1-.92-1-.92a8.66 8.66 0 0 1-.8 1.53c-.4.54-1.07 1.34-1.07 1.34s2.1-1.51 3.17-.25.23 1.64.12 3.28 1.64 2.33 1.64 2.33-.74-.56.12-2.61c.43-1 .35-4.53-2.18-4.72m-9.25 3.15c-1.2-.27-1.12-1.39-1.86-1.59s-.68.25-.87.59-1.52.66-1.52.66a4.53 4.53 0 0 1 2.33.06c.8.41.61 1.21 1.8 1.34s3.52-1.26 3.52-1.26a10.69 10.69 0 0 1-3.4.2m4.76.65c.26-.45.81-1.23.81-1.23a4.43 4.43 0 0 0-1.48 1.12c-1 1.28-.23.44-1.09 1.56-.71.93-1.13 1.26-2.87 1.6a16.17 16.17 0 0 1-3-.34 4.82 4.82 0 0 0 3.58.87 6 6 0 0 0 3.2-.94s-.77 2.12-5 1.79a3.72 3.72 0 0 0-2 .48 3 3 0 0 1-.71 1.71 2.6 2.6 0 0 1-1.47 1s.93.41 2.58-1.3c.65-.68.18-.8.81-1a25.86 25.86 0 0 0 4.92-.67c1.62-.51 2.34-2.59 2.48-3.43 0-.2-2.62 1.41-.78-1.24"/><path d="M299.25 22.19c-.59-.46-1-.14-1.57.17-1.15.67-2.15 2.1-1.35 1.56 1-.66 1.76-1.14 2.49.7a2.53 2.53 0 0 1-.5 2.65 1.73 1.73 0 0 0-.51 2 2.16 2.16 0 0 1 .62-1.4 12.83 12.83 0 0 1 1.57-1.2 4.49 4.49 0 0 1-.68-1.9c-.2-1.27.78-1.89-.07-2.56m-25.15-5.37a7.13 7.13 0 0 0-2-2.31c-1-.67-1.06-.4-3.72.08a19.77 19.77 0 0 1-4 .55c-1.84 0-2.6.93-1.77 1.07 1.59.27 1.86 1.43 2.29 1 .92-1 2-1.14 3.38-1.21s2.13-.35 2.58.05.05.47.72 1.07.4.08.8 1 .67 3.11 2.73 4.25 1.85.91 1.85.91a4.12 4.12 0 0 1 .54-1.77c.47-.67.94-1.27.94-1.27a12 12 0 0 0-2.26-1.45 5.25 5.25 0 0 1-2.08-1.94m-14.36 2.59a1.7 1.7 0 0 0 .32 0 5.17 5.17 0 0 0 1.08-.14 1.3 1.3 0 0 0 .59-.23c.28-.83.3-1.3.63-1.65l.32-.32a1.43 1.43 0 0 0-.48-.08 1.77 1.77 0 0 0-1.09.4 3.58 3.58 0 0 0-1.35 2"/><path d="M262.93 17.11l-.47.48c-.27.27-.31.74-.59 1.59-.11.33-1.79.58-2.22.43-.26-.1.29-1.43 1.35-2.24a1.73 1.73 0 0 1 1.93-.25L263 17a1.66 1.66 0 0 0-.82-.21 2.1 2.1 0 0 0-1.28.47 3.8 3.8 0 0 0-1.48 2.22.29.29 0 0 0 .17.29 1.56 1.56 0 0 0 .46.06c.7 0 1.72-.14 2-.58.28-.86.34-1.33.55-1.53l.47-.48.13-.14-.2-.1z"/><path d="M261 17.37c-1.05.81-1.61 2.14-1.35 2.24.43.15 2.11-.1 2.22-.43.28-.85.32-1.32.59-1.59l.47-.48a1.73 1.73 0 0 0-1.93.25m1.67-.2l-.32.32c-.33.34-.34.81-.62 1.65a1.31 1.31 0 0 1-.59.23 5.19 5.19 0 0 1-1.08.14 1.72 1.72 0 0 1-.32 0 3.59 3.59 0 0 1 1.36-2 1.77 1.77 0 0 1 1.09-.4 1.4 1.4 0 0 1 .48.08m8.49 23.57a1.56 1.56 0 0 0 .67.22v-.94a2 2 0 0 0-.32-1 5.12 5.12 0 0 1-1.07-.34.91.91 0 0 1-.4-.56 1.47 1.47 0 0 0-.45.92 1 1 0 0 0 .27.63 3.87 3.87 0 0 0 1.28 1"/><path d="M269.77 39.82c-.86-1 .39-2 .39-2s.07.57.37.72a5.66 5.66 0 0 0 1.09.33A2.19 2.19 0 0 1 272 40a8.41 8.41 0 0 1 0 1.09s-.29.09-.88-.23a4 4 0 0 1-1.32-1.06l-.11.1A4.1 4.1 0 0 0 271 41a1.75 1.75 0 0 0 .84.26.5.5 0 0 0 .16 0h.1v-1.22a2.36 2.36 0 0 0-.41-1.19h-.05a5.53 5.53 0 0 1-1.05-.32c-.19-.06-.29-.6-.29-.6v-.27l-.22.17a2 2 0 0 0-.75 1.35 1.22 1.22 0 0 0 .34.84z"/><path d="M271.09 40.88c.59.32.88.23.88.23A8.61 8.61 0 0 0 272 40a2.19 2.19 0 0 0-.38-1.1 5.76 5.76 0 0 1-1.09-.33c-.3-.15-.37-.72-.37-.72s-1.25 1-.39 2l.11-.1a1 1 0 0 1-.27-.63 1.47 1.47 0 0 1 .45-.92.91.91 0 0 0 .4.56 5 5 0 0 0 1.07.34 2 2 0 0 1 .32 1v.94a1.57 1.57 0 0 1-.67-.22 3.9 3.9 0 0 1-1.28-1l-.11.1a4 4 0 0 0 1.32 1.06m14.76 5.18c.27-1.12 1.08-.91 1.08-.91a7.23 7.23 0 0 0-.94-1.72c-.53-.66-1.72-1.27-2.53-2.27a4.93 4.93 0 0 1-.86-2.52 15.76 15.76 0 0 0-3.2.55c-.65.34-1.18 2.33-.33 4.45s2.39 2.65 2.79 3.38h3.95a2.51 2.51 0 0 1 0-.95m1.06-39.01h-.01l.05-.05-.05.05zM13.81 31.52h-2.32a.78.78 0 0 1-.64-.29l-8.21-10v9.75a.55.55 0 0 1-.52.58H.52a.55.55 0 0 1-.52-.62V10.52A.55.55 0 0 1 .55 10h1.54a.55.55 0 0 1 .55.55v9.34L11 10.23a.69.69 0 0 1 .58-.26h2c.32 0 .46.17.46.35a.52.52 0 0 1-.12.26l-8.73 9.86L14 31.06a.39.39 0 0 1 .09.23.24.24 0 0 1-.26.23m14.11-7.16h-9.72v.35c0 3.33 1.57 4.87 4.23 4.87a35.74 35.74 0 0 0 5-.41h.14a.41.41 0 0 1 .46.41v1c0 .38-.12.58-.58.67a24.24 24.24 0 0 1-5 .49c-3.34 0-6.79-1.6-6.79-7.16v-2c0-4.12 2.29-7.16 6.44-7.16s6.38 3 6.38 7.14v1.22c0 .38-.2.64-.55.64m-2-2.09c0-3.1-1.25-4.67-3.8-4.67s-3.89 1.68-3.89 4.67v.15h7.69zm17.27 9.19h-1.51a.53.53 0 0 1-.52-.58V20.59c0-2.18-.55-3-2.52-3H36.6c-2 0-2.52.84-2.52 3v10.35a.53.53 0 0 1-.52.58H32a.53.53 0 0 1-.52-.58V20.59c0-4.47 3.1-5.22 5.08-5.22h2.06c2 0 5.08.75 5.08 5.22v10.35a.53.53 0 0 1-.52.58m11.3.03a21.72 21.72 0 0 1-2.79.17c-2.73 0-4.29-.9-4.29-4v-15c0-.29.26-.49.58-.55l1.42-.23h.06a.52.52 0 0 1 .49.55v3.07h4.53a.51.51 0 0 1 .55.52v1a.53.53 0 0 1-.55.52H50v10.1c0 1.68.55 2 2.15 2h2.35c.41 0 .61.12.61.41v1c0 .26-.14.43-.58.49m23.38-.25a22.87 22.87 0 0 1-4.82.38c-3.57 0-7.66-1.92-7.66-9v-4c0-7.11 4.09-9 7.66-9a31.24 31.24 0 0 1 4.87.47c.26 0 .46.12.46.38v1.48c0 .17-.06.32-.35.32H78c-1-.09-3.19-.26-4.87-.26-2.84 0-5 1.65-5 6.58v4c0 4.87 2.2 6.59 5 6.59 1.65 0 3.74-.15 4.79-.23H78a.4.4 0 0 1 .46.46v1.19c0 .35-.26.52-.58.58m9.21.44c-4.26 0-6.44-2.81-6.44-7.08v-2.2c0-4.26 2.17-7.08 6.44-7.08s6.47 2.81 6.47 7.08v2.21c0 4.26-2.21 7.08-6.47 7.08M91 22.45c0-3-1.19-4.84-3.92-4.84s-3.89 1.86-3.89 4.84v2.21c0 3 1.16 4.84 3.89 4.84S91 27.64 91 24.65zm11.93 9.28h-.26c-2 0-6-1.1-6-6.82v-8.76a.53.53 0 0 1 .52-.58h1.51a.53.53 0 0 1 .52.58v8.76c0 3.48 1.48 4.58 3.42 4.58h.26c1.94 0 3.42-1.1 3.42-4.58v-8.76a.53.53 0 0 1 .52-.58h1.51a.54.54 0 0 1 .52.58v8.76c0 5.71-4 6.82-6 6.82m21.29-.21h-1.51a.53.53 0 0 1-.52-.58V20.59c0-2.18-.55-3-2.52-3h-2.06c-2 0-2.52.84-2.52 3v10.35a.53.53 0 0 1-.52.58H113a.53.53 0 0 1-.52-.58V20.59c0-4.47 3.1-5.22 5.08-5.22h2.06c2 0 5.08.75 5.08 5.22v10.35a.53.53 0 0 1-.52.58m11.25.03a21.72 21.72 0 0 1-2.79.17c-2.73 0-4.29-.9-4.29-4v-15c0-.29.26-.49.58-.55l1.42-.23h.06a.52.52 0 0 1 .49.55v3.07h4.53a.51.51 0 0 1 .55.52v1a.53.53 0 0 1-.55.52h-4.53v10.1c0 1.68.55 2 2.15 2h2.35c.41 0 .61.12.61.41v1c0 .26-.14.43-.58.49m9.48 5.67a22.62 22.62 0 0 1-4.79-.49c-.41-.12-.55-.26-.55-.61v-.81a.5.5 0 0 1 .52-.49h.09a42.31 42.31 0 0 0 4.73.35c2.61 0 3.42-.64 3.42-3.68v-.14a15.42 15.42 0 0 1-3.22.35c-3.34 0-6.5-1.16-6.5-6v-9.6a.58.58 0 0 1 .58-.58h1.39a.58.58 0 0 1 .58.58v9.57c0 3.1 1.51 3.83 3.94 3.83a16.81 16.81 0 0 0 3.16-.38v-13a.58.58 0 0 1 .58-.58h1.39a.58.58 0 0 1 .58.58v15.35c0 4.55-2 5.74-5.92 5.74m30.03-5.91a22.88 22.88 0 0 1-4.82.38c-3.57 0-7.66-1.92-7.66-9v-4c0-7.11 4.09-9 7.66-9a31.25 31.25 0 0 1 4.87.47c.26 0 .46.12.46.38v1.48c0 .17-.06.32-.35.32H175c-1-.09-3.19-.26-4.87-.26-2.84 0-5 1.65-5 6.58v4c0 4.87 2.21 6.59 5 6.59 1.65 0 3.74-.15 4.79-.23h.08c.32 0 .46.14.46.46v1.19c0 .35-.26.52-.58.58m9.22.44c-4.26 0-6.44-2.81-6.44-7.08v-2.2c0-4.26 2.17-7.08 6.44-7.08s6.47 2.81 6.47 7.08v2.21c0 4.26-2.2 7.08-6.47 7.08m3.9-9.29c0-3-1.19-4.84-3.92-4.84s-3.89 1.86-3.89 4.84v2.21c0 3 1.16 4.84 3.89 4.84s3.92-1.86 3.92-4.85zm11.93 9.28h-.26c-2 0-6-1.1-6-6.82v-8.76a.53.53 0 0 1 .52-.58h1.51a.53.53 0 0 1 .52.58v8.76c0 3.48 1.48 4.58 3.42 4.58h.26c1.94 0 3.42-1.1 3.42-4.58v-8.76a.53.53 0 0 1 .52-.58h1.51a.54.54 0 0 1 .52.58v8.76c0 5.71-4 6.82-6 6.82m21.3-.21h-1.51a.53.53 0 0 1-.52-.58V20.59c0-2.18-.55-3-2.52-3h-2.06c-2 0-2.52.84-2.52 3v10.35a.53.53 0 0 1-.52.58H210a.53.53 0 0 1-.52-.58V20.59c0-4.47 3.1-5.22 5.08-5.22h2.06c2 0 5.08.75 5.08 5.22v10.35a.53.53 0 0 1-.52.58m13.49-.11a21 21 0 0 1-3.63.32c-3.95 0-6.18-2.78-6.18-7v-2.31c0-4.26 2.21-7 6.18-7a21.32 21.32 0 0 1 3.63.32c.46.09.58.23.58.64v1a.44.44 0 0 1-.49.43h-.12a28.3 28.3 0 0 0-3.6-.2c-2.32 0-3.63 1.54-3.63 4.82v2.26c0 3.25 1.28 4.82 3.63 4.82a28.31 28.31 0 0 0 3.6-.2h.12a.44.44 0 0 1 .49.43v1c0 .38-.12.55-.58.64M240.32 13h-1.48a.58.58 0 0 1-.58-.58v-2.3a.58.58 0 0 1 .58-.58h1.48a.58.58 0 0 1 .58.58v2.32a.58.58 0 0 1-.58.58m-.06 18.51h-1.39a.58.58 0 0 1-.58-.58v-14.8a.58.58 0 0 1 .58-.58h1.39a.58.58 0 0 1 .58.58v14.79a.58.58 0 0 1-.58.58m6.62 0h-1.51a.55.55 0 0 1-.52-.58V10.26a.53.53 0 0 1 .52-.55h1.51a.53.53 0 0 1 .52.55v20.68a.55.55 0 0 1-.52.58"/></g></svg>
