<svg xmlns="http://www.w3.org/2000/svg" viewBox="-311.2 385.7 192 22"><style>.st0{fill:#fff}</style><path class="st0" d="M-298.1 402.3v4.2h-12.1v-19.6h4.5v15.4h7.6zM-291.4 390.8v3.9h8.5v3.9h-8.5v3.9h9.7v3.9H-296v-19.6h13.9v3.9h-9.3zM-274.3 390.8v3.9h8.5v3.9h-8.5v3.9h9.7v3.9h-14.2v-19.6h13.9v3.9h-9.4zM-254 386.9c5.6 0 9.5 4 9.5 9.8 0 5.8-3.9 9.8-9.6 9.8h-7.5v-19.6h7.6zm-3.1 15.6h3.2c2.8 0 4.8-2.3 4.8-5.8s-2.1-5.8-5-5.8h-3v11.6zM-228.3 388.9l-1.7 3.9c-1.9-1.2-4.2-2-5.7-2-1.2 0-2 .5-2 1.4 0 3.4 9.4 1.5 9.4 8.5 0 3.9-3.2 6-7.1 6-3 0-6-1.2-8.1-3.1l1.8-3.8c1.8 1.8 4.6 2.9 6.4 2.9 1.4 0 2.3-.6 2.3-1.7 0-3.5-9.4-1.4-9.4-8.3 0-3.6 2.8-5.9 7.1-5.9 2.6-.1 5.2.8 7 2.1zM-222.3 404.4c0 1.4-.9 2.3-2.1 2.3-1.2 0-2.1-1-2.1-2.3 0-1.4.9-2.3 2.1-2.3 1.2-.1 2.1.9 2.1 2.3zM-203.8 396.5v7.6c-1.9 1.5-4.9 2.5-7.4 2.5-5.4 0-9.5-4.3-9.5-10s4.2-9.9 9.8-9.9c2.6 0 5.4 1.1 7.3 2.9l-2.5 3.4c-1.3-1.3-3.1-2.1-4.8-2.1-2.9 0-5.2 2.5-5.2 5.8s2.3 5.8 5.2 5.8c.9 0 2.1-.4 3.2-1v-5.1h3.9zM-182.6 396.7c0 5.7-4.1 10-9.6 10s-9.6-4.3-9.6-10 4.1-9.9 9.6-9.9 9.6 4.2 9.6 9.9zm-14.6 0c0 3.3 2.3 5.8 5 5.8s4.9-2.5 4.9-5.8-2.2-5.8-4.9-5.8-5 2.5-5 5.8zM-175.3 406.5l-6.9-19.6h4.8l4.6 14.4 4.6-14.4h4.7l-7 19.6h-4.8zM-159.3 404.4c0 1.4-.9 2.3-2.1 2.3s-2.1-1-2.1-2.3c0-1.4.9-2.3 2.1-2.3s2.1.9 2.1 2.3zM-140.5 398.3c0 5.2-3.1 8.4-8.1 8.4s-8.2-3.3-8.2-8.4V387h4.5v11.3c0 2.7 1.6 4.3 3.7 4.3s3.6-1.6 3.6-4.3V387h4.5v11.3zM-130.3 398.8l-2.4 2.9v4.8h-4.5v-19.6h4.5v8.5l6.8-8.5h5.2l-6.6 8.1 7 11.5h-5.4l-4.6-7.7z"/></svg>
