<?xml version="1.0" encoding="utf-8"?>
<!-- Generator: Adobe Illustrator 19.0.0, SVG Export Plug-In . SVG Version: 6.00 Build 0)  -->
<svg version="1.1" id="Layer_1" xmlns="http://www.w3.org/2000/svg" xmlns:xlink="http://www.w3.org/1999/xlink" x="0px" y="0px"
	 viewBox="-311.2 385.7 192 22" style="enable-background:new -311.2 385.7 192 22;" xml:space="preserve">
<style type="text/css">
	.st0{fill:#FFFFFF;}
</style>
	<g>
	<path class="st0" d="M-298.1,402.3v4.2h-12.1v-19.6h4.5v15.4H-298.1z"/>
		<path class="st0" d="M-291.4,390.8v3.9h8.5v3.9h-8.5v3.9h9.7v3.9H-296v-19.6h13.9v3.9H-291.4z"/>
		<path class="st0" d="M-274.3,390.8v3.9h8.5v3.9h-8.5v3.9h9.7v3.9h-14.2v-19.6h13.9v3.9H-274.3z"/>
		<path class="st0" d="M-254,386.9c5.6,0,9.5,4,9.5,9.8c0,5.8-3.9,9.8-9.6,9.8h-7.5v-19.6H-254z M-257.1,402.5h3.2
		c2.8,0,4.8-2.3,4.8-5.8c0-3.5-2.1-5.8-5-5.8h-3V402.5z"/>
		<path class="st0" d="M-228.3,388.9l-1.7,3.9c-1.9-1.2-4.2-2-5.7-2c-1.2,0-2,0.5-2,1.4c0,3.4,9.4,1.5,9.4,8.5c0,3.9-3.2,6-7.1,6
		c-3,0-6-1.2-8.1-3.1l1.8-3.8c1.8,1.8,4.6,2.9,6.4,2.9c1.4,0,2.3-0.6,2.3-1.7c0-3.5-9.4-1.4-9.4-8.3c0-3.6,2.8-5.9,7.1-5.9
		C-232.7,386.7-230.1,387.6-228.3,388.9z"/>
		<path class="st0" d="M-222.3,404.4c0,1.4-0.9,2.3-2.1,2.3c-1.2,0-2.1-1-2.1-2.3c0-1.4,0.9-2.3,2.1-2.3
		C-223.2,402-222.3,403-222.3,404.4z"/>
		<path class="st0" d="M-203.8,396.5v7.6c-1.9,1.5-4.9,2.5-7.4,2.5c-5.4,0-9.5-4.3-9.5-10c0-5.7,4.2-9.9,9.8-9.9
		c2.6,0,5.4,1.1,7.3,2.9l-2.5,3.4c-1.3-1.3-3.1-2.1-4.8-2.1c-2.9,0-5.2,2.5-5.2,5.8c0,3.3,2.3,5.8,5.2,5.8c0.9,0,2.1-0.4,3.2-1v-5.1
		H-203.8z"/>
		<path class="st0" d="M-182.6,396.7c0,5.7-4.1,10-9.6,10c-5.5,0-9.6-4.3-9.6-10c0-5.7,4.1-9.9,9.6-9.9
		C-186.7,386.8-182.6,391-182.6,396.7z M-197.2,396.7c0,3.3,2.3,5.8,5,5.8c2.7,0,4.9-2.5,4.9-5.8c0-3.3-2.2-5.8-4.9-5.8
		C-194.9,390.9-197.2,393.4-197.2,396.7z"/>
		<path class="st0" d="M-175.3,406.5l-6.9-19.6h4.8l4.6,14.4l4.6-14.4h4.7l-7,19.6H-175.3z"/>
		<path class="st0" d="M-159.3,404.4c0,1.4-0.9,2.3-2.1,2.3s-2.1-1-2.1-2.3c0-1.4,0.9-2.3,2.1-2.3S-159.3,403-159.3,404.4z"/>
		<path class="st0" d="M-140.5,398.3c0,5.2-3.1,8.4-8.1,8.4c-5,0-8.2-3.3-8.2-8.4v-11.3h4.5v11.3c0,2.7,1.6,4.3,3.7,4.3
		c2.1,0,3.6-1.6,3.6-4.3v-11.3h4.5C-140.5,386.9-140.5,398.3-140.5,398.3z"/>
		<path class="st0" d="M-130.3,398.8l-2.4,2.9v4.8h-4.5v-19.6h4.5v8.5l6.8-8.5h5.2l-6.6,8.1l7,11.5h-5.4L-130.3,398.8z"/>
</g>
</svg>
