<svg xmlns="http://www.w3.org/2000/svg" viewBox="0 0 261 57"><defs><style>.cls-1{fill:#1d1d1b}</style></defs><path class="cls-1" d="M0 38h5c1.84 0 4.59.53 4.59 3.65a3.18 3.18 0 0 1-2.83 3.18A3.31 3.31 0 0 1 10 48.07c0 3.59-3.22 4.12-5 4.12H0zm2.85 5.75H4c1.2 0 2.69-.27 2.69-1.73 0-1.65-1.45-1.77-2.75-1.77H2.85zm0 6.24H4.2c1.33 0 2.94-.33 2.94-2 0-1.86-1.51-2.14-2.94-2.14H2.85zM21.86 52.19h-2.59v-1.43a4.38 4.38 0 0 1-3.45 1.67c-2.49 0-3.57-1.75-3.57-4.12v-6.62h2.73v5.61c0 1.28 0 3 1.77 3 2 0 2.41-2.14 2.41-3.49v-5.12h2.73zM30.92 43.89a6.7 6.7 0 0 0-2.45-.45c-.73 0-1.61.27-1.61 1.16 0 1.67 4.75.61 4.75 4.41 0 2.45-2.18 3.43-4.4 3.43a12.24 12.24 0 0 1-3.1-.45l.16-2.24a6 6 0 0 0 2.69.69c.69 0 1.79-.27 1.79-1.28 0-2.06-4.75-.65-4.75-4.45 0-2.26 2-3.26 4.12-3.26a12.58 12.58 0 0 1 3 .39zM33.79 37.16h2.73v2.61h-2.73zm0 4.53h2.73v10.5h-2.73zM39.4 41.69H42v1.43a3.92 3.92 0 0 1 3.45-1.67C48 41.44 49 43.2 49 45.56v6.63h-2.69v-5.61c0-1.28 0-3-1.77-3-2 0-2.41 2.14-2.41 3.49v5.14H39.4zM60.28 51.6a7.21 7.21 0 0 1-3.61.84c-3.47 0-5.49-2-5.49-5.45 0-3 1.61-5.55 4.87-5.55 3.9 0 5 2.67 5 6.34H53.8a2.75 2.75 0 0 0 3 2.65 7.08 7.08 0 0 0 3.49-1.06zm-1.84-5.69c-.08-1.33-.69-2.47-2.22-2.47a2.38 2.38 0 0 0-2.43 2.47zM69.44 43.89a6.7 6.7 0 0 0-2.44-.45c-.73 0-1.61.27-1.61 1.16 0 1.67 4.75.61 4.75 4.41 0 2.45-2.18 3.43-4.4 3.43a12.24 12.24 0 0 1-3.1-.45l.16-2.24a6 6 0 0 0 2.69.69c.69 0 1.79-.27 1.79-1.28 0-2.06-4.75-.65-4.75-4.45 0-2.26 2-3.26 4.12-3.26a12.58 12.58 0 0 1 3 .39zM78.5 43.89a6.7 6.7 0 0 0-2.5-.45c-.73 0-1.61.27-1.61 1.16 0 1.67 4.75.61 4.75 4.41 0 2.45-2.18 3.43-4.41 3.43a12.24 12.24 0 0 1-3.1-.45l.16-2.24a6 6 0 0 0 2.69.69c.69 0 1.79-.27 1.79-1.28 0-2.06-4.75-.65-4.75-4.45 0-2.26 2-3.26 4.12-3.26a12.58 12.58 0 0 1 3 .39zM94.87 40.57A7.37 7.37 0 0 0 92 40a2 2 0 0 0-2.24 2c0 2.47 6.24 1.43 6.24 6.2 0 3.12-2.47 4.3-5.34 4.3a12.53 12.53 0 0 1-3.66-.62l.27-2.57a6.87 6.87 0 0 0 3.22.88c1.08 0 2.53-.55 2.53-1.84 0-2.71-6.24-1.59-6.24-6.3 0-3.18 2.47-4.34 5-4.34a10.75 10.75 0 0 1 3.41.51zM106.74 51.6a7.21 7.21 0 0 1-3.61.84c-3.47 0-5.49-2-5.49-5.45 0-3 1.61-5.55 4.87-5.55 3.9 0 5 2.67 5 6.34h-7.26a2.75 2.75 0 0 0 3 2.65 7.08 7.08 0 0 0 3.49-1.06zm-1.84-5.69c-.08-1.33-.69-2.47-2.22-2.47a2.38 2.38 0 0 0-2.43 2.47zM109.72 41.69h2.43v2.39a3.22 3.22 0 0 1 2.88-2.63 3 3 0 0 1 .84.08v2.75a2.78 2.78 0 0 0-1.22-.22c-2.22 0-2.22 2.77-2.22 4.28v3.85h-2.73zM116.43 41.69h2.94l2.63 7.65 2.53-7.65h2.73l-3.87 10.5h-3.08zM129 37.16h2.73v2.61H129zm0 4.53h2.73v10.5H129zM141.41 44a4.12 4.12 0 0 0-1.86-.39c-1.69 0-2.77 1.35-2.77 3.32s.92 3.43 2.83 3.43a5.79 5.79 0 0 0 2.1-.49l.12 2.26a8.91 8.91 0 0 1-2.73.35c-3.45 0-5.18-2.35-5.18-5.55 0-3 1.79-5.45 5.08-5.45a8.89 8.89 0 0 1 2.65.35zM152.08 51.6a7.21 7.21 0 0 1-3.61.84c-3.47 0-5.49-2-5.49-5.45 0-3 1.61-5.55 4.87-5.55 3.9 0 5 2.67 5 6.34h-7.26a2.75 2.75 0 0 0 3 2.65 7.08 7.08 0 0 0 3.49-1.06zm-1.84-5.69c-.08-1.33-.69-2.47-2.22-2.47a2.38 2.38 0 0 0-2.43 2.47zM161.23 43.89a6.7 6.7 0 0 0-2.45-.45c-.73 0-1.61.27-1.61 1.16 0 1.67 4.75.61 4.75 4.41 0 2.45-2.18 3.43-4.41 3.43a12.24 12.24 0 0 1-3.1-.45l.16-2.24a6 6 0 0 0 2.69.69c.69 0 1.79-.27 1.79-1.28 0-2.06-4.75-.65-4.75-4.45 0-2.26 2-3.26 4.12-3.26a12.58 12.58 0 0 1 3 .39zM174 38h3.22l5.59 14.23h-3.16l-1.22-3.26h-5.77l-1.24 3.26h-3zm1.57 2.86l-2.06 5.87h4.16zM194.09 52.19h-2.59v-1.43a4.38 4.38 0 0 1-3.5 1.68c-2.49 0-3.57-1.75-3.57-4.12v-6.63h2.73v5.61c0 1.28 0 3 1.77 3 2 0 2.41-2.14 2.41-3.49v-5.12h2.73zM197.8 43.69h-2v-2h2v-2.1l2.73-.88v3H203v2h-2.43v4.89c0 .9.24 1.73 1.28 1.73a2.44 2.44 0 0 0 1.24-.29l.08 2.16a7.2 7.2 0 0 1-2 .24A3.09 3.09 0 0 1 197.8 49zM204.84 36.9h2.73v6.22a3.91 3.91 0 0 1 3.3-1.67c2.49 0 3.57 1.75 3.57 4.12v6.63h-2.73v-5.62c0-1.28 0-3-1.77-3-2 0-2.41 2.14-2.41 3.49v5.14h-2.73zM222.11 41.44a5.26 5.26 0 0 1 5.51 5.56 5.5 5.5 0 0 1-11 0 5.26 5.26 0 0 1 5.49-5.56zm0 8.87c2.1 0 2.65-1.88 2.65-3.63s-.86-3.12-2.65-3.12-2.63 1.55-2.63 3.12c0 1.74.52 3.63 2.63 3.63zM229.82 41.69h2.43v2.39a3.22 3.22 0 0 1 2.88-2.63 3 3 0 0 1 .84.08v2.75a2.78 2.78 0 0 0-1.22-.22c-2.22 0-2.22 2.77-2.22 4.28v3.85h-2.73zM237.75 37.16h2.73v2.61h-2.73zm0 4.53h2.73v10.5h-2.73zM244.26 43.69h-2v-2h2v-2.1l2.73-.88v3h2.43v2H247v4.89c0 .9.24 1.73 1.28 1.73a2.44 2.44 0 0 0 1.24-.29l.08 2.16a7.2 7.2 0 0 1-2 .24 3.09 3.09 0 0 1-3.34-3.44zM255.66 49.36l2.53-7.67H261l-3.94 10.42c-.88 2.32-1.51 4.61-4.36 4.61a7 7 0 0 1-1.94-.29l.18-2a4 4 0 0 0 1.41.18 1.71 1.71 0 0 0 1.77-1.88l-4-11h3z"/><path d="M261 28.91V0h-71.78v28.91zM218.08 2.79l-5 23.27h-7.78L200.46 10h-.07l-3.25 16.1h-5.9l5-23.27H204l4.79 16.13h.07l3.28-16.13zm22.24 0l-4.86 23.27h-6.26l2.08-10h-7.41l-2.08 10h-6.26l4.86-23.27h6.26l-1.84 8.9h7.4l1.84-8.9zm18 .63l-1.52 4.64A11.83 11.83 0 0 0 251.64 7c-2.48 0-4.49.36-4.49 2.23 0 3.3 9.08 2.07 9.08 9.13 0 6.43-6 8.1-11.42 8.1a26.22 26.22 0 0 1-7.23-1.2l1.42-4.74a12.22 12.22 0 0 0 5.76 1.34c1.95 0 5-.37 5-2.77 0-3.73-9.08-2.33-9.08-8.9 0-6 5.29-7.8 10.42-7.8a19.1 19.1 0 0 1 7.17 1z" fill="#2160ad"/></svg>
