<?xml version="1.0" encoding="UTF-8" standalone="no"?>
<!-- Created with Inkscape (http://www.inkscape.org/) -->

<svg
   xmlns:dc="http://purl.org/dc/elements/1.1/"
   xmlns:cc="http://creativecommons.org/ns#"
   xmlns:rdf="http://www.w3.org/1999/02/22-rdf-syntax-ns#"
   xmlns:svg="http://www.w3.org/2000/svg"
   xmlns="http://www.w3.org/2000/svg"
   xmlns:sodipodi="http://sodipodi.sourceforge.net/DTD/sodipodi-0.dtd"
   xmlns:inkscape="http://www.inkscape.org/namespaces/inkscape"
   width="129.97961mm"
   height="42.575062mm"
   viewBox="0 0 129.97961 42.575062"
   version="1.1"
   id="svg1239"
   inkscape:version="0.92.0 r15299"
   sodipodi:docname="social security scotland.svg">
  <defs
     id="defs1233">
    <clipPath
       id="clipPath362"
       clipPathUnits="userSpaceOnUse">
      <path
         inkscape:connector-curvature="0"
         id="path360"
         d="m 56.693,551.068 h 481.89 V 785.197 H 56.693 Z" />
    </clipPath>
  </defs>
  <sodipodi:namedview
     id="base"
     pagecolor="#ffffff"
     bordercolor="#666666"
     borderopacity="1.0"
     inkscape:pageopacity="0.0"
     inkscape:pageshadow="2"
     inkscape:zoom="1.840068"
     inkscape:cx="243.741"
     inkscape:cy="78.567033"
     inkscape:document-units="mm"
     inkscape:current-layer="layer1"
     showgrid="false"
     fit-margin-top="0"
     fit-margin-left="0"
     fit-margin-right="0"
     fit-margin-bottom="0"
     units="mm"
     inkscape:window-width="1280"
     inkscape:window-height="744"
     inkscape:window-x="-4"
     inkscape:window-y="-4"
     inkscape:window-maximized="1" />
  <metadata
     id="metadata1236">
    <rdf:RDF>
      <cc:Work
         rdf:about="">
        <dc:format>image/svg+xml</dc:format>
        <dc:type
           rdf:resource="http://purl.org/dc/dcmitype/StillImage" />
        <dc:title></dc:title>
      </cc:Work>
    </rdf:RDF>
  </metadata>
  <g
     inkscape:label="Layer 1"
     inkscape:groupmode="layer"
     id="layer1"
     transform="translate(52.016591,-127.0458)">
    <g
       id="g1774"
       transform="translate(0.50000213,-0.49999747)">
      <path
         d="m -52.016591,132.80274 v 12.90144 c 0,0.45861 0.47625,0.762 0.891822,0.56797 l 6.475589,-3.02331 c 0.358775,-0.16721 0.617714,-0.49389 0.6985,-0.88124 l 2.838803,-13.5643 c 0.101952,-0.48613 -0.375003,-0.89253 -0.838906,-0.71508 l -9.257594,3.54048 c -0.486833,0.18591 -0.808214,0.65299 -0.808214,1.17404"
         style="fill:#251b5b;fill-opacity:1;fill-rule:nonzero;stroke:none;stroke-width:0.35277778"
         id="path366"
         inkscape:connector-curvature="0" />
      <path
         d="m -33.606213,133.63043 -15.83055,6.05367 c -0.485422,0.18556 -0.806097,0.65122 -0.806097,1.17087 v 21.51662 c 0,0.47695 0.512586,0.77893 0.929922,0.54786 l 11.452931,-6.34294 c 0.318911,-0.17674 0.545041,-0.48331 0.619477,-0.83997 l 4.476045,-21.38821 c 0.102305,-0.48824 -0.376061,-0.89605 -0.841728,-0.7179"
         style="fill:#e5007d;fill-opacity:1;fill-rule:nonzero;stroke:none;stroke-width:0.35277778"
         id="path370"
         inkscape:connector-curvature="0" />
      <path
         d="m -34.735913,152.30454 -8.644466,-5.86528 v 13.19459 l -1.923345,1.06539 v 1.26859 c 0,0.41592 0.20567,0.80468 0.549981,1.03822 l 9.588147,6.50558 c 0.41663,0.28257 0.979664,-0.0159 0.979664,-0.51929 v -15.64993 c 0,-0.41557 -0.206023,-0.80468 -0.549981,-1.03787"
         style="fill:#251b5b;fill-opacity:1;fill-rule:nonzero;stroke:none;stroke-width:0.35277778"
         id="path374"
         inkscape:connector-curvature="0" />
      <path
         d="m -25.247179,144.98779 c 0.159103,0.23883 0.363008,0.41487 0.611011,0.52846 0.248356,0.1136 0.503767,0.16969 0.767292,0.16969 0.147108,0 0.297391,-0.0229 0.450497,-0.0688 0.153106,-0.0459 0.292453,-0.11501 0.418042,-0.20673 0.125589,-0.0921 0.227894,-0.20497 0.307622,-0.34008 0.07973,-0.13476 0.119591,-0.29069 0.119591,-0.46849 0,-0.25118 -0.07973,-0.44273 -0.23883,-0.57432 -0.159456,-0.13194 -0.357011,-0.24201 -0.592667,-0.33091 -0.236008,-0.0885 -0.493536,-0.17462 -0.771877,-0.25717 -0.278695,-0.0825 -0.536223,-0.19791 -0.771878,-0.34502 -0.236009,-0.14675 -0.433564,-0.34431 -0.59302,-0.59231 -0.159102,-0.24836 -0.23883,-0.5835 -0.23883,-1.00612 0,-0.19015 0.04163,-0.39229 0.124178,-0.60678 0.08255,-0.21414 0.212725,-0.41028 0.390525,-0.58773 0.177447,-0.17815 0.405694,-0.32667 0.684741,-0.44591 0.278695,-0.11959 0.613834,-0.17921 1.006122,-0.17921 0.355248,0 0.695325,0.049 1.019881,0.14711 0.324908,0.0977 0.6096,0.29704 0.85478,0.59725 l -0.716844,0.65229 c -0.110419,-0.17145 -0.266347,-0.30904 -0.468489,-0.41346 -0.202141,-0.10407 -0.432153,-0.15593 -0.689328,-0.15593 -0.24518,0 -0.449086,0.0321 -0.611011,0.0963 -0.16263,0.0642 -0.292805,0.14711 -0.390525,0.248 -0.09807,0.10125 -0.166864,0.20991 -0.206727,0.32632 -0.03986,0.11642 -0.05997,0.22366 -0.05997,0.32174 0,0.27552 0.07937,0.48683 0.238831,0.63394 0.159455,0.14675 0.357011,0.26634 0.593019,0.35842 0.235656,0.0917 0.492831,0.17462 0.771878,0.248 0.278695,0.0734 0.535869,0.17639 0.771878,0.30798 0.235655,0.13158 0.433211,0.30938 0.592666,0.53269 0.159103,0.22402 0.238831,0.53164 0.238831,0.92357 0,0.31257 -0.05962,0.59443 -0.179211,0.84561 -0.119592,0.25118 -0.280106,0.46249 -0.482247,0.63394 -0.202142,0.17181 -0.441325,0.30339 -0.716845,0.39511 -0.275519,0.0917 -0.569736,0.13794 -0.882297,0.13794 -0.41663,0 -0.811742,-0.0734 -1.185333,-0.22049 -0.373945,-0.1471 -0.670631,-0.37394 -0.891117,-0.68015 z"
         style="fill:#251b5b;fill-opacity:1;fill-rule:nonzero;stroke:none;stroke-width:0.35277778"
         id="path378"
         inkscape:connector-curvature="0" />
      <path
         d="m -19.770445,144.16981 c 0,0.22049 0.03351,0.42439 0.101247,0.61101 0.06738,0.18697 0.161925,0.34608 0.284692,0.47801 0.122414,0.13159 0.272697,0.23566 0.450144,0.31221 0.1778,0.0769 0.376767,0.11501 0.597253,0.11501 0.220839,0 0.419806,-0.0381 0.597253,-0.11501 0.1778,-0.0765 0.32773,-0.18062 0.450497,-0.31221 0.122414,-0.13193 0.217311,-0.29104 0.284692,-0.47801 0.06738,-0.18662 0.101247,-0.39052 0.101247,-0.61101 0,-0.22049 -0.03387,-0.42404 -0.101247,-0.61101 -0.06738,-0.18662 -0.162278,-0.34608 -0.284692,-0.47766 -0.122767,-0.13194 -0.272697,-0.23601 -0.450497,-0.31256 -0.177447,-0.0766 -0.376414,-0.11501 -0.597253,-0.11501 -0.220486,0 -0.419453,0.0385 -0.597253,0.11501 -0.177447,0.0766 -0.32773,0.18062 -0.450144,0.31256 -0.122767,0.13158 -0.217311,0.29104 -0.284692,0.47766 -0.06773,0.18697 -0.101247,0.39052 -0.101247,0.61101 m -0.882297,0 c 0,-0.31856 0.05997,-0.61595 0.179211,-0.89147 0.119592,-0.27552 0.283633,-0.51752 0.491772,-0.72566 0.208139,-0.20814 0.45332,-0.37254 0.734836,-0.49178 0.28187,-0.11959 0.585259,-0.17921 0.909814,-0.17921 0.324908,0 0.628297,0.0596 0.910167,0.17921 0.281516,0.11924 0.526344,0.28364 0.734836,0.49178 0.208139,0.20814 0.37218,0.45014 0.491772,0.72566 0.119239,0.27552 0.179211,0.57291 0.179211,0.89147 0,0.31856 -0.05997,0.61736 -0.179211,0.89606 -0.119592,0.27869 -0.283633,0.5207 -0.491772,0.72601 -0.208492,0.20532 -0.45332,0.3676 -0.734836,0.48684 -0.28187,0.11959 -0.585259,0.17921 -0.910167,0.17921 -0.324555,0 -0.627944,-0.0596 -0.909814,-0.17921 -0.281516,-0.11924 -0.526697,-0.28152 -0.734836,-0.48684 -0.208139,-0.20531 -0.37218,-0.44732 -0.491772,-0.72601 -0.119239,-0.2787 -0.179211,-0.5775 -0.179211,-0.89606"
         style="fill:#251b5b;fill-opacity:1;fill-rule:nonzero;stroke:none;stroke-width:0.35277778"
         id="path382"
         inkscape:connector-curvature="0" />
      <path
         d="m -11.628863,143.14971 c -0.153106,-0.1591 -0.313972,-0.28011 -0.4826,-0.36266 -0.168275,-0.0829 -0.369006,-0.12417 -0.601839,-0.12417 -0.226483,0 -0.424039,0.0413 -0.592667,0.12417 -0.168627,0.0825 -0.309386,0.1958 -0.422627,0.33973 -0.113242,0.14393 -0.198967,0.30939 -0.257175,0.49636 -0.05856,0.18697 -0.08749,0.38135 -0.08749,0.58349 0,0.20214 0.03387,0.3937 0.101247,0.57432 0.06738,0.18063 0.162278,0.33867 0.284692,0.47308 0.122414,0.13511 0.269522,0.24059 0.441325,0.31715 0.171097,0.0769 0.364419,0.11465 0.578908,0.11465 0.232481,0 0.4318,-0.0409 0.597253,-0.12383 0.165453,-0.0825 0.318205,-0.20355 0.459316,-0.363 l 0.588081,0.58808 c -0.214489,0.23918 -0.463903,0.41063 -0.748947,0.5147 -0.284692,0.10407 -0.58667,0.15628 -0.904875,0.15628 -0.337256,0 -0.644878,-0.055 -0.923572,-0.16545 -0.279048,-0.11042 -0.519289,-0.26494 -0.721431,-0.46391 -0.202142,-0.19896 -0.358422,-0.43815 -0.468489,-0.71684 -0.110419,-0.27869 -0.165453,-0.58667 -0.165453,-0.92357 0,-0.33691 0.05503,-0.64629 0.165453,-0.92816 0.110067,-0.28152 0.264584,-0.52388 0.463903,-0.72602 0.198967,-0.20214 0.437797,-0.35983 0.716844,-0.47307 0.278342,-0.11324 0.589492,-0.17004 0.932745,-0.17004 0.318205,0 0.623005,0.0568 0.914047,0.17004 0.291042,0.11324 0.543631,0.2861 0.758119,0.51929 z"
         style="fill:#251b5b;fill-opacity:1;fill-rule:nonzero;stroke:none;stroke-width:0.35277778"
         id="path386"
         inkscape:connector-curvature="0" />
      <path
         inkscape:connector-curvature="0"
         id="path388"
         style="fill:#251b5b;fill-opacity:1;fill-rule:nonzero;stroke:none;stroke-width:0.35277778"
         d="m -9.7361045,141.99214 h 0.8272639 v 4.35575 h -0.8272639 z m -0.1929694,-1.5621 c 0,-0.16545 0.059972,-0.30797 0.1792111,-0.42756 0.1195917,-0.11959 0.2621139,-0.17886 0.4272139,-0.17886 0.1654527,0 0.307975,0.0593 0.4275666,0.17886 0.1192389,0.11959 0.1792111,0.26211 0.1792111,0.42756 0,0.16546 -0.059972,0.30763 -0.1792111,0.42722 -0.1195916,0.11924 -0.2621139,0.17886 -0.4275666,0.17886 -0.1651,0 -0.3076222,-0.0596 -0.4272139,-0.17886 -0.1192389,-0.11959 -0.1792111,-0.26176 -0.1792111,-0.42722" />
      <path
         d="m -5.2059793,144.25264 c -0.1957917,0 -0.3965222,0.0109 -0.6018389,0.0321 -0.2053166,0.0215 -0.3919361,0.0628 -0.5605639,0.12418 -0.1682749,0.061 -0.3062111,0.14676 -0.4134555,0.25718 -0.1072444,0.11006 -0.1608667,0.25117 -0.1608667,0.42262 0,0.25118 0.084314,0.4318 0.2525889,0.54222 0.1686278,0.11007 0.396875,0.1651 0.6847417,0.1651 0.2264833,0 0.4198055,-0.0377 0.5792611,-0.11465 0.1591027,-0.0765 0.2875139,-0.17604 0.3855861,-0.29845 0.098072,-0.12241 0.1686277,-0.25894 0.2113139,-0.40887 0.042686,-0.15028 0.064558,-0.2988 0.064558,-0.44591 v -0.27552 z m -2.3339777,-1.72755 c 0.2328333,-0.21449 0.5023555,-0.37501 0.8089194,-0.4826 0.3062111,-0.10689 0.6124222,-0.16052 0.9186333,-0.16052 0.3185583,0 0.5926667,0.0399 0.8226778,0.11924 0.2296583,0.0797 0.4180416,0.18697 0.5647972,0.32174 0.1471083,0.13476 0.2557639,0.28927 0.3263194,0.4639 0.070556,0.17462 0.1054806,0.35701 0.1054806,0.5468 v 2.22356 c 0,0.15346 0.00318,0.29422 0.00953,0.42298 0.006,0.12877 0.015169,0.25118 0.027517,0.3676 h -0.7351888 c -0.018345,-0.22049 -0.027517,-0.44098 -0.027517,-0.66181 h -0.018344 c -0.1837973,0.28187 -0.4014611,0.48118 -0.6522861,0.5976 -0.2515306,0.11607 -0.5422195,0.17463 -0.873125,0.17463 -0.2021417,0 -0.3951111,-0.0279 -0.5789083,-0.0829 -0.1837973,-0.055 -0.3446639,-0.13793 -0.4826,-0.248 -0.1379361,-0.11042 -0.2465917,-0.24659 -0.3259667,-0.40922 -0.080081,-0.16193 -0.1195917,-0.35031 -0.1195917,-0.5648 0,-0.28187 0.062794,-0.51788 0.1883834,-0.70767 0.1255889,-0.1898 0.2970389,-0.34466 0.5147027,-0.46426 0.2173111,-0.11923 0.4716639,-0.20531 0.7623528,-0.25717 0.2910417,-0.0519 0.6021917,-0.078 0.9330972,-0.078 h 0.606425 v -0.18415 c 0,-0.11007 -0.021872,-0.22049 -0.064558,-0.33056 -0.042686,-0.11042 -0.1068917,-0.2099 -0.1929695,-0.2988 -0.085725,-0.0885 -0.1929694,-0.1591 -0.3213805,-0.21096 -0.1287639,-0.0522 -0.2818695,-0.0783 -0.4596695,-0.0783 -0.1594555,0 -0.2988027,0.0152 -0.4180416,0.0459 -0.1195917,0.0307 -0.2282472,0.0692 -0.3259667,0.11501 -0.098072,0.0459 -0.1869722,0.0995 -0.2667,0.16051 -0.079728,0.0617 -0.1562805,0.11959 -0.2296583,0.17463 z"
         style="fill:#251b5b;fill-opacity:1;fill-rule:nonzero;stroke:none;stroke-width:0.35277778"
         id="path392"
         inkscape:connector-curvature="0" />
      <path
         inkscape:connector-curvature="0"
         id="path394"
         style="fill:#251b5b;fill-opacity:1;fill-rule:nonzero;stroke:none;stroke-width:0.35277778"
         d="m -2.5591935,139.40064 h 0.8269111 v 6.9469 h -0.8269111 z" />
      <path
         d="m 3.2021966,144.98779 c 0.1591028,0.23883 0.3630083,0.41487 0.6110111,0.52846 0.2480028,0.1136 0.5037667,0.16969 0.7672916,0.16969 0.1471084,0 0.2970389,-0.0229 0.4501445,-0.0688 0.1531055,-0.0459 0.2924528,-0.11501 0.4183944,-0.20673 0.1252361,-0.0921 0.2278945,-0.20497 0.3076222,-0.34008 0.079728,-0.13476 0.1195917,-0.29069 0.1195917,-0.46849 0,-0.25118 -0.079728,-0.44273 -0.2391833,-0.57432 -0.1591028,-0.13194 -0.3566584,-0.24201 -0.5926667,-0.33091 -0.2356555,-0.0885 -0.4931833,-0.17462 -0.771525,-0.25717 -0.2790472,-0.0825 -0.5362222,-0.19791 -0.7722305,-0.34502 -0.2356556,-0.14675 -0.4332111,-0.34431 -0.5926667,-0.59231 -0.1591027,-0.24836 -0.2388305,-0.5835 -0.2388305,-1.00612 0,-0.19015 0.041275,-0.39229 0.1241778,-0.60678 0.08255,-0.21414 0.212725,-0.41028 0.390525,-0.58773 0.1774472,-0.17815 0.4056944,-0.32667 0.6843888,-0.44591 0.2786945,-0.11959 0.6141861,-0.17921 1.006475,-0.17921 0.3548944,0 0.6949722,0.049 1.0198805,0.14711 0.3245556,0.0977 0.6096,0.29704 0.8547806,0.59725 l -0.7168445,0.65229 c -0.1104194,-0.17145 -0.2666999,-0.30904 -0.4688416,-0.41346 -0.2021417,-0.10407 -0.4321528,-0.15593 -0.688975,-0.15593 -0.2451805,0 -0.4490861,0.0321 -0.6113639,0.0963 -0.1622777,0.0642 -0.2924527,0.14711 -0.390525,0.248 -0.098072,0.10125 -0.1668638,0.20991 -0.2067277,0.32632 -0.039864,0.11642 -0.059619,0.22366 -0.059619,0.32174 0,0.27552 0.079375,0.48683 0.2388306,0.63394 0.1594555,0.14675 0.3570111,0.26634 0.5930194,0.35842 0.2353028,0.0917 0.4928306,0.17462 0.771525,0.248 0.2786944,0.0734 0.5362222,0.17639 0.7718777,0.30798 0.2360084,0.13158 0.4332112,0.30938 0.5926667,0.53269 0.1594556,0.22402 0.2391833,0.53164 0.2391833,0.92357 0,0.31257 -0.059619,0.59443 -0.1792111,0.84561 -0.1195916,0.25118 -0.2804583,0.46249 -0.4826,0.63394 -0.2021416,0.17181 -0.4409722,0.30339 -0.7168444,0.39511 -0.2755194,0.0917 -0.5697361,0.13794 -0.8819444,0.13794 -0.4166306,0 -0.8117417,-0.0734 -1.1853333,-0.22049 -0.3739445,-0.1471 -0.6709833,-0.37394 -0.8914695,-0.68015 z"
         style="fill:#251b5b;fill-opacity:1;fill-rule:nonzero;stroke:none;stroke-width:0.35277778"
         id="path398"
         inkscape:connector-curvature="0" />
      <path
         d="m 11.261193,143.81156 c -0.0064,-0.1838 -0.03528,-0.35242 -0.08749,-0.50553 -0.05186,-0.15311 -0.130175,-0.28646 -0.234244,-0.3997 -0.104423,-0.11324 -0.234245,-0.20214 -0.390525,-0.26634 -0.156281,-0.0646 -0.338667,-0.0967 -0.546806,-0.0967 -0.2021415,0 -0.3873499,0.0385 -0.5559776,0.11501 -0.1686278,0.0765 -0.3107972,0.17604 -0.4272139,0.29845 -0.1164167,0.12277 -0.2067278,0.25894 -0.2712861,0.40922 -0.064206,0.15029 -0.096308,0.29845 -0.096308,0.44556 z m -2.6098499,0.66146 c 0,0.18979 0.041275,0.36301 0.1241777,0.51929 0.08255,0.15628 0.1912056,0.28927 0.3259667,0.39969 0.1347611,0.11007 0.2910417,0.19615 0.4688416,0.25718 0.1778,0.0614 0.3615973,0.0917 0.5513919,0.0917 0.257175,0 0.480836,-0.0593 0.67063,-0.17886 0.189795,-0.11959 0.36442,-0.27728 0.523875,-0.47342 l 0.62477,0.47801 c -0.459317,0.59408 -1.102784,0.89147 -1.929695,0.89147 -0.3428996,0 -0.6540496,-0.0586 -0.9327441,-0.17463 -0.2786944,-0.11641 -0.5147027,-0.27728 -0.7073194,-0.4826 -0.1933222,-0.20496 -0.3418417,-0.44697 -0.4459111,-0.72601 -0.1040694,-0.2787 -0.1559278,-0.58032 -0.1559278,-0.90488 0,-0.32491 0.056445,-0.62618 0.1696861,-0.90523 0.1135945,-0.27869 0.2695223,-0.5207 0.4688417,-0.72601 0.1989667,-0.20497 0.4363861,-0.36583 0.7119055,-0.4826 0.2758723,-0.11607 0.5757334,-0.17427 0.9006421,-0.17427 0.385938,0 0.712258,0.0674 0.978605,0.20214 0.2667,0.13476 0.485422,0.31079 0.657225,0.52846 0.17145,0.21731 0.295275,0.46249 0.371828,0.73483 0.07655,0.2727 0.115005,0.54998 0.115005,0.83185 v 0.29387 z"
         style="fill:#251b5b;fill-opacity:1;fill-rule:nonzero;stroke:none;stroke-width:0.35277778"
         id="path402"
         inkscape:connector-curvature="0" />
      <path
         d="m 16.42526,143.14971 c -0.153106,-0.1591 -0.313972,-0.28011 -0.482247,-0.36266 -0.168628,-0.0829 -0.369359,-0.12417 -0.602192,-0.12417 -0.226483,0 -0.424039,0.0413 -0.592314,0.12417 -0.16898,0.0825 -0.309739,0.1958 -0.42298,0.33973 -0.113242,0.14393 -0.198967,0.30939 -0.257175,0.49636 -0.05856,0.18697 -0.08749,0.38135 -0.08749,0.58349 0,0.20214 0.03387,0.3937 0.101247,0.57432 0.06738,0.18063 0.162278,0.33867 0.284692,0.47308 0.122414,0.13511 0.269522,0.24059 0.441325,0.31715 0.17145,0.0769 0.364419,0.11465 0.578908,0.11465 0.232833,0 0.4318,-0.0409 0.597253,-0.12383 0.165453,-0.0825 0.318558,-0.20355 0.459316,-0.363 l 0.588081,0.58808 c -0.214489,0.23918 -0.463903,0.41063 -0.748947,0.5147 -0.284692,0.10407 -0.58667,0.15628 -0.904875,0.15628 -0.337256,0 -0.644878,-0.055 -0.923572,-0.16545 -0.279048,-0.11042 -0.519289,-0.26494 -0.721431,-0.46391 -0.202142,-0.19896 -0.358422,-0.43815 -0.468489,-0.71684 -0.110419,-0.27869 -0.165453,-0.58667 -0.165453,-0.92357 0,-0.33691 0.05503,-0.64629 0.165453,-0.92816 0.110067,-0.28152 0.264936,-0.52388 0.463903,-0.72602 0.198967,-0.20214 0.43815,-0.35983 0.716844,-0.47307 0.278695,-0.11324 0.589492,-0.17004 0.932745,-0.17004 0.318205,0 0.623005,0.0568 0.914047,0.17004 0.291042,0.11324 0.543631,0.2861 0.758119,0.51929 z"
         style="fill:#251b5b;fill-opacity:1;fill-rule:nonzero;stroke:none;stroke-width:0.35277778"
         id="path406"
         inkscape:connector-curvature="0" />
      <path
         d="m 21.966235,146.34778 h -0.826911 v -0.67098 h -0.01835 c -0.104069,0.23283 -0.285044,0.42157 -0.542219,0.56515 -0.257175,0.14428 -0.554567,0.21625 -0.891469,0.21625 -0.214489,0 -0.416631,-0.0325 -0.606073,-0.0967 -0.190147,-0.0646 -0.357363,-0.16404 -0.500944,-0.29845 -0.144286,-0.13476 -0.259292,-0.30798 -0.345017,-0.51929 -0.08573,-0.21131 -0.128411,-0.46108 -0.128411,-0.74895 v -2.80282 h 0.826911 v 2.57316 c 0,0.20215 0.02787,0.37501 0.0829,0.51929 0.05503,0.14394 0.128764,0.26 0.220486,0.3489 0.09208,0.0889 0.197556,0.15311 0.317147,0.19297 0.119239,0.0402 0.243417,0.0596 0.371828,0.0596 0.171803,0 0.331258,-0.0275 0.478014,-0.0825 0.147108,-0.055 0.275519,-0.14252 0.385939,-0.26176 0.110067,-0.11959 0.196144,-0.27129 0.257175,-0.45509 0.06138,-0.18379 0.09207,-0.4011 0.09207,-0.65228 v -2.24226 h 0.826911 z"
         style="fill:#251b5b;fill-opacity:1;fill-rule:nonzero;stroke:none;stroke-width:0.35277778"
         id="path410"
         inkscape:connector-curvature="0" />
      <path
         d="m 23.21595,141.99211 h 0.827264 v 0.67063 h 0.01834 c 0.05503,-0.11606 0.128764,-0.2219 0.220486,-0.31715 0.09172,-0.0945 0.194381,-0.17568 0.307975,-0.24306 0.113242,-0.0677 0.23742,-0.121 0.372181,-0.16122 0.134408,-0.0395 0.269522,-0.0596 0.404283,-0.0596 0.134409,0 0.257175,0.0187 0.367242,0.0554 l -0.03669,0.89111 c -0.06738,-0.0183 -0.134761,-0.0335 -0.202142,-0.0459 -0.06738,-0.0123 -0.134761,-0.0183 -0.202141,-0.0183 -0.404284,0 -0.71367,0.11324 -0.928159,0.33972 -0.214488,0.22684 -0.32138,0.57926 -0.32138,1.05692 v 2.18723 H 23.21595 Z"
         style="fill:#251b5b;fill-opacity:1;fill-rule:nonzero;stroke:none;stroke-width:0.35277778"
         id="path414"
         inkscape:connector-curvature="0" />
      <path
         inkscape:connector-curvature="0"
         id="path416"
         style="fill:#251b5b;fill-opacity:1;fill-rule:nonzero;stroke:none;stroke-width:0.35277778"
         d="m 26.900572,141.99214 h 0.827264 v 4.35575 h -0.827264 z m -0.192616,-1.5621 c 0,-0.16545 0.05962,-0.30797 0.178858,-0.42756 0.119592,-0.11959 0.262114,-0.17886 0.427567,-0.17886 0.165453,0 0.307622,0.0593 0.427214,0.17886 0.119239,0.11959 0.179211,0.26211 0.179211,0.42756 0,0.16546 -0.05997,0.30763 -0.179211,0.42722 -0.119592,0.11924 -0.261761,0.17886 -0.427214,0.17886 -0.165453,0 -0.307975,-0.0596 -0.427567,-0.17886 -0.119239,-0.11959 -0.178858,-0.26176 -0.178858,-0.42722" />
      <path
         d="m 31.789332,142.70885 h -1.185333 v 1.97556 c 0,0.12276 0.0028,0.24341 0.0092,0.363 0.006,0.1196 0.02893,0.22649 0.06914,0.32174 0.03951,0.0949 0.100895,0.17145 0.183798,0.22966 0.08255,0.0582 0.2032,0.0871 0.362655,0.0871 0.09807,0 0.19932,-0.009 0.303389,-0.0275 0.104069,-0.0183 0.198967,-0.0519 0.284692,-0.10124 v 0.75388 c -0.09807,0.055 -0.225073,0.0935 -0.381353,0.11466 -0.155928,0.0215 -0.277283,0.0324 -0.363008,0.0324 -0.318559,0 -0.56515,-0.0448 -0.739775,-0.13335 -0.174273,-0.0889 -0.303037,-0.2039 -0.385587,-0.34466 -0.0829,-0.14076 -0.131938,-0.2988 -0.147108,-0.47308 -0.01552,-0.17462 -0.02293,-0.35066 -0.02293,-0.52846 v -2.26977 h -0.955675 v -0.71684 h 0.955675 v -1.22203 h 0.826911 v 1.22203 h 1.185333 z"
         style="fill:#251b5b;fill-opacity:1;fill-rule:nonzero;stroke:none;stroke-width:0.35277778"
         id="path420"
         inkscape:connector-curvature="0" />
      <path
         d="m 32.680766,141.99211 h 0.955675 l 1.289756,3.39972 h 0.0187 l 1.236839,-3.39972 h 0.882297 l -2.067631,5.29308 c -0.07338,0.18979 -0.149577,0.36265 -0.228952,0.51929 -0.07937,0.15592 -0.17392,0.28892 -0.283634,0.39934 -0.109714,0.11042 -0.242358,0.19615 -0.397933,0.25753 -0.155575,0.061 -0.346428,0.0917 -0.571853,0.0917 -0.122414,0 -0.245886,-0.008 -0.370769,-0.0229 -0.124884,-0.0152 -0.245534,-0.0476 -0.361598,-0.0963 l 0.100542,-0.75388 c 0.164395,0.0674 0.328789,0.10124 0.493183,0.10124 0.127706,0 0.235656,-0.0169 0.324203,-0.0504 0.08784,-0.0339 0.164042,-0.0829 0.228247,-0.14711 0.06385,-0.0642 0.117123,-0.13935 0.159456,-0.22507 0.04269,-0.0861 0.08537,-0.1838 0.128058,-0.29387 l 0.267759,-0.68933 z"
         style="fill:#251b5b;fill-opacity:1;fill-rule:nonzero;stroke:none;stroke-width:0.35277778"
         id="path424"
         inkscape:connector-curvature="0" />
      <path
         d="m 41.410463,144.98779 c 0.159103,0.23883 0.363008,0.41487 0.611011,0.52846 0.248003,0.1136 0.503767,0.16969 0.767292,0.16969 0.147108,0 0.297391,-0.0229 0.450497,-0.0688 0.152753,-0.0459 0.2921,-0.11501 0.418042,-0.20673 0.125236,-0.0921 0.227894,-0.20497 0.307622,-0.34008 0.07973,-0.13476 0.119591,-0.29069 0.119591,-0.46849 0,-0.25118 -0.07973,-0.44273 -0.239183,-0.57432 -0.159103,-0.13194 -0.356658,-0.24201 -0.592314,-0.33091 -0.236008,-0.0885 -0.493536,-0.17462 -0.771877,-0.25717 -0.279048,-0.0825 -0.536223,-0.19791 -0.772231,-0.34502 -0.235656,-0.14675 -0.433211,-0.34431 -0.592667,-0.59231 -0.159102,-0.24836 -0.23883,-0.5835 -0.23883,-1.00612 0,-0.19015 0.04163,-0.39229 0.124178,-0.60678 0.08255,-0.21414 0.212725,-0.41028 0.390525,-0.58773 0.177447,-0.17815 0.405694,-0.32667 0.684741,-0.44591 0.278342,-0.11959 0.613834,-0.17921 1.006122,-0.17921 0.354895,0 0.695325,0.049 1.019881,0.14711 0.324555,0.0977 0.6096,0.29704 0.854428,0.59725 l -0.716492,0.65229 c -0.110419,-0.17145 -0.2667,-0.30904 -0.468842,-0.41346 -0.202141,-0.10407 -0.4318,-0.15593 -0.688975,-0.15593 -0.24518,0 -0.449086,0.0321 -0.611363,0.0963 -0.162278,0.0642 -0.292453,0.14711 -0.390173,0.248 -0.09842,0.10125 -0.167216,0.20991 -0.20708,0.32632 -0.03986,0.11642 -0.05962,0.22366 -0.05962,0.32174 0,0.27552 0.07937,0.48683 0.238831,0.63394 0.159455,0.14675 0.356658,0.26634 0.593019,0.35842 0.235303,0.0917 0.492831,0.17462 0.771878,0.248 0.278342,0.0734 0.535869,0.17639 0.771525,0.30798 0.235656,0.13158 0.433211,0.30938 0.592667,0.53269 0.159455,0.22402 0.239183,0.53164 0.239183,0.92357 0,0.31257 -0.05962,0.59443 -0.179211,0.84561 -0.119592,0.25118 -0.280458,0.46249 -0.482247,0.63394 -0.202495,0.17181 -0.441325,0.30339 -0.717197,0.39511 -0.27552,0.0917 -0.569737,0.13794 -0.881945,0.13794 -0.416983,0 -0.811742,-0.0734 -1.185333,-0.22049 -0.373945,-0.1471 -0.670631,-0.37394 -0.89147,-0.68015 z"
         style="fill:#251b5b;fill-opacity:1;fill-rule:nonzero;stroke:none;stroke-width:0.35277778"
         id="path428"
         inkscape:connector-curvature="0" />
      <path
         d="m 49.349903,143.14971 c -0.153106,-0.1591 -0.314325,-0.28011 -0.4826,-0.36266 -0.168275,-0.0829 -0.369006,-0.12417 -0.601839,-0.12417 -0.226483,0 -0.424392,0.0413 -0.592667,0.12417 -0.168627,0.0825 -0.309386,0.1958 -0.422627,0.33973 -0.113242,0.14393 -0.19932,0.30939 -0.257528,0.49636 -0.05821,0.18697 -0.08714,0.38135 -0.08714,0.58349 0,0.20214 0.03351,0.3937 0.100894,0.57432 0.06738,0.18063 0.162631,0.33867 0.285045,0.47308 0.122414,0.13511 0.269522,0.24059 0.441325,0.31715 0.171097,0.0769 0.364066,0.11465 0.578555,0.11465 0.232834,0 0.4318,-0.0409 0.597606,-0.12383 0.165453,-0.0825 0.318205,-0.20355 0.459316,-0.363 l 0.588081,0.58808 c -0.214489,0.23918 -0.463903,0.41063 -0.748947,0.5147 -0.284692,0.10407 -0.58667,0.15628 -0.904875,0.15628 -0.337256,0 -0.644878,-0.055 -0.923572,-0.16545 -0.279048,-0.11042 -0.519289,-0.26494 -0.721431,-0.46391 -0.202142,-0.19896 -0.358775,-0.43815 -0.468842,-0.71684 -0.110066,-0.27869 -0.1651,-0.58667 -0.1651,-0.92357 0,-0.33691 0.05503,-0.64629 0.1651,-0.92816 0.110067,-0.28152 0.264937,-0.52388 0.464256,-0.72602 0.198967,-0.20214 0.437797,-0.35983 0.716492,-0.47307 0.278694,-0.11324 0.589844,-0.17004 0.933097,-0.17004 0.318205,0 0.623005,0.0568 0.914047,0.17004 0.291042,0.11324 0.543631,0.2861 0.758119,0.51929 z"
         style="fill:#251b5b;fill-opacity:1;fill-rule:nonzero;stroke:none;stroke-width:0.35277778"
         id="path432"
         inkscape:connector-curvature="0" />
      <path
         d="m 51.619499,144.16981 c 0,0.22049 0.03351,0.42439 0.101247,0.61101 0.06738,0.18697 0.161925,0.34608 0.284692,0.47801 0.122414,0.13159 0.272697,0.23566 0.450497,0.31221 0.177447,0.0769 0.376414,0.11501 0.5969,0.11501 0.220839,0 0.419806,-0.0381 0.597606,-0.11501 0.177447,-0.0765 0.32773,-0.18062 0.450144,-0.31221 0.122414,-0.13193 0.217311,-0.29104 0.284692,-0.47801 0.06773,-0.18662 0.101247,-0.39052 0.101247,-0.61101 0,-0.22049 -0.03351,-0.42404 -0.101247,-0.61101 -0.06738,-0.18662 -0.162278,-0.34608 -0.284692,-0.47766 -0.122414,-0.13194 -0.272697,-0.23601 -0.450144,-0.31256 -0.1778,-0.0766 -0.376767,-0.11501 -0.597606,-0.11501 -0.220486,0 -0.419453,0.0385 -0.5969,0.11501 -0.1778,0.0766 -0.328083,0.18062 -0.450497,0.31256 -0.122767,0.13158 -0.217311,0.29104 -0.284692,0.47766 -0.06773,0.18697 -0.101247,0.39052 -0.101247,0.61101 m -0.882297,0 c 0,-0.31856 0.05997,-0.61595 0.179211,-0.89147 0.119592,-0.27552 0.283633,-0.51752 0.491772,-0.72566 0.208139,-0.20814 0.45332,-0.37254 0.734836,-0.49178 0.28187,-0.11959 0.585259,-0.17921 0.909814,-0.17921 0.324908,0 0.628297,0.0596 0.910167,0.17921 0.281516,0.11924 0.526697,0.28364 0.734836,0.49178 0.208139,0.20814 0.37218,0.45014 0.491772,0.72566 0.119239,0.27552 0.179211,0.57291 0.179211,0.89147 0,0.31856 -0.05997,0.61736 -0.179211,0.89606 -0.119592,0.27869 -0.283633,0.5207 -0.491772,0.72601 -0.208139,0.20532 -0.45332,0.3676 -0.734836,0.48684 -0.28187,0.11959 -0.585259,0.17921 -0.910167,0.17921 -0.324555,0 -0.627944,-0.0596 -0.909814,-0.17921 -0.281516,-0.11924 -0.526697,-0.28152 -0.734836,-0.48684 -0.208139,-0.20531 -0.37218,-0.44732 -0.491772,-0.72601 -0.119239,-0.2787 -0.179211,-0.5775 -0.179211,-0.89606"
         style="fill:#251b5b;fill-opacity:1;fill-rule:nonzero;stroke:none;stroke-width:0.35277778"
         id="path436"
         inkscape:connector-curvature="0" />
      <path
         d="m 59.035029,142.70885 h -1.185686 v 1.97556 c 0,0.12276 0.0032,0.24341 0.0095,0.363 0.006,0.1196 0.02893,0.22649 0.06879,0.32174 0.03986,0.0949 0.101247,0.17145 0.18415,0.22966 0.08255,0.0582 0.2032,0.0871 0.362655,0.0871 0.09807,0 0.19932,-0.009 0.303389,-0.0275 0.104069,-0.0183 0.198967,-0.0519 0.284692,-0.10124 v 0.75388 c -0.09807,0.055 -0.225073,0.0935 -0.381353,0.11466 -0.155928,0.0215 -0.277283,0.0324 -0.363008,0.0324 -0.318559,0 -0.56515,-0.0448 -0.739775,-0.13335 -0.174273,-0.0889 -0.303037,-0.2039 -0.385587,-0.34466 -0.0829,-0.14076 -0.131938,-0.2988 -0.147108,-0.47308 -0.01552,-0.17462 -0.02293,-0.35066 -0.02293,-0.52846 v -2.26977 H 56.06711 v -0.71684 h 0.955675 v -1.22203 h 0.826558 v 1.22203 h 1.185686 z"
         style="fill:#251b5b;fill-opacity:1;fill-rule:nonzero;stroke:none;stroke-width:0.35277778"
         id="path440"
         inkscape:connector-curvature="0" />
      <path
         inkscape:connector-curvature="0"
         id="path442"
         style="fill:#251b5b;fill-opacity:1;fill-rule:nonzero;stroke:none;stroke-width:0.35277778"
         d="m 60.422575,139.40064 h 0.826911 v 6.9469 h -0.826911 z" />
      <path
         d="m 64.9896,144.25264 c -0.196144,0 -0.396875,0.0109 -0.602192,0.0321 -0.204964,0.0215 -0.391936,0.0628 -0.560211,0.12418 -0.168628,0.061 -0.306564,0.14676 -0.413808,0.25718 -0.107245,0.11006 -0.160514,0.25117 -0.160514,0.42262 0,0.25118 0.08396,0.4318 0.252589,0.54222 0.168275,0.11007 0.396522,0.1651 0.684389,0.1651 0.226836,0 0.419805,-0.0377 0.579261,-0.11465 0.159103,-0.0765 0.287867,-0.17604 0.385939,-0.29845 0.09772,-0.12241 0.168275,-0.25894 0.211314,-0.40887 0.04269,-0.15028 0.06421,-0.2988 0.06421,-0.44591 v -0.27552 z m -2.333978,-1.72755 c 0.232481,-0.21449 0.502003,-0.37501 0.808567,-0.4826 0.306211,-0.10689 0.612422,-0.16052 0.918986,-0.16052 0.318206,0 0.592667,0.0399 0.822325,0.11924 0.229658,0.0797 0.418042,0.18697 0.56515,0.32174 0.146756,0.13476 0.255764,0.28927 0.326319,0.4639 0.0702,0.17462 0.105481,0.35701 0.105481,0.5468 v 2.22356 c 0,0.15346 0.0028,0.29422 0.0092,0.42298 0.006,0.12877 0.01517,0.25118 0.02752,0.3676 h -0.734836 c -0.01834,-0.22049 -0.02787,-0.44098 -0.02787,-0.66181 h -0.01834 c -0.183797,0.28187 -0.401108,0.48118 -0.652286,0.5976 -0.251178,0.11607 -0.54222,0.17463 -0.873125,0.17463 -0.202142,0 -0.395111,-0.0279 -0.578909,-0.0829 -0.183797,-0.055 -0.344311,-0.13793 -0.482247,-0.248 -0.137936,-0.11042 -0.246591,-0.24659 -0.326319,-0.40922 -0.07973,-0.16193 -0.119592,-0.35031 -0.119592,-0.5648 0,-0.28187 0.06315,-0.51788 0.188383,-0.70767 0.125589,-0.1898 0.297392,-0.34466 0.514703,-0.46426 0.217311,-0.11923 0.471664,-0.20531 0.762706,-0.25717 0.291041,-0.0519 0.601839,-0.078 0.932744,-0.078 h 0.606425 v -0.18415 c 0,-0.11007 -0.02152,-0.22049 -0.06421,-0.33056 -0.04304,-0.11042 -0.107245,-0.2099 -0.19297,-0.2988 -0.08608,-0.0885 -0.192969,-0.1591 -0.321733,-0.21096 -0.128764,-0.0522 -0.281517,-0.0783 -0.459317,-0.0783 -0.159455,0 -0.298803,0.0152 -0.418041,0.0459 -0.119592,0.0307 -0.2286,0.0692 -0.32632,0.11501 -0.09807,0.0459 -0.186972,0.0995 -0.2667,0.16051 -0.07973,0.0617 -0.155928,0.11959 -0.229658,0.17463 z"
         style="fill:#251b5b;fill-opacity:1;fill-rule:nonzero;stroke:none;stroke-width:0.35277778"
         id="path446"
         inkscape:connector-curvature="0" />
      <path
         d="m 67.516512,141.99211 h 0.826911 v 0.67063 h 0.01834 c 0.104069,-0.23248 0.285044,-0.42086 0.542219,-0.56515 0.257175,-0.14393 0.554567,-0.2159 0.891469,-0.2159 0.208139,0 0.40887,0.0321 0.601839,0.0963 0.19297,0.0646 0.361245,0.16439 0.505531,0.2988 0.143933,0.13476 0.258586,0.30798 0.344311,0.51929 0.08573,0.21131 0.128764,0.46108 0.128764,0.74895 v 2.80282 H 70.54899 v -2.57316 c 0,-0.20215 -0.02787,-0.37536 -0.0829,-0.51929 -0.05503,-0.14394 -0.128764,-0.26035 -0.220486,-0.3489 -0.09207,-0.0889 -0.197556,-0.15346 -0.316795,-0.19297 -0.119591,-0.0399 -0.243769,-0.06 -0.37218,-0.06 -0.171803,0 -0.330906,0.0275 -0.478014,0.0829 -0.147108,0.055 -0.275519,0.14252 -0.385939,0.26176 -0.110067,0.11959 -0.196144,0.27094 -0.257175,0.45473 -0.06138,0.18415 -0.09207,0.40146 -0.09207,0.65264 v 2.24226 H 67.51652 Z"
         style="fill:#251b5b;fill-opacity:1;fill-rule:nonzero;stroke:none;stroke-width:0.35277778"
         id="path450"
         inkscape:connector-curvature="0" />
      <path
         d="m 74.702419,145.68594 c 0.220486,0 0.419453,-0.0377 0.597253,-0.11465 0.1778,-0.0766 0.32773,-0.18062 0.450144,-0.31256 0.122767,-0.13159 0.217664,-0.29105 0.285045,-0.47766 0.06738,-0.18662 0.100894,-0.39053 0.100894,-0.61137 0,-0.22013 -0.03351,-0.42404 -0.100894,-0.61101 -0.06738,-0.18662 -0.162278,-0.34607 -0.285045,-0.47766 -0.122414,-0.13159 -0.272344,-0.23601 -0.450144,-0.31221 -0.1778,-0.0769 -0.376767,-0.115 -0.597253,-0.115 -0.220486,0 -0.419453,0.0381 -0.597253,0.115 -0.1778,0.0762 -0.32773,0.18062 -0.450144,0.31221 -0.122767,0.13159 -0.217664,0.29104 -0.285045,0.47766 -0.06738,0.18697 -0.100894,0.39088 -0.100894,0.61101 0,0.22084 0.03351,0.42475 0.100894,0.61137 0.06738,0.18661 0.162278,0.34607 0.285045,0.47766 0.122414,0.13194 0.272344,0.236 0.450144,0.31256 0.1778,0.0769 0.376767,0.11465 0.597253,0.11465 m 2.2606,0.66181 h -0.827264 v -0.62512 h -0.01834 c -0.159456,0.23283 -0.378178,0.41381 -0.656873,0.54257 -0.279047,0.12841 -0.56515,0.19297 -0.859013,0.19297 -0.337256,0 -0.642056,-0.0586 -0.9144,-0.17462 -0.272698,-0.11642 -0.505531,-0.2787 -0.698148,-0.48719 -0.193322,-0.20814 -0.341841,-0.4505 -0.445911,-0.72602 -0.104422,-0.27552 -0.15628,-0.57573 -0.15628,-0.90064 0,-0.32455 0.05186,-0.62618 0.15628,-0.90487 0.10407,-0.2787 0.252589,-0.5207 0.445911,-0.72602 0.192617,-0.20496 0.42545,-0.36583 0.698148,-0.4826 0.272344,-0.11606 0.577144,-0.17427 0.9144,-0.17427 0.312208,0 0.606072,0.066 0.881944,0.19755 0.275872,0.13159 0.487186,0.31115 0.633942,0.53764 h 0.01834 v -3.21628 h 0.827264 z"
         style="fill:#251b5b;fill-opacity:1;fill-rule:nonzero;stroke:none;stroke-width:0.35277778"
         id="path454"
         inkscape:connector-curvature="0" />
      <path
         d="m -21.704831,151.22554 h -4.13138 v 0.58385 h 1.751541 v 5.06906 h 0.62865 v -5.06906 h 1.751189 z"
         style="fill:#695d90;fill-opacity:1;fill-rule:nonzero;stroke:none;stroke-width:0.35277778"
         id="path458"
         inkscape:connector-curvature="0" />
      <path
         d="m -21.180921,154.81283 c 0.03986,-0.29916 0.159808,-0.53869 0.359128,-0.71826 0.199672,-0.17956 0.461433,-0.26952 0.785989,-0.26952 0.324202,0 0.578555,0.09 0.763411,0.26952 0.184503,0.17957 0.281869,0.4191 0.291747,0.71826 z m 2.368903,-1.04387 c -0.147461,-0.15734 -0.323145,-0.27728 -0.527756,-0.35913 -0.204611,-0.0825 -0.42933,-0.12347 -0.673453,-0.12347 -0.259644,0 -0.49918,0.0448 -0.718608,0.13476 -0.21978,0.0896 -0.409222,0.2159 -0.56903,0.37747 -0.159456,0.16228 -0.283987,0.35666 -0.373945,0.58385 -0.08996,0.22719 -0.134761,0.47519 -0.134761,0.74471 0,0.25471 0.04127,0.49425 0.123472,0.71861 0.0822,0.22472 0.199672,0.4191 0.35172,0.58385 0.152047,0.16475 0.337961,0.29563 0.557389,0.39264 0.21978,0.0974 0.466725,0.14605 0.741186,0.14605 0.329494,0 0.618419,-0.0536 0.868186,-0.16086 0.249414,-0.10725 0.478719,-0.29563 0.688622,-0.56515 l -0.441678,-0.34396 c -0.1397,0.17462 -0.297039,0.30656 -0.471664,0.39652 -0.174625,0.09 -0.389114,0.13476 -0.643466,0.13476 -0.159809,0 -0.306917,-0.03 -0.441678,-0.09 -0.134761,-0.06 -0.251883,-0.14076 -0.35172,-0.24306 -0.09984,-0.10231 -0.180975,-0.2219 -0.243063,-0.35948 -0.06244,-0.13723 -0.09878,-0.28046 -0.108656,-0.43004 h 2.828925 v -0.18732 c 0,-0.28928 -0.03986,-0.54751 -0.119592,-0.7747 -0.08008,-0.22719 -0.193322,-0.4191 -0.34043,-0.57609"
         style="fill:#695d90;fill-opacity:1;fill-rule:nonzero;stroke:none;stroke-width:0.35277778"
         id="path462"
         inkscape:connector-curvature="0" />
      <path
         d="m -15.153078,155.41911 c -0.0049,0.14464 -0.02999,0.28081 -0.07479,0.40781 -0.04515,0.12735 -0.109714,0.23813 -0.194733,0.33302 -0.08502,0.0949 -0.190853,0.1711 -0.318206,0.22825 -0.127,0.0575 -0.275519,0.0861 -0.445205,0.0861 -0.219781,0 -0.402873,-0.0459 -0.549981,-0.13829 -0.147461,-0.0924 -0.220839,-0.248 -0.220839,-0.46778 0,-0.23954 0.109714,-0.4117 0.329142,-0.51647 0.219428,-0.10478 0.516467,-0.15699 0.890764,-0.15699 h 0.583847 z m 0.583847,0.85302 v -1.50389 c 0,-0.49883 -0.115005,-0.87101 -0.344664,-1.11514 -0.229305,-0.24482 -0.603602,-0.36688 -1.122539,-0.36688 -0.254352,0 -0.504825,0.0437 -0.752122,0.13088 -0.246944,0.0875 -0.460375,0.2233 -0.639939,0.40781 l 0.366889,0.38206 c 0.1397,-0.12983 0.300567,-0.22613 0.4826,-0.28858 0.182034,-0.0621 0.367947,-0.0935 0.557742,-0.0935 0.274108,0 0.487539,0.0649 0.639586,0.19473 0.1524,0.12982 0.2286,0.32173 0.2286,0.57644 v 0.10442 h -0.224719 c -0.214489,0 -0.450145,0.0102 -0.706967,0.0303 -0.257528,0.0198 -0.496711,0.0699 -0.718961,0.14958 -0.221897,0.0797 -0.407459,0.20179 -0.557389,0.36653 -0.149578,0.16475 -0.22472,0.39194 -0.22472,0.68087 0,0.17003 0.03528,0.31961 0.105128,0.44943 0.06985,0.12983 0.163336,0.23813 0.280459,0.32562 0.117122,0.0871 0.254352,0.15346 0.411691,0.19826 0.157339,0.0448 0.325614,0.0674 0.505178,0.0674 0.269522,0 0.500239,-0.0575 0.69215,-0.17251 0.192264,-0.1143 0.345722,-0.26176 0.460375,-0.44132 h 0.01517 c 0,0.0748 0.0011,0.16086 0.0035,0.25823 0.0025,0.0974 0.01376,0.18591 0.03387,0.26564 h 0.561269 c -0.01482,-0.0896 -0.02752,-0.18838 -0.03739,-0.29563 -0.01023,-0.10724 -0.01482,-0.21096 -0.01482,-0.31079"
         style="fill:#695d90;fill-opacity:1;fill-rule:nonzero;stroke:none;stroke-width:0.35277778"
         id="path466"
         inkscape:connector-curvature="0" />
      <path
         d="m -11.762848,153.28636 c -0.144639,0 -0.2794,0.0187 -0.404283,0.0561 -0.124884,0.0374 -0.237067,0.0871 -0.33655,0.14923 -0.09984,0.0628 -0.185914,0.13405 -0.258586,0.21378 -0.07197,0.0797 -0.128412,0.16228 -0.168275,0.24659 h -0.01482 c 0,-0.0995 -0.0025,-0.19685 -0.0074,-0.29175 -0.0053,-0.0945 -0.0074,-0.18944 -0.0074,-0.28433 h -0.553861 c 0,0.11465 0.0049,0.242 0.01482,0.3817 0.0099,0.1397 0.01517,0.28963 0.01517,0.44909 v 2.67194 h 0.583495 v -1.70639 c 0,-0.40428 0.08114,-0.72249 0.243416,-0.95426 0.161925,-0.23213 0.422981,-0.3482 0.782109,-0.3482 0.109361,0 0.214489,0.0152 0.314325,0.0452 l 0.03739,-0.59126 c -0.03986,-0.0152 -0.07973,-0.025 -0.119592,-0.03 -0.04022,-0.005 -0.08008,-0.007 -0.119944,-0.007"
         style="fill:#695d90;fill-opacity:1;fill-rule:nonzero;stroke:none;stroke-width:0.35277778"
         id="path470"
         inkscape:connector-curvature="0" />
      <path
         d="m -8.3949492,155.41911 c -0.00494,0.14464 -0.029986,0.28081 -0.074789,0.40781 -0.045155,0.12735 -0.1097139,0.23813 -0.1947333,0.33302 -0.085019,0.0949 -0.1908528,0.1711 -0.3182056,0.22825 -0.127,0.0575 -0.2755194,0.0861 -0.4452055,0.0861 -0.2197806,0 -0.4028722,-0.0459 -0.5499806,-0.13829 -0.1474608,-0.0924 -0.2208388,-0.248 -0.2208388,-0.46778 0,-0.23954 0.109714,-0.4117 0.3291416,-0.51647 0.2194278,-0.10478 0.5164667,-0.15699 0.8907639,-0.15699 h 0.5838472 z m 0.5838472,0.85302 v -1.50389 c 0,-0.49883 -0.1150055,-0.87101 -0.3443111,-1.11514 -0.2296583,-0.24482 -0.6036028,-0.36688 -1.1228916,-0.36688 -0.2543528,0 -0.504825,0.0437 -0.7521223,0.13088 -0.246944,0.0875 -0.460375,0.2233 -0.639939,0.40781 l 0.366889,0.38206 c 0.1397,-0.12983 0.300567,-0.22613 0.4826001,-0.28858 0.1820333,-0.0621 0.3679472,-0.0935 0.5577416,-0.0935 0.2741083,0 0.4875389,0.0649 0.6395861,0.19473 0.1524,0.12982 0.2286,0.32173 0.2286,0.57644 v 0.10442 h -0.2247194 c -0.2144889,0 -0.4501445,0.0102 -0.7069667,0.0303 -0.2575278,0.0198 -0.4967111,0.0699 -0.7189607,0.14958 -0.221898,0.0797 -0.407459,0.20179 -0.557389,0.36653 -0.149578,0.16475 -0.224367,0.39194 -0.224367,0.68087 0,0.17003 0.03492,0.31961 0.104775,0.44943 0.06985,0.12983 0.163336,0.23813 0.280458,0.32562 0.117123,0.0871 0.254353,0.15346 0.411692,0.19826 0.1573389,0.0448 0.3256139,0.0674 0.5051778,0.0674 0.2695222,0 0.5002389,-0.0575 0.69215,-0.17251 0.1922639,-0.1143 0.3457222,-0.26176 0.460375,-0.44132 h 0.015169 c 0,0.0748 0.00106,0.16086 0.00353,0.25823 0.00247,0.0974 0.013758,0.18591 0.033867,0.26564 h 0.5612694 c -0.014817,-0.0896 -0.027517,-0.18838 -0.037394,-0.29563 -0.010231,-0.10724 -0.014817,-0.21096 -0.014817,-0.31079"
         style="fill:#695d90;fill-opacity:1;fill-rule:nonzero;stroke:none;stroke-width:0.35277778"
         id="path474"
         inkscape:connector-curvature="0" />
      <path
         d="m -6.4116326,151.5798 c -0.1199444,0 -0.2208389,0.0427 -0.3033889,0.12735 -0.082197,0.0847 -0.1234722,0.18451 -0.1234722,0.29916 0,0.12488 0.039864,0.22719 0.1199444,0.30691 0.079728,0.0797 0.1820334,0.1196 0.3069167,0.1196 0.1245306,0 0.2268361,-0.0399 0.3065639,-0.1196 0.079728,-0.0797 0.1199444,-0.18203 0.1199444,-0.30691 0,-0.11465 -0.041275,-0.21449 -0.1234722,-0.29916 -0.082197,-0.0847 -0.1834444,-0.12735 -0.3030361,-0.12735"
         style="fill:#695d90;fill-opacity:1;fill-rule:nonzero;stroke:none;stroke-width:0.35277778"
         id="path478"
         inkscape:connector-curvature="0" />
      <path
         inkscape:connector-curvature="0"
         id="path480"
         style="fill:#695d90;fill-opacity:1;fill-rule:nonzero;stroke:none;stroke-width:0.35277778"
         d="m -6.7036268,156.87866 h 0.5838472 v -3.50238 h -0.5838472 z" />
      <path
         d="m -2.2431046,153.68292 c -0.1097139,-0.12453 -0.2483556,-0.2219 -0.4152194,-0.2921 -0.1675695,-0.0699 -0.3658306,-0.10442 -0.5951361,-0.10442 -0.1449917,0 -0.2794,0.0187 -0.4042834,0.0561 -0.1245305,0.0374 -0.2370666,0.0871 -0.33655,0.14922 -0.1001888,0.0628 -0.1859138,0.13371 -0.2585861,0.21343 -0.072319,0.0801 -0.1284111,0.16228 -0.168275,0.24695 h -0.014817 c 0,-0.0995 -0.00247,-0.19685 -0.00776,-0.29175 -0.00494,-0.0949 -0.00706,-0.18944 -0.00706,-0.28434 H -5.004649 c 0,0.11466 0.00494,0.24201 0.014817,0.38171 0.00988,0.1397 0.014817,0.28963 0.014817,0.44908 v 2.67159 h 0.5838473 v -1.70603 c 0,-0.19967 0.021167,-0.38171 0.0635,-0.54646 0.042686,-0.16474 0.1075972,-0.30691 0.1947333,-0.4265 0.087136,-0.11995 0.1993194,-0.21202 0.3369028,-0.27693 0.1372305,-0.0649 0.3005666,-0.0974 0.4900083,-0.0974 0.2744611,0 0.47625,0.0847 0.606425,0.25435 0.1298222,0.16969 0.1943805,0.40182 0.1943805,0.69603 v 2.10291 h 0.5838472 v -2.16288 c 0,-0.20955 -0.026106,-0.40287 -0.078669,-0.57961 -0.052211,-0.17745 -0.13335,-0.32844 -0.2430639,-0.45297"
         style="fill:#695d90;fill-opacity:1;fill-rule:nonzero;stroke:none;stroke-width:0.35277778"
         id="path484"
         inkscape:connector-curvature="0" />
      <path
         d="m 0.93016667,156.39959 c -0.0899583,0.0198 -0.17709444,0.03 -0.26211388,0.03 -0.12946944,0 -0.22930555,-0.0215 -0.29915555,-0.0635 -0.06985,-0.0427 -0.12241389,-0.0998 -0.15733889,-0.17251 -0.034925,-0.072 -0.0546805,-0.15699 -0.0596194,-0.25435 -0.005292,-0.0974 -0.007761,-0.2032 -0.007761,-0.31786 v -1.75154 H 1.1771112 v -0.49389 H 0.1441778 v -0.99518 h -0.58384721 v 0.99518 H -1.2027277 v 0.49389 h 0.76305829 v 1.92335 c 0,0.17956 0.0112889,0.34325 0.0338667,0.49036 0.0225778,0.14746 0.0684389,0.27058 0.13864166,0.37077 0.0694972,0.0998 0.16686388,0.17674 0.29174721,0.23177 0.12453056,0.055 0.29174722,0.0822 0.50164999,0.0822 0.10936111,0 0.225425,-0.01 0.34783888,-0.0296 0.12206111,-0.0201 0.23318607,-0.0526 0.33302217,-0.0974 l -0.022578,-0.53129 c -0.079728,0.0399 -0.1643944,0.0695 -0.2543527,0.0896"
         style="fill:#695d90;fill-opacity:1;fill-rule:nonzero;stroke:none;stroke-width:0.35277778"
         id="path488"
         inkscape:connector-curvature="0" />
      <path
         d="m 2.4643972,154.81283 c 0.039864,-0.29916 0.1598083,-0.53869 0.3591278,-0.71826 0.1996722,-0.17956 0.4614333,-0.26952 0.7859888,-0.26952 0.3242028,0 0.5785556,0.09 0.7634111,0.26952 0.1845028,0.17957 0.2818695,0.4191 0.2917473,0.71826 z m 2.3685499,-1.04387 c -0.1471083,-0.15734 -0.3231444,-0.27728 -0.5277555,-0.35913 -0.2046111,-0.0825 -0.4289778,-0.12347 -0.6734528,-0.12347 -0.2592916,0 -0.4988277,0.0448 -0.7186083,0.13476 -0.2194277,0.0896 -0.4088694,0.2159 -0.5686777,0.37747 -0.1598084,0.16228 -0.2843389,0.35666 -0.3739445,0.58385 -0.089958,0.22719 -0.1351139,0.47519 -0.1351139,0.74471 0,0.25471 0.041275,0.49425 0.123825,0.71861 0.082197,0.22472 0.1993195,0.4191 0.3517195,0.58385 0.1520472,0.16475 0.3379611,0.29563 0.5577416,0.39264 0.2194278,0.0974 0.4663722,0.14605 0.7408333,0.14605 0.3291417,0 0.6184195,-0.0536 0.8681861,-0.16086 0.2490611,-0.10725 0.4787195,-0.29563 0.6882695,-0.56515 l -0.441325,-0.34396 c -0.1400528,0.17462 -0.2970389,0.30656 -0.4716639,0.39652 -0.174625,0.09 -0.3891139,0.13476 -0.6434667,0.13476 -0.1598083,0 -0.3069166,-0.03 -0.4416777,-0.09 -0.1347611,-0.06 -0.2518834,-0.14076 -0.3517195,-0.24306 -0.099836,-0.10231 -0.180975,-0.2219 -0.2430638,-0.35948 -0.062442,-0.13723 -0.098778,-0.28046 -0.1086556,-0.43004 h 2.8289249 v -0.18732 c 0,-0.28928 -0.040217,-0.54751 -0.1199444,-0.7747 -0.079728,-0.22719 -0.1929694,-0.4191 -0.3404306,-0.57609"
         style="fill:#695d90;fill-opacity:1;fill-rule:nonzero;stroke:none;stroke-width:0.35277778"
         id="path492"
         inkscape:connector-curvature="0" />
      <path
         d="m 8.4143118,155.41911 c -0.00494,0.14464 -0.029986,0.28081 -0.074789,0.40781 -0.045155,0.12735 -0.1097139,0.23813 -0.1947333,0.33302 -0.085019,0.0949 -0.1908528,0.1711 -0.3182056,0.22825 -0.127,0.0575 -0.2755194,0.0861 -0.4452055,0.0861 -0.2197806,0 -0.4028722,-0.0459 -0.5499806,-0.13829 -0.1474611,-0.0924 -0.2208388,-0.248 -0.2208388,-0.46778 0,-0.23954 0.1097138,-0.4117 0.3291416,-0.51647 0.2194278,-0.10478 0.5164667,-0.15699 0.8907639,-0.15699 h 0.5838472 z m 0.5838472,0.85302 v -1.50389 c 0,-0.49883 -0.1150055,-0.87101 -0.3443111,-1.11514 -0.2296583,-0.24482 -0.6036028,-0.36688 -1.1228916,-0.36688 -0.2543528,0 -0.504825,0.0437 -0.7521222,0.13088 -0.2469445,0.0875 -0.460375,0.2233 -0.6399389,0.40781 l 0.3668889,0.38206 c 0.1397,-0.12983 0.3005666,-0.22613 0.4826,-0.28858 0.1820333,-0.0621 0.3679472,-0.0935 0.5577416,-0.0935 0.2744611,0 0.4875389,0.0649 0.6395861,0.19473 0.1524,0.12982 0.2286,0.32173 0.2286,0.57644 v 0.10442 H 8.1895924 c -0.2144889,0 -0.4501445,0.0102 -0.7069667,0.0303 -0.257175,0.0198 -0.4967111,0.0699 -0.7186083,0.14958 -0.2218972,0.0797 -0.4078111,0.20179 -0.5577417,0.36653 -0.1495777,0.16475 -0.2243666,0.39194 -0.2243666,0.68087 0,0.17003 0.034925,0.31961 0.104775,0.44943 0.06985,0.12983 0.1633361,0.23813 0.2804583,0.32562 0.1171222,0.0871 0.2543528,0.15346 0.4116917,0.19826 0.1573388,0.0448 0.3256138,0.0674 0.5051777,0.0674 0.2695222,0 0.5002389,-0.0575 0.6925028,-0.17251 0.1919111,-0.1143 0.3453694,-0.26176 0.4600222,-0.44132 h 0.015169 c 0,0.0748 0.00106,0.16086 0.00353,0.25823 0.00247,0.0974 0.013758,0.18591 0.033867,0.26564 h 0.5612694 c -0.014817,-0.0896 -0.027517,-0.18838 -0.037394,-0.29563 -0.010231,-0.10724 -0.014817,-0.21096 -0.014817,-0.31079"
         style="fill:#695d90;fill-opacity:1;fill-rule:nonzero;stroke:none;stroke-width:0.35277778"
         id="path496"
         inkscape:connector-curvature="0" />
      <path
         d="m 10.790446,154.20679 c 0.09737,-0.11994 0.220839,-0.21343 0.370417,-0.28081 0.149577,-0.0674 0.321733,-0.1009 0.516466,-0.1009 0.174625,0 0.334081,0.0335 0.479073,0.1009 0.144286,0.0674 0.2794,0.17604 0.404283,0.32561 l 0.46355,-0.41134 c -0.174625,-0.18979 -0.377825,-0.32949 -0.6096,-0.41945 -0.232128,-0.0896 -0.478014,-0.13441 -0.737306,-0.13441 -0.269522,0 -0.515408,0.0459 -0.737305,0.13829 -0.221897,0.0924 -0.41275,0.22084 -0.572559,0.38524 -0.159455,0.16474 -0.28328,0.35948 -0.3704162,0.58384 -0.087136,0.22437 -0.1308806,0.4692 -0.1308806,0.73343 0,0.26952 0.043744,0.51646 0.1308806,0.74083 0.087136,0.22472 0.2095502,0.41945 0.3665362,0.5842 0.157339,0.16439 0.348192,0.29175 0.572911,0.38135 0.224367,0.09 0.471311,0.13476 0.740833,0.13476 0.254353,0 0.496359,-0.0448 0.726017,-0.13476 0.229306,-0.0896 0.428978,-0.23212 0.598664,-0.42686 l -0.43427,-0.41134 c -0.20955,0.28963 -0.506236,0.43392 -0.890411,0.43392 -0.179564,0 -0.341841,-0.0332 -0.48648,-0.10089 -0.144992,-0.0674 -0.268111,-0.16087 -0.370417,-0.28082 -0.102305,-0.11959 -0.182386,-0.25788 -0.239536,-0.41522 -0.0575,-0.15733 -0.08608,-0.32526 -0.08608,-0.50517 0,-0.17957 0.02469,-0.34784 0.07479,-0.50518 0.04974,-0.15699 0.123472,-0.29528 0.220839,-0.41522"
         style="fill:#695d90;fill-opacity:1;fill-rule:nonzero;stroke:none;stroke-width:0.35277778"
         id="path500"
         inkscape:connector-curvature="0" />
      <path
         d="m 16.669276,153.68292 c -0.109714,-0.12453 -0.248356,-0.2219 -0.415572,-0.2921 -0.166864,-0.0699 -0.365478,-0.10442 -0.594784,-0.10442 -0.134761,0 -0.262113,0.0173 -0.381705,0.0522 -0.119945,0.0349 -0.228247,0.0797 -0.325614,0.13476 -0.09737,0.0547 -0.180975,0.11571 -0.250825,0.18309 -0.06985,0.0674 -0.124531,0.13617 -0.164394,0.20602 h -0.01517 v -2.64195 h -0.583494 v 5.65785 h 0.583494 v -1.70603 c 0,-0.19967 0.02117,-0.38171 0.0635,-0.54646 0.04269,-0.16474 0.107597,-0.30691 0.194733,-0.4265 0.08714,-0.11995 0.19932,-0.21202 0.336903,-0.27693 0.137231,-0.0649 0.300567,-0.0974 0.490009,-0.0974 0.274461,0 0.47625,0.0847 0.606425,0.25435 0.129822,0.16969 0.19438,0.40182 0.19438,0.69603 v 2.10291 h 0.583847 v -2.16288 c 0,-0.20955 -0.0261,-0.40287 -0.07867,-0.57961 -0.05221,-0.17745 -0.13335,-0.32844 -0.243064,-0.45297"
         style="fill:#695d90;fill-opacity:1;fill-rule:nonzero;stroke:none;stroke-width:0.35277778"
         id="path504"
         inkscape:connector-curvature="0" />
      <path
         d="m 20.849128,155.64009 c -0.0575,0.15699 -0.141111,0.29457 -0.250825,0.41134 -0.109714,0.11747 -0.240594,0.2099 -0.392994,0.27693 -0.152048,0.0677 -0.322792,0.10125 -0.512587,0.10125 -0.189794,0 -0.360538,-0.0335 -0.512586,-0.10125 -0.1524,-0.067 -0.28328,-0.15946 -0.392994,-0.27693 -0.109714,-0.11677 -0.193322,-0.25435 -0.250472,-0.41134 -0.05786,-0.15734 -0.08608,-0.32808 -0.08608,-0.51294 0,-0.1845 0.02822,-0.35525 0.08608,-0.51258 0.05715,-0.15699 0.140758,-0.29422 0.250472,-0.4117 0.109714,-0.11712 0.240594,-0.20955 0.392994,-0.27693 0.152048,-0.0674 0.322792,-0.10089 0.512586,-0.10089 0.189795,0 0.360539,0.0335 0.512587,0.10089 0.1524,0.0674 0.28328,0.15981 0.392994,0.27693 0.109714,0.11748 0.193322,0.25471 0.250825,0.4117 0.0575,0.15733 0.08608,0.32808 0.08608,0.51258 0,0.18486 -0.02858,0.3556 -0.08608,0.51294 m 0.08608,-1.75507 h -0.01517 c -0.159808,-0.18979 -0.345369,-0.3369 -0.557389,-0.44168 -0.212019,-0.10477 -0.445205,-0.15698 -0.699911,-0.15698 -0.274461,0 -0.524933,0.0459 -0.752122,0.13829 -0.227189,0.0924 -0.420158,0.22083 -0.579967,0.38523 -0.159808,0.16475 -0.284338,0.35948 -0.374297,0.5842 -0.0896,0.22401 -0.134761,0.46884 -0.134761,0.73307 0,0.26458 0.04516,0.50906 0.134761,0.73378 0.08996,0.22437 0.213431,0.41875 0.370417,0.58349 0.157339,0.16475 0.343253,0.29316 0.557742,0.38559 0.214488,0.0924 0.444147,0.13829 0.688622,0.13829 0.314325,0 0.589844,-0.0684 0.826911,-0.20567 0.237067,-0.13723 0.41028,-0.30586 0.519994,-0.50518 h 0.01517 v 0.62089 h 0.583847 v -5.65785 h -0.583847 z"
         style="fill:#695d90;fill-opacity:1;fill-rule:nonzero;stroke:none;stroke-width:0.35277778"
         id="path508"
         inkscape:connector-curvature="0" />
      <path
         d="m 27.779307,154.38618 c -0.147108,-0.11465 -0.316794,-0.20955 -0.508706,-0.28434 -0.192263,-0.0748 -0.390525,-0.14464 -0.595136,-0.20955 -0.20955,-0.0646 -0.386644,-0.12982 -0.531283,-0.19438 -0.144992,-0.0649 -0.259644,-0.13476 -0.344311,-0.20955 -0.08502,-0.0748 -0.14605,-0.1584 -0.183445,-0.25082 -0.03739,-0.0921 -0.05609,-0.19862 -0.05609,-0.31821 0,-0.15452 0.03246,-0.28892 0.09737,-0.40393 0.06491,-0.11465 0.150637,-0.20708 0.258234,-0.27693 0.107244,-0.0699 0.228247,-0.12241 0.362655,-0.15734 0.135114,-0.0349 0.271992,-0.0522 0.412045,-0.0522 0.189441,0 0.371475,0.0388 0.5461,0.11571 0.174625,0.0776 0.314325,0.20144 0.4191,0.37077 l 0.516466,-0.44909 c -0.194733,-0.2293 -0.415219,-0.39052 -0.662516,-0.4826 -0.246945,-0.0924 -0.519995,-0.13864 -0.81915,-0.13864 -0.23495,0 -0.459317,0.0328 -0.673806,0.0974 -0.214489,0.0649 -0.406753,0.16087 -0.576086,0.28787 -0.169686,0.12735 -0.304447,0.28575 -0.404283,0.47554 -0.09984,0.18944 -0.149578,0.41134 -0.149578,0.66604 0,0.21978 0.03351,0.40782 0.100895,0.5648 0.06738,0.15734 0.159808,0.2921 0.27693,0.40428 0.117122,0.11254 0.255764,0.20709 0.415572,0.28434 0.159456,0.0773 0.334081,0.14605 0.523522,0.20603 0.234598,0.0801 0.439209,0.14957 0.613834,0.20955 0.174625,0.0596 0.319264,0.12735 0.433916,0.20214 0.114653,0.0748 0.199673,0.16333 0.254706,0.26529 0.05468,0.10265 0.0822,0.23636 0.0822,0.40075 0,0.14958 -0.03492,0.28187 -0.104775,0.39688 -0.06985,0.11465 -0.159455,0.2106 -0.269522,0.28786 -0.109714,0.0773 -0.233186,0.13618 -0.370064,0.17569 -0.137583,0.0402 -0.273403,0.06 -0.408164,0.06 -0.229305,0 -0.446616,-0.0497 -0.650875,-0.14958 -0.204611,-0.0998 -0.364419,-0.24694 -0.479425,-0.44168 l -0.538691,0.44168 c 0.0896,0.13476 0.197202,0.248 0.321733,0.34043 0.124883,0.0924 0.258233,0.16722 0.400403,0.22472 0.142522,0.0571 0.290689,0.0998 0.445558,0.127 0.154517,0.0275 0.309386,0.0413 0.463903,0.0413 0.239536,0 0.471664,-0.031 0.69603,-0.0935 0.22472,-0.0624 0.422981,-0.15699 0.595136,-0.28434 0.171803,-0.12735 0.310445,-0.28822 0.41522,-0.4826 0.104775,-0.19473 0.156986,-0.42439 0.156986,-0.68897 0,-0.2593 -0.04339,-0.4752 -0.130881,-0.647 -0.08714,-0.17251 -0.204611,-0.31573 -0.351719,-0.43074"
         style="fill:#695d90;fill-opacity:1;fill-rule:nonzero;stroke:none;stroke-width:0.35277778"
         id="path512"
         inkscape:connector-curvature="0" />
      <path
         d="m 31.9968,153.68292 c -0.110067,-0.12453 -0.248356,-0.2219 -0.415219,-0.2921 -0.16757,-0.0699 -0.365831,-0.10442 -0.595137,-0.10442 -0.134761,0 -0.262113,0.0173 -0.382058,0.0522 -0.119592,0.0349 -0.227894,0.0797 -0.325261,0.13476 -0.09737,0.0547 -0.180975,0.11571 -0.250825,0.18309 -0.06985,0.0674 -0.124883,0.13617 -0.164747,0.20602 h -0.01482 v -2.64195 h -0.583847 v 5.65785 h 0.583847 v -1.70603 c 0,-0.19967 0.02117,-0.38171 0.0635,-0.54646 0.04233,-0.16474 0.107245,-0.30691 0.194733,-0.4265 0.08714,-0.11995 0.19932,-0.21202 0.336903,-0.27693 0.137231,-0.0649 0.300214,-0.0974 0.490009,-0.0974 0.274461,0 0.47625,0.0847 0.606425,0.25435 0.129822,0.16969 0.19438,0.40182 0.19438,0.69603 v 2.10291 h 0.583847 v -2.16288 c 0,-0.20955 -0.02611,-0.40287 -0.07867,-0.57961 -0.05256,-0.17745 -0.13335,-0.32844 -0.243064,-0.45297"
         style="fill:#695d90;fill-opacity:1;fill-rule:nonzero;stroke:none;stroke-width:0.35277778"
         id="path516"
         inkscape:connector-curvature="0" />
      <path
         d="m 36.139187,155.64009 c -0.0575,0.15699 -0.141111,0.29457 -0.250472,0.41134 -0.110067,0.11747 -0.240947,0.2099 -0.393347,0.27693 -0.152048,0.0677 -0.322792,0.10125 -0.512587,0.10125 -0.189794,0 -0.360538,-0.0335 -0.512586,-0.10125 -0.152047,-0.067 -0.282927,-0.15946 -0.392994,-0.27693 -0.109714,-0.11677 -0.193322,-0.25435 -0.250472,-0.41134 -0.0575,-0.15734 -0.08608,-0.32808 -0.08608,-0.51294 0,-0.1845 0.02858,-0.35525 0.08608,-0.51258 0.05715,-0.15699 0.140758,-0.29422 0.250472,-0.4117 0.110067,-0.11712 0.240947,-0.20955 0.392994,-0.27693 0.152048,-0.0674 0.322792,-0.10089 0.512586,-0.10089 0.189795,0 0.360539,0.0335 0.512587,0.10089 0.1524,0.0674 0.28328,0.15981 0.393347,0.27693 0.109361,0.11748 0.192969,0.25471 0.250472,0.4117 0.0575,0.15733 0.08608,0.32808 0.08608,0.51258 0,0.18486 -0.02858,0.3556 -0.08608,0.51294 m 0.183444,-1.8415 c -0.164747,-0.16157 -0.36195,-0.28787 -0.591255,-0.37747 -0.229658,-0.09 -0.479072,-0.13476 -0.748595,-0.13476 -0.269169,0 -0.518936,0.0448 -0.748241,0.13476 -0.229659,0.0896 -0.426861,0.2159 -0.591256,0.37747 -0.164747,0.16228 -0.294569,0.35595 -0.389114,0.58032 -0.0949,0.22437 -0.142169,0.47413 -0.142169,0.74824 0,0.27446 0.04727,0.52388 0.142169,0.7486 0.09454,0.22436 0.224367,0.41804 0.389114,0.57996 0.164395,0.16228 0.361597,0.28822 0.591256,0.37783 0.229305,0.09 0.479072,0.13476 0.748241,0.13476 0.269523,0 0.518937,-0.0448 0.748595,-0.13476 0.229305,-0.0896 0.426508,-0.21555 0.591255,-0.37783 0.164748,-0.16192 0.294217,-0.3556 0.389114,-0.57996 0.0949,-0.22472 0.14217,-0.47414 0.14217,-0.7486 0,-0.27411 -0.04727,-0.52387 -0.14217,-0.74824 -0.0949,-0.22437 -0.224366,-0.41804 -0.389114,-0.58032"
         style="fill:#695d90;fill-opacity:1;fill-rule:nonzero;stroke:none;stroke-width:0.35277778"
         id="path520"
         inkscape:connector-curvature="0" />
      <path
         d="m 38.073785,151.5798 c -0.119944,0 -0.220839,0.0427 -0.303036,0.12735 -0.0822,0.0847 -0.123472,0.18451 -0.123472,0.29916 0,0.12488 0.03986,0.22719 0.119944,0.30691 0.07973,0.0797 0.182033,0.1196 0.306564,0.1196 0.124531,0 0.226836,-0.0399 0.306917,-0.1196 0.07973,-0.0797 0.119944,-0.18203 0.119944,-0.30691 0,-0.11465 -0.04128,-0.21449 -0.123825,-0.29916 -0.0822,-0.0847 -0.183092,-0.12735 -0.303036,-0.12735"
         style="fill:#695d90;fill-opacity:1;fill-rule:nonzero;stroke:none;stroke-width:0.35277778"
         id="path524"
         inkscape:connector-curvature="0" />
      <path
         inkscape:connector-curvature="0"
         id="path526"
         style="fill:#695d90;fill-opacity:1;fill-rule:nonzero;stroke:none;stroke-width:0.35277778"
         d="m 37.782003,156.87866 h 0.583494 v -3.50238 h -0.583494 z" />
      <path
         d="m 41.69766,155.12726 c -0.105128,-0.0797 -0.227189,-0.14323 -0.366889,-0.19085 -0.139347,-0.0473 -0.286808,-0.0861 -0.441678,-0.11607 -0.114652,-0.0197 -0.225777,-0.0448 -0.333022,-0.0748 -0.107244,-0.03 -0.201789,-0.0649 -0.284339,-0.10477 -0.0822,-0.0399 -0.147108,-0.0861 -0.19438,-0.13829 -0.04762,-0.0526 -0.07126,-0.11642 -0.07126,-0.19085 0,-0.0797 0.02117,-0.15099 0.0635,-0.21343 0.04233,-0.0624 0.09631,-0.1136 0.161219,-0.15346 0.06491,-0.0399 0.138289,-0.0695 0.220839,-0.09 0.0822,-0.0198 0.162983,-0.0296 0.243064,-0.0296 0.174625,0 0.323144,0.0388 0.445558,0.11606 0.121708,0.0773 0.220486,0.17815 0.295275,0.30304 l 0.486481,-0.32174 c -0.119592,-0.22472 -0.28575,-0.38664 -0.49777,-0.48683 -0.212019,-0.0995 -0.442736,-0.14922 -0.69215,-0.14922 -0.164747,0 -0.324555,0.0219 -0.479072,0.067 -0.154869,0.0448 -0.294217,0.10972 -0.418747,0.19438 -0.124884,0.0854 -0.22472,0.19227 -0.299509,0.32174 -0.07514,0.13017 -0.112536,0.27975 -0.112536,0.44944 0,0.17956 0.03387,0.32667 0.101248,0.44167 0.06738,0.11466 0.157338,0.20814 0.269522,0.28046 0.11183,0.0727 0.243064,0.13088 0.392641,0.17569 0.149931,0.0452 0.306917,0.085 0.471664,0.11994 0.09455,0.0201 0.187325,0.0423 0.276931,0.0674 0.08996,0.025 0.169686,0.0589 0.239183,0.10089 0.0702,0.0427 0.126295,0.0935 0.168628,0.15346 0.04233,0.06 0.0635,0.13759 0.0635,0.23213 0,0.0949 -0.02222,0.17604 -0.06738,0.24306 -0.0448,0.0677 -0.104775,0.12383 -0.179563,0.16863 -0.07479,0.0448 -0.158398,0.0773 -0.250473,0.0974 -0.09243,0.0197 -0.183444,0.0296 -0.273402,0.0296 -0.20955,0 -0.383117,-0.042 -0.519995,-0.127 -0.13723,-0.0847 -0.263172,-0.19967 -0.378178,-0.34431 l -0.463902,0.35913 c 0.174625,0.24941 0.370416,0.42051 0.587727,0.51294 0.216959,0.0921 0.475192,0.13829 0.774348,0.13829 0.174625,0 0.345369,-0.0198 0.512586,-0.06 0.167216,-0.0399 0.317147,-0.10336 0.449086,-0.19085 0.132291,-0.0871 0.238478,-0.20073 0.318205,-0.34043 0.07973,-0.1397 0.119945,-0.30938 0.119945,-0.50906 0,-0.17427 -0.03034,-0.32173 -0.08996,-0.44132 -0.05997,-0.11959 -0.142169,-0.21978 -0.246944,-0.29951"
         style="fill:#695d90;fill-opacity:1;fill-rule:nonzero;stroke:none;stroke-width:0.35277778"
         id="path530"
         inkscape:connector-curvature="0" />
      <path
         d="m 43.388876,154.81283 c 0.03986,-0.29916 0.159808,-0.53869 0.359481,-0.71826 0.199319,-0.17956 0.461433,-0.26952 0.785636,-0.26952 0.324202,0 0.578555,0.09 0.763411,0.26952 0.184503,0.17957 0.281869,0.4191 0.2921,0.71826 z m 2.368903,-1.04387 c -0.147461,-0.15734 -0.323145,-0.27728 -0.527756,-0.35913 -0.204611,-0.0825 -0.428978,-0.12347 -0.673453,-0.12347 -0.259644,0 -0.498827,0.0448 -0.718608,0.13476 -0.21978,0.0896 -0.409222,0.2159 -0.568678,0.37747 -0.159808,0.16228 -0.284339,0.35666 -0.374297,0.58385 -0.0896,0.22719 -0.134761,0.47519 -0.134761,0.74471 0,0.25471 0.04127,0.49425 0.123472,0.71861 0.08255,0.22472 0.199672,0.4191 0.35172,0.58385 0.152047,0.16475 0.337961,0.29563 0.557741,0.39264 0.219428,0.0974 0.466373,0.14605 0.740834,0.14605 0.329494,0 0.618772,-0.0536 0.868186,-0.16086 0.249414,-0.10725 0.479072,-0.29563 0.688622,-0.56515 l -0.441678,-0.34396 c -0.1397,0.17462 -0.296686,0.30656 -0.471664,0.39652 -0.174625,0.09 -0.389114,0.13476 -0.643466,0.13476 -0.159809,0 -0.306917,-0.03 -0.441325,-0.09 -0.134761,-0.06 -0.252236,-0.14076 -0.352073,-0.24306 -0.09984,-0.10231 -0.180622,-0.2219 -0.243063,-0.35948 -0.06244,-0.13723 -0.09878,-0.28046 -0.108656,-0.43004 h 2.829278 v -0.18732 c 0,-0.28928 -0.04022,-0.54751 -0.119945,-0.7747 -0.07973,-0.22719 -0.193322,-0.4191 -0.34043,-0.57609"
         style="fill:#695d90;fill-opacity:1;fill-rule:nonzero;stroke:none;stroke-width:0.35277778"
         id="path534"
         inkscape:connector-curvature="0" />
      <path
         d="m 49.338826,155.41911 c -0.0049,0.14464 -0.02999,0.28081 -0.07479,0.40781 -0.04516,0.12735 -0.109714,0.23813 -0.19438,0.33302 -0.08502,0.0949 -0.190853,0.1711 -0.318206,0.22825 -0.127353,0.0575 -0.275872,0.0861 -0.445206,0.0861 -0.21978,0 -0.403225,-0.0459 -0.550333,-0.13829 -0.147461,-0.0924 -0.220839,-0.248 -0.220839,-0.46778 0,-0.23954 0.109714,-0.4117 0.329495,-0.51647 0.219427,-0.10478 0.516466,-0.15699 0.890411,-0.15699 h 0.583847 z m 0.583847,0.85302 v -1.50389 c 0,-0.49883 -0.115005,-0.87101 -0.344311,-1.11514 -0.229658,-0.24482 -0.603955,-0.36688 -1.122539,-0.36688 -0.254353,0 -0.505178,0.0437 -0.752122,0.13088 -0.247297,0.0875 -0.460375,0.2233 -0.639939,0.40781 l 0.366536,0.38206 c 0.1397,-0.12983 0.30092,-0.22613 0.4826,-0.28858 0.182386,-0.0621 0.3683,-0.0935 0.557742,-0.0935 0.274461,0 0.487892,0.0649 0.639939,0.19473 0.1524,0.12982 0.228247,0.32173 0.228247,0.57644 v 0.10442 h -0.224367 c -0.214841,0 -0.450144,0.0102 -0.707319,0.0303 -0.257175,0.0198 -0.496358,0.0699 -0.718608,0.14958 -0.221898,0.0797 -0.407812,0.20179 -0.557389,0.36653 -0.149931,0.16475 -0.22472,0.39194 -0.22472,0.68087 0,0.17003 0.03493,0.31961 0.105128,0.44943 0.0695,0.12983 0.162983,0.23813 0.280458,0.32562 0.117123,0.0871 0.254353,0.15346 0.411692,0.19826 0.156986,0.0448 0.325261,0.0674 0.504825,0.0674 0.269522,0 0.500239,-0.0575 0.692503,-0.17251 0.191911,-0.1143 0.345369,-0.26176 0.460022,-0.44132 h 0.01517 c 0,0.0748 0.0014,0.16086 0.0039,0.25823 0.0025,0.0974 0.01376,0.18591 0.03351,0.26564 H 49.9749 c -0.01482,-0.0896 -0.02752,-0.18838 -0.03739,-0.29563 -0.0099,-0.10724 -0.01482,-0.21096 -0.01482,-0.31079"
         style="fill:#695d90;fill-opacity:1;fill-rule:nonzero;stroke:none;stroke-width:0.35277778"
         id="path538"
         inkscape:connector-curvature="0" />
      <path
         inkscape:connector-curvature="0"
         id="path540"
         style="fill:#695d90;fill-opacity:1;fill-rule:nonzero;stroke:none;stroke-width:0.35277778"
         d="m 50.992825,156.87866 h 0.583494 v -5.65785 h -0.583494 z" />
      <path
         d="m 54.607633,156.39959 c -0.08996,0.0198 -0.177094,0.03 -0.261761,0.03 -0.129822,0 -0.229658,-0.0215 -0.299508,-0.0635 -0.06985,-0.0427 -0.122414,-0.0998 -0.157339,-0.17251 -0.03492,-0.072 -0.05468,-0.15699 -0.05962,-0.25435 -0.0053,-0.0974 -0.0078,-0.2032 -0.0078,-0.31786 v -1.75154 h 1.032933 v -0.49389 h -1.032933 v -0.99518 h -0.583847 v 0.99518 H 52.4747 v 0.49389 h 0.763058 v 1.92335 c 0,0.17956 0.01129,0.34325 0.03387,0.49036 0.02258,0.14746 0.06844,0.27058 0.138641,0.37077 0.0695,0.0998 0.166864,0.17674 0.291747,0.23177 0.124531,0.055 0.291748,0.0822 0.50165,0.0822 0.109362,0 0.225425,-0.01 0.347839,-0.0296 0.122061,-0.0201 0.233186,-0.0526 0.333023,-0.0974 l -0.02258,-0.53129 c -0.07973,0.0399 -0.164395,0.0695 -0.254353,0.0896"
         style="fill:#695d90;fill-opacity:1;fill-rule:nonzero;stroke:none;stroke-width:0.35277778"
         id="path544"
         inkscape:connector-curvature="0" />
      <path
         d="m 58.050356,155.41911 c -0.0049,0.14464 -0.02999,0.28081 -0.07479,0.40781 -0.04516,0.12735 -0.109714,0.23813 -0.194733,0.33302 -0.08502,0.0949 -0.190853,0.1711 -0.318206,0.22825 -0.127,0.0575 -0.275519,0.0861 -0.445205,0.0861 -0.219781,0 -0.402873,-0.0459 -0.549981,-0.13829 -0.147461,-0.0924 -0.220839,-0.248 -0.220839,-0.46778 0,-0.23954 0.109714,-0.4117 0.329142,-0.51647 0.219428,-0.10478 0.516467,-0.15699 0.890764,-0.15699 h 0.583847 z m 0.583847,0.85302 v -1.50389 c 0,-0.49883 -0.115005,-0.87101 -0.344311,-1.11514 -0.229658,-0.24482 -0.603603,-0.36688 -1.122892,-0.36688 -0.254352,0 -0.504825,0.0437 -0.752122,0.13088 -0.246944,0.0875 -0.460375,0.2233 -0.639939,0.40781 l 0.366889,0.38206 c 0.1397,-0.12983 0.300567,-0.22613 0.4826,-0.28858 0.182034,-0.0621 0.367947,-0.0935 0.557742,-0.0935 0.274461,0 0.487539,0.0649 0.639586,0.19473 0.1524,0.12982 0.2286,0.32173 0.2286,0.57644 v 0.10442 h -0.224367 c -0.214841,0 -0.450497,0.0102 -0.707319,0.0303 -0.257175,0.0198 -0.496711,0.0699 -0.718608,0.14958 -0.221898,0.0797 -0.407812,0.20179 -0.557742,0.36653 -0.149578,0.16475 -0.224367,0.39194 -0.224367,0.68087 0,0.17003 0.03493,0.31961 0.104775,0.44943 0.06985,0.12983 0.163336,0.23813 0.280459,0.32562 0.117122,0.0871 0.254352,0.15346 0.411691,0.19826 0.157339,0.0448 0.325614,0.0674 0.505178,0.0674 0.269522,0 0.500239,-0.0575 0.692503,-0.17251 0.191911,-0.1143 0.345369,-0.26176 0.460022,-0.44132 h 0.01517 c 0,0.0748 0.0011,0.16086 0.0035,0.25823 0.0025,0.0974 0.01376,0.18591 0.03387,0.26564 h 0.561269 c -0.01482,-0.0896 -0.02752,-0.18838 -0.03739,-0.29563 -0.01023,-0.10724 -0.01482,-0.21096 -0.01482,-0.31079"
         style="fill:#695d90;fill-opacity:1;fill-rule:nonzero;stroke:none;stroke-width:0.35277778"
         id="path548"
         inkscape:connector-curvature="0" />
      <path
         d="m 63.139598,154.99264 1.099961,-2.60456 h 0.01517 l 1.04775,2.60456 z m 0.830792,-3.41277 -2.335036,5.29872 h 0.710847 l 0.546453,-1.30246 h 2.649361 l 0.538691,1.30246 h 0.733425 l -2.252839,-5.29872 z"
         style="fill:#695d90;fill-opacity:1;fill-rule:nonzero;stroke:none;stroke-width:0.35277778"
         id="path552"
         inkscape:connector-curvature="0" />
      <path
         inkscape:connector-curvature="0"
         id="path554"
         style="fill:#695d90;fill-opacity:1;fill-rule:nonzero;stroke:none;stroke-width:0.35277778"
         d="m 67.652402,156.87866 h 0.583495 v -5.65785 h -0.583495 z" />
      <path
         d="m 72.378566,155.64009 c -0.0575,0.15699 -0.141111,0.29457 -0.250825,0.41134 -0.109714,0.11747 -0.240594,0.2099 -0.392994,0.27693 -0.152048,0.0677 -0.322792,0.10125 -0.512587,0.10125 -0.189794,0 -0.360186,-0.0335 -0.512586,-0.10125 -0.1524,-0.067 -0.28328,-0.15946 -0.392994,-0.27693 -0.109714,-0.11677 -0.193322,-0.25435 -0.250472,-0.41134 -0.0575,-0.15734 -0.08608,-0.32808 -0.08608,-0.51294 0,-0.1845 0.02858,-0.35525 0.08608,-0.51258 0.05715,-0.15699 0.140758,-0.29422 0.250472,-0.4117 0.109714,-0.11712 0.240594,-0.20955 0.392994,-0.27693 0.1524,-0.0674 0.322792,-0.10089 0.512586,-0.10089 0.189795,0 0.360539,0.0335 0.512587,0.10089 0.1524,0.0674 0.28328,0.15981 0.392994,0.27693 0.109714,0.11748 0.193322,0.25471 0.250825,0.4117 0.0575,0.15733 0.08608,0.32808 0.08608,0.51258 0,0.18486 -0.02858,0.3556 -0.08608,0.51294 m 0.205669,-1.83021 c -0.159455,-0.1644 -0.352777,-0.29281 -0.579966,-0.38523 -0.227189,-0.0924 -0.477661,-0.13829 -0.752122,-0.13829 -0.254353,0 -0.487892,0.0522 -0.699559,0.15698 -0.212372,0.10478 -0.397933,0.25189 -0.557741,0.44168 h -0.01482 v -2.66453 H 69.39618 v 5.65785 h 0.583847 v -0.62089 h 0.01482 c 0.109713,0.19932 0.282927,0.36795 0.520347,0.50518 0.236714,0.13723 0.512586,0.20567 0.826911,0.20567 0.244475,0 0.47378,-0.0459 0.688269,-0.13829 0.214842,-0.0924 0.400403,-0.22084 0.557742,-0.38559 0.156986,-0.16474 0.280811,-0.35912 0.370417,-0.58349 0.08996,-0.22472 0.134761,-0.4692 0.134761,-0.73378 0,-0.26423 -0.0448,-0.50906 -0.134761,-0.73307 -0.08961,-0.22472 -0.214489,-0.41945 -0.374298,-0.5842"
         style="fill:#695d90;fill-opacity:1;fill-rule:nonzero;stroke:none;stroke-width:0.35277778"
         id="path558"
         inkscape:connector-curvature="0" />
      <path
         d="m 76.206804,155.41911 c -0.0049,0.14464 -0.02999,0.28081 -0.07479,0.40781 -0.04515,0.12735 -0.109714,0.23813 -0.194733,0.33302 -0.08502,0.0949 -0.190853,0.1711 -0.318206,0.22825 -0.127,0.0575 -0.275519,0.0861 -0.445205,0.0861 -0.219781,0 -0.402873,-0.0459 -0.549981,-0.13829 -0.147461,-0.0924 -0.220839,-0.248 -0.220839,-0.46778 0,-0.23954 0.109714,-0.4117 0.329142,-0.51647 0.219428,-0.10478 0.516467,-0.15699 0.890764,-0.15699 h 0.583847 z m 0.598664,1.16381 c -0.01023,-0.10724 -0.01517,-0.21096 -0.01517,-0.31079 v -1.50389 c 0,-0.49883 -0.114652,-0.87101 -0.344311,-1.11514 -0.229305,-0.24482 -0.603602,-0.36688 -1.122539,-0.36688 -0.254352,0 -0.504825,0.0437 -0.752122,0.13088 -0.246944,0.0875 -0.460375,0.2233 -0.639939,0.40781 l 0.366889,0.38206 c 0.1397,-0.12983 0.300567,-0.22613 0.4826,-0.28858 0.182034,-0.0621 0.367947,-0.0935 0.557742,-0.0935 0.274461,0 0.487539,0.0649 0.639586,0.19473 0.1524,0.12982 0.2286,0.32173 0.2286,0.57644 v 0.10442 h -0.224719 c -0.214489,0 -0.450145,0.0102 -0.706967,0.0303 -0.257175,0.0198 -0.496711,0.0699 -0.718608,0.14958 -0.221898,0.0797 -0.407812,0.20179 -0.557389,0.36653 -0.149931,0.16475 -0.225073,0.39194 -0.225073,0.68087 0,0.17003 0.03528,0.31961 0.105128,0.44943 0.06985,0.12983 0.163336,0.23813 0.280459,0.32562 0.117122,0.0871 0.254705,0.15346 0.411691,0.19826 0.157339,0.0448 0.325614,0.0674 0.505178,0.0674 0.269522,0 0.500239,-0.0575 0.69215,-0.17251 0.192264,-0.1143 0.345722,-0.26176 0.460375,-0.44132 h 0.01517 c 0,0.0748 0.0011,0.16086 0.0035,0.25823 0.0025,0.0974 0.01376,0.18591 0.03387,0.26564 h 0.561269 c -0.01482,-0.0896 -0.02752,-0.18838 -0.03739,-0.29563"
         style="fill:#695d90;fill-opacity:1;fill-rule:nonzero;stroke:none;stroke-width:0.35277778"
         id="path562"
         inkscape:connector-curvature="0" />
      <path
         d="m -19.581144,152.7452 -0.676275,-0.93557 h -0.772583 l 0.929569,0.93557 z"
         style="fill:#695d90;fill-opacity:1;fill-rule:nonzero;stroke:none;stroke-width:0.35277778"
         id="path566"
         inkscape:connector-curvature="0" />
      <path
         d="m 35.493322,152.75956 -0.686506,-0.95003 h -0.784225 l 0.943681,0.95003 z"
         style="fill:#695d90;fill-opacity:1;fill-rule:nonzero;stroke:none;stroke-width:0.35277778"
         id="path570"
         inkscape:connector-curvature="0" />
    </g>
  </g>
</svg>
