<svg width="175" height="59" viewBox="0 0 175 59" xmlns="http://www.w3.org/2000/svg"><defs><path id="a" d="M.018.075h174.86v58.907H.018z"/><path id="c" d="M.033.12h67.98v44.188H.032z"/></defs><g fill="none" fill-rule="evenodd"><g transform="translate(0 -.016)"><mask id="b" fill="#fff"><use xlink:href="#a"/></mask><path fill="#07818C" mask="url(#b)" d="M174.878 59V31.234L174.86.074H0V59h174.878"/></g><path d="M17.973 13.05a3.582 3.582 0 0 0-.525-.391 6.437 6.437 0 0 0-.925-.484 8.034 8.034 0 0 0-1.183-.402 5.173 5.173 0 0 0-1.296-.164c-.78 0-1.364.144-1.748.432-.384.288-.576.693-.576 1.215 0 .302.072.553.216.752.144.199.354.373.628.524.274.151.62.288 1.038.412.418.123.901.254 1.45.391.713.193 1.36.398 1.943.618.583.22 1.077.494 1.481.823a3.4 3.4 0 0 1 .936 1.184c.22.46.33 1.025.33 1.698 0 .783-.148 1.452-.443 2.007a3.702 3.702 0 0 1-1.193 1.348c-.5.344-1.077.594-1.727.752a8.699 8.699 0 0 1-2.047.237c-1.097 0-2.18-.165-3.249-.494-1.07-.33-2.03-.795-2.88-1.4l1.255-2.45c.123.124.347.285.668.483.323.2.703.399 1.142.598.439.2.926.368 1.46.504a6.6 6.6 0 0 0 1.646.206c1.563 0 2.344-.501 2.344-1.502 0-.316-.089-.584-.268-.804-.177-.219-.43-.411-.76-.576a7.28 7.28 0 0 0-1.193-.453c-.466-.137-.987-.288-1.563-.453-.7-.192-1.306-.401-1.82-.627a4.791 4.791 0 0 1-1.286-.804 3.002 3.002 0 0 1-.77-1.07c-.172-.404-.258-.888-.258-1.452 0-.74.137-1.4.411-1.976a3.988 3.988 0 0 1 1.142-1.44 5.179 5.179 0 0 1 1.696-.876 7.022 7.022 0 0 1 2.078-.298c1.028 0 1.974.162 2.838.485.864.321 1.617.702 2.262 1.142l-1.254 2.305M26.59 24.043c-.878 0-1.666-.151-2.365-.453a5.307 5.307 0 0 1-1.78-1.224 5.424 5.424 0 0 1-1.12-1.782 5.816 5.816 0 0 1-.391-2.12c0-.754.13-1.468.39-2.14a5.408 5.408 0 0 1 1.122-1.781 5.304 5.304 0 0 1 1.779-1.225c.7-.302 1.487-.453 2.365-.453.877 0 1.662.151 2.355.453.692.302 1.282.71 1.768 1.225.487.514.86 1.108 1.121 1.78.26.673.391 1.387.391 2.14 0 .742-.131 1.449-.39 2.121a5.529 5.529 0 0 1-1.111 1.782c-.48.514-1.07.923-1.77 1.224-.698.302-1.487.453-2.364.453m-2.817-5.58c0 .481.071.917.215 1.308.144.391.343.731.597 1.019a2.61 2.61 0 0 0 2.005.906 2.61 2.61 0 0 0 1.11-.237c.343-.158.641-.38.895-.669.253-.288.452-.63.597-1.03.143-.397.216-.836.216-1.316 0-.467-.073-.9-.216-1.297a3.19 3.19 0 0 0-.597-1.03 2.682 2.682 0 0 0-.895-.67 2.637 2.637 0 0 0-1.11-.235c-.398 0-.768.082-1.11.247-.344.164-.642.39-.895.679a3.176 3.176 0 0 0-.597 1.03c-.144.398-.215.83-.215 1.296M50.817 23.837H48.06v-6.052c0-.865-.147-1.496-.442-1.894-.296-.398-.703-.597-1.224-.597-.549 0-1.063.21-1.543.628-.479.419-.823.964-1.027 1.636v6.279h-2.757v-6.052c0-.865-.147-1.496-.442-1.894-.295-.398-.702-.597-1.224-.597-.534 0-1.045.206-1.531.618-.488.411-.834.953-1.04 1.626v6.299h-2.755V13.05h2.488v1.997c.398-.7.943-1.239 1.635-1.616.693-.378 1.484-.566 2.376-.566.905 0 1.604.22 2.097.658.494.44.81.981.947 1.627.438-.741.993-1.307 1.666-1.698.671-.391 1.44-.587 2.303-.587.658 0 1.2.123 1.624.37.425.248.754.57.988.968.233.398.394.851.483 1.359.089.507.134 1.022.134 1.543v6.732M58.22 24.043c-.863 0-1.645-.148-2.345-.443a5.378 5.378 0 0 1-1.789-1.204 5.335 5.335 0 0 1-1.141-1.77 5.676 5.676 0 0 1-.401-2.12c0-.769.13-1.494.39-2.173.261-.68.638-1.276 1.132-1.79a5.385 5.385 0 0 1 1.8-1.225c.706-.302 1.497-.453 2.374-.453.879 0 1.663.151 2.356.453a5.43 5.43 0 0 1 1.768 1.214 5.188 5.188 0 0 1 1.11 1.77c.255.673.382 1.373.382 2.1 0 .179-.004.35-.012.515a2.073 2.073 0 0 1-.05.412h-8.33c.041.425.144.803.308 1.132.165.329.378.61.638.844.26.234.556.412.885.536.329.123.671.185 1.028.185a3.18 3.18 0 0 0 1.553-.402c.486-.267.819-.62.997-1.06l2.365.659c-.398.823-1.031 1.499-1.902 2.027-.871.529-1.91.793-3.116.793m2.797-6.506c-.068-.809-.367-1.457-.894-1.944-.528-.487-1.17-.731-1.923-.731a2.736 2.736 0 0 0-1.893.74 2.842 2.842 0 0 0-.606.845 2.98 2.98 0 0 0-.278 1.09h5.594M71.959 15.438c-.837.014-1.584.175-2.242.484-.658.309-1.131.772-1.42 1.39v6.525h-2.755V13.05h2.53v2.306c.191-.371.417-.704.678-.999.26-.295.542-.552.843-.772.302-.219.608-.387.916-.504.309-.117.607-.175.895-.175h.34c.074 0 .146.007.215.02v2.512M77.573 24.043c-.905 0-1.79-.144-2.653-.432-.864-.289-1.604-.7-2.221-1.235l1.028-1.73c.658.467 1.3.82 1.923 1.06.624.24 1.244.36 1.862.36.547 0 .979-.102 1.295-.308a.995.995 0 0 0 .473-.886c0-.383-.185-.665-.556-.843-.37-.179-.973-.384-1.809-.618a24.26 24.26 0 0 1-1.79-.556c-.493-.178-.891-.38-1.193-.607a2.074 2.074 0 0 1-.657-.782c-.137-.296-.206-.649-.206-1.06 0-.55.106-1.043.319-1.482.212-.44.51-.814.894-1.122.384-.31.833-.546 1.347-.711a5.487 5.487 0 0 1 1.677-.247c.809 0 1.566.117 2.273.35a5.546 5.546 0 0 1 1.942 1.133l-1.11 1.667c-.549-.412-1.08-.714-1.594-.906a4.354 4.354 0 0 0-1.532-.288c-.466 0-.856.096-1.173.288-.315.192-.472.501-.472.926 0 .193.038.35.113.474a.988.988 0 0 0 .36.33c.164.096.38.188.648.277.266.09.6.182.997.278a21.4 21.4 0 0 1 1.902.576c.528.193.96.412 1.296.659.336.247.583.532.74.855.158.323.237.71.237 1.163 0 1.057-.39 1.89-1.172 2.501-.782.61-1.844.916-3.188.916M88.72 24.043c-.864 0-1.646-.148-2.345-.443a5.375 5.375 0 0 1-1.79-1.204 5.344 5.344 0 0 1-1.14-1.77 5.694 5.694 0 0 1-.402-2.12c0-.769.13-1.494.391-2.173.26-.68.638-1.276 1.132-1.79a5.39 5.39 0 0 1 1.8-1.225c.705-.302 1.497-.453 2.374-.453.878 0 1.663.151 2.355.453a5.427 5.427 0 0 1 1.769 1.214 5.188 5.188 0 0 1 1.11 1.77 5.89 5.89 0 0 1 .381 2.1c0 .179-.004.35-.01.515a2.095 2.095 0 0 1-.051.412h-8.33c.04.425.144.803.308 1.132.165.329.378.61.638.844.26.234.555.412.884.536.329.123.672.185 1.029.185.548 0 1.065-.135 1.553-.402.486-.267.818-.62.997-1.06l2.365.659c-.398.823-1.032 1.499-1.903 2.027-.87.529-1.91.793-3.115.793m2.797-6.506c-.069-.809-.367-1.457-.894-1.944-.529-.487-1.17-.731-1.924-.731a2.737 2.737 0 0 0-1.892.74 2.842 2.842 0 0 0-.607.845 2.98 2.98 0 0 0-.277 1.09h5.594M102.417 23.281c-.37.165-.823.33-1.357.495a5.714 5.714 0 0 1-1.687.246c-.384 0-.744-.048-1.08-.144a2.342 2.342 0 0 1-.883-.463 2.262 2.262 0 0 1-.608-.824c-.15-.335-.226-.744-.226-1.224V15.17h-1.42V13.05h1.42v-3.5h2.756v3.5h2.262v2.12h-2.262v5.27c0 .385.1.656.299.814.197.157.441.236.729.236.289 0 .57-.048.844-.144.274-.096.493-.178.658-.247l.555 2.182M113.399 9.262h2.612l1.645 4.838 1.645-4.838h2.633l-2.488 6.65 1.85 4.672 4.134-11.363h3.085l-5.944 14.616h-2.385l-2.53-6.134-2.53 6.134h-2.385L106.839 9.22h3.043l4.154 11.363 1.81-4.672-2.447-6.65M133.43 24.043c-.863 0-1.645-.148-2.344-.443a5.374 5.374 0 0 1-1.79-1.204 5.33 5.33 0 0 1-1.14-1.77 5.676 5.676 0 0 1-.402-2.12c0-.769.13-1.494.39-2.173.261-.68.639-1.276 1.132-1.79a5.386 5.386 0 0 1 1.8-1.225c.706-.302 1.497-.453 2.375-.453.878 0 1.663.151 2.355.453a5.427 5.427 0 0 1 1.768 1.214 5.189 5.189 0 0 1 1.111 1.77 5.89 5.89 0 0 1 .38 2.1c0 .179-.003.35-.01.515a2.119 2.119 0 0 1-.05.412h-8.33c.04.425.144.803.308 1.132.165.329.377.61.637.844.261.234.556.412.885.536.33.123.672.185 1.029.185.548 0 1.065-.135 1.553-.402.486-.267.818-.62.996-1.06l2.366.659c-.398.823-1.032 1.499-1.903 2.027-.87.529-1.909.793-3.115.793m2.797-6.506c-.07-.809-.367-1.457-.895-1.944-.528-.487-1.17-.731-1.923-.731a2.737 2.737 0 0 0-1.892.74 2.836 2.836 0 0 0-.607.845c-.158.33-.25.693-.277 1.09h5.594M144.824 24.043c-.905 0-1.79-.144-2.653-.432-.864-.289-1.604-.7-2.221-1.235l1.029-1.73c.657.467 1.298.82 1.922 1.06.624.24 1.244.36 1.862.36.547 0 .98-.102 1.295-.308a.994.994 0 0 0 .473-.886c0-.383-.185-.665-.555-.843-.37-.179-.973-.384-1.81-.618a24.26 24.26 0 0 1-1.789-.556c-.494-.178-.892-.38-1.194-.607a2.076 2.076 0 0 1-.657-.782c-.137-.296-.206-.649-.206-1.06 0-.55.106-1.043.32-1.482.211-.44.51-.814.893-1.122a4.14 4.14 0 0 1 1.347-.711 5.488 5.488 0 0 1 1.677-.247c.81 0 1.566.117 2.273.35a5.551 5.551 0 0 1 1.943 1.133l-1.111 1.667c-.549-.412-1.08-.714-1.593-.906a4.354 4.354 0 0 0-1.533-.288c-.466 0-.856.096-1.172.288-.315.192-.473.501-.473.926 0 .193.038.35.113.474a.99.99 0 0 0 .36.33c.164.096.38.188.648.277.267.09.6.182.997.278a21.4 21.4 0 0 1 1.903.576c.527.193.959.412 1.295.659.336.247.583.532.74.855.158.323.237.71.237 1.163 0 1.057-.39 1.89-1.172 2.501-.782.61-1.844.916-3.188.916M11.947 46.344a4.09 4.09 0 0 1-1.46-.258 3.496 3.496 0 0 1-1.173-.72 3.363 3.363 0 0 1-.771-1.08 3.285 3.285 0 0 1-.278-1.36c0-.507.114-.977.34-1.41.226-.432.54-.799.946-1.1a4.682 4.682 0 0 1 1.45-.711 6.321 6.321 0 0 1 1.85-.257c.48 0 .95.041 1.41.123.459.082.866.199 1.223.35v-.618c0-.713-.202-1.262-.607-1.647-.404-.384-1.004-.576-1.8-.576-.575 0-1.138.103-1.686.31a7.813 7.813 0 0 0-1.686.906l-.843-1.751c1.385-.919 2.879-1.38 4.483-1.38 1.549 0 2.753.381 3.61 1.144.857.761 1.285 1.862 1.285 3.303v3.356c0 .288.052.494.154.617.103.124.27.193.504.206v2.347a6.14 6.14 0 0 1-1.214.144c-.52 0-.922-.117-1.203-.35a1.504 1.504 0 0 1-.524-.926l-.062-.597a4.768 4.768 0 0 1-1.748 1.44 5.015 5.015 0 0 1-2.2.495m.781-2.017a3.6 3.6 0 0 0 1.327-.247c.418-.165.743-.384.976-.66.302-.232.453-.493.453-.781v-1.236a6.818 6.818 0 0 0-1.07-.298 5.8 5.8 0 0 0-1.11-.113c-.713 0-1.295.16-1.748.484-.453.323-.679.73-.679 1.225 0 .466.178.854.535 1.162.356.31.795.464 1.316.464M30.827 46.138H28.07v-6.052c0-.865-.152-1.496-.453-1.894-.302-.398-.72-.597-1.255-.597-.274 0-.555.055-.843.165-.287.11-.559.264-.813.463a3.786 3.786 0 0 0-.689.71 2.821 2.821 0 0 0-.452.906v6.299h-2.755V35.351h2.488v1.997c.398-.686.973-1.222 1.728-1.605.753-.385 1.604-.577 2.55-.577.671 0 1.22.123 1.645.37.425.248.754.57.988.968.232.398.393.852.482 1.359.09.507.135 1.022.135 1.543v6.732M37.695 46.344c-.74 0-1.426-.144-2.057-.432a4.845 4.845 0 0 1-1.624-1.194 5.572 5.572 0 0 1-1.06-1.781 6.201 6.201 0 0 1-.38-2.192c0-.782.12-1.51.36-2.182.24-.673.572-1.263.998-1.771a4.6 4.6 0 0 1 1.521-1.194 4.346 4.346 0 0 1 1.933-.432c.796 0 1.512.192 2.15.576a4.179 4.179 0 0 1 1.491 1.503V31.11h2.756v11.857c0 .288.048.494.144.617.095.124.26.193.494.206v2.347c-.48.096-.871.144-1.173.144-.494 0-.898-.123-1.213-.37a1.36 1.36 0 0 1-.535-.968l-.061-.68a3.912 3.912 0 0 1-1.615 1.555 4.584 4.584 0 0 1-2.129.525m.72-2.347a2.8 2.8 0 0 0 1.563-.515c.233-.164.442-.356.627-.576.186-.22.325-.46.422-.72v-2.574a3.06 3.06 0 0 0-.462-.834 3.467 3.467 0 0 0-.679-.658 3.598 3.598 0 0 0-.803-.443 2.283 2.283 0 0 0-.833-.164c-.41 0-.791.09-1.14.267-.35.179-.65.422-.895.731-.247.308-.44.663-.577 1.06-.137.399-.205.81-.205 1.236 0 .452.075.871.226 1.254.15.385.356.722.617 1.01a2.818 2.818 0 0 0 2.14.926M62.045 34.013h-4.668v12.125H54.56V34.013H49.89v-2.491h12.155v2.491M64.267 46.344a4.088 4.088 0 0 1-1.46-.258 3.5 3.5 0 0 1-1.173-.72 3.362 3.362 0 0 1-.772-1.08 3.28 3.28 0 0 1-.277-1.36c0-.507.113-.977.34-1.41.225-.432.54-.799.946-1.1a4.682 4.682 0 0 1 1.45-.711 6.32 6.32 0 0 1 1.85-.257c.48 0 .95.041 1.409.123.46.082.867.199 1.224.35v-.618c0-.713-.203-1.262-.607-1.647-.405-.384-1.005-.576-1.8-.576-.576 0-1.138.103-1.686.31a7.813 7.813 0 0 0-1.686.906l-.843-1.751c1.384-.919 2.879-1.38 4.483-1.38 1.549 0 2.753.381 3.609 1.144.857.761 1.286 1.862 1.286 3.303v3.356c0 .288.051.494.153.617.103.124.271.193.505.206v2.347a6.143 6.143 0 0 1-1.214.144c-.521 0-.922-.117-1.203-.35a1.504 1.504 0 0 1-.524-.926l-.062-.597a4.77 4.77 0 0 1-1.748 1.44 5.015 5.015 0 0 1-2.2.495m.781-2.017c.466 0 .908-.083 1.326-.247.418-.165.744-.384.977-.66.302-.232.453-.493.453-.781v-1.236a6.818 6.818 0 0 0-1.07-.298 5.8 5.8 0 0 0-1.11-.113c-.713 0-1.296.16-1.748.484-.453.323-.679.73-.679 1.225 0 .466.178.854.535 1.162.356.31.795.464 1.316.464M76.42 46.344c-1.11 0-1.952-.357-2.53-1.07-.575-.714-.863-1.77-.863-3.17V35.35h2.756v6.155c0 1.66.597 2.491 1.79 2.491.534 0 1.052-.161 1.552-.484.5-.322.908-.812 1.224-1.471v-6.69h2.756v7.616c0 .288.051.494.154.617.103.124.27.193.504.206v2.347a5.73 5.73 0 0 1-1.193.124c-.493 0-.894-.114-1.203-.34a1.338 1.338 0 0 1-.545-.937l-.061-.864a4.61 4.61 0 0 1-1.851 1.668 5.573 5.573 0 0 1-2.49.555M95.856 46.138H93.1v-6.052c0-.865-.15-1.496-.453-1.894-.301-.398-.72-.597-1.254-.597a2.36 2.36 0 0 0-.843.165c-.288.11-.558.264-.813.463a3.778 3.778 0 0 0-.689.71 2.81 2.81 0 0 0-.452.906v6.299H85.84V35.351h2.49v1.997c.397-.686.972-1.222 1.727-1.605.753-.385 1.604-.577 2.55-.577.671 0 1.22.123 1.645.37.425.248.753.57.987.968.233.398.393.852.483 1.359.09.507.134 1.022.134 1.543v6.732M104.617 45.583c-.37.165-.822.329-1.357.494a5.715 5.715 0 0 1-1.687.246 3.93 3.93 0 0 1-1.08-.144 2.341 2.341 0 0 1-.883-.463 2.257 2.257 0 0 1-.608-.823c-.15-.336-.226-.744-.226-1.226v-6.195h-1.419v-2.12h1.42v-3.5h2.755v3.5h2.263v2.12h-2.263v5.27c0 .384.1.655.299.813.198.158.442.236.73.236s.568-.048.843-.144c.274-.096.493-.178.658-.247l.555 2.183M110.766 46.344c-.877 0-1.665-.151-2.365-.453a5.303 5.303 0 0 1-1.778-1.225 5.391 5.391 0 0 1-1.122-1.781 5.813 5.813 0 0 1-.39-2.12c0-.754.13-1.468.39-2.14a5.39 5.39 0 0 1 1.122-1.78 5.31 5.31 0 0 1 1.778-1.226c.7-.302 1.488-.453 2.365-.453.878 0 1.663.151 2.356.453a5.34 5.34 0 0 1 1.768 1.225c.487.515.86 1.108 1.121 1.78.26.673.39 1.387.39 2.141 0 .741-.13 1.448-.39 2.12a5.516 5.516 0 0 1-1.11 1.781 5.19 5.19 0 0 1-1.77 1.225c-.698.302-1.487.453-2.365.453m-2.817-5.579c0 .48.072.916.216 1.307.144.391.343.731.597 1.02.253.287.551.51.894.668.343.159.712.237 1.11.237.398 0 .768-.078 1.11-.237.344-.158.642-.38.896-.669a3.17 3.17 0 0 0 .596-1.03c.144-.397.216-.836.216-1.316 0-.467-.072-.9-.216-1.297a3.173 3.173 0 0 0-.596-1.03 2.685 2.685 0 0 0-.895-.669 2.633 2.633 0 0 0-1.11-.236c-.399 0-.768.082-1.111.247-.343.164-.641.39-.894.679a3.168 3.168 0 0 0-.597 1.03 3.79 3.79 0 0 0-.216 1.296" fill="#FFFFFE"/><g transform="translate(106.894 14.658)"><mask id="d" fill="#fff"><use xlink:href="#c"/></mask><path d="M21.375 31.48h-2.756v-6.052c0-.865-.151-1.496-.453-1.894-.301-.398-.72-.596-1.254-.596-.274 0-.555.054-.843.164-.288.11-.56.264-.813.463a3.797 3.797 0 0 0-.69.71 2.814 2.814 0 0 0-.451.906v6.299h-2.756V20.693h2.489v1.997c.397-.686.973-1.222 1.727-1.605.753-.385 1.604-.577 2.55-.577.671 0 1.22.123 1.645.37.425.248.754.57.988.968.233.398.393.852.482 1.359.09.507.135 1.022.135 1.544v6.731" fill="#FFFFFE" mask="url(#d)"/><path d="M3.945 43.568c-1.3.265-2.606.52-3.912.758h21.359c5.72-1.44 11.37-3.158 16.91-5.209 10.687-3.955 21.289-9.499 29.682-17.333l.028-5.819L67.984.121C59.117 25.713 30.165 38.203 3.945 43.568" fill="#FFFFFE" mask="url(#d)"/></g><path d="M157.431 23.281c-.37.165-.822.33-1.357.495a5.715 5.715 0 0 1-1.686.246c-.385 0-.744-.048-1.08-.144a2.345 2.345 0 0 1-.885-.463 2.257 2.257 0 0 1-.606-.824c-.152-.335-.226-.744-.226-1.224V15.17h-1.42V13.05h1.42v-3.5h2.755v3.5h2.263v2.12h-2.263v5.27c0 .385.1.656.299.814.198.157.441.236.729.236.289 0 .57-.048.844-.144.274-.096.493-.178.658-.247l.555 2.182" fill="#FFFFFE"/></g></svg>
