<?xml version="1.0" encoding="UTF-8"?>
<svg width="175px" height="59px" viewBox="0 0 175 59" version="1.1" xmlns="http://www.w3.org/2000/svg" xmlns:xlink="http://www.w3.org/1999/xlink">
    <!-- Generator: Sketch 51.3 (57544) - http://www.bohemiancoding.com/sketch -->
    <title>new logo</title>
    <desc>Created with Sketch.</desc>
    <defs>
        <polygon id="path-1" points="0.0183246073 0.0745906736 174.877531 0.0745906736 174.877531 58.981658 0.0183246073 58.981658"></polygon>
        <polygon id="path-3" points="0.0326788831 0.120751295 68.0120855 0.120751295 68.0120855 44.3080829 0.0326788831 44.3080829"></polygon>
    </defs>
    <g id="Symbols" stroke="none" stroke-width="1" fill="none" fill-rule="evenodd">
        <g id="headers/@mobileheader" transform="translate(-21.000000, -13.000000)">
            <g id="new-logo" transform="translate(21.000000, 12.984375)">
                <g id="Group-3" stroke-width="1">
                    <mask id="mask-2" fill="white">
                        <use xlink:href="#path-1"></use>
                    </mask>
                    <g id="Clip-2"></g>
                    <polyline id="Fill-1" fill="#07818C" mask="url(#mask-2)" points="174.877531 59 174.877531 31.2342332 174.860122 0.0745906736 0 0.0745906736 0 59 174.877531 59"></polyline>
                </g>
                <path d="M17.9727749,13.0655959 C17.8768761,12.9699119 17.7015707,12.8393782 17.4483857,12.6743005 C17.1942845,12.5101399 16.8861257,12.3484249 16.5226876,12.1906839 C16.1592496,12.032943 15.7652705,11.8993523 15.3398342,11.7889948 C14.9150087,11.6795544 14.4831588,11.6248342 14.0442845,11.6248342 C13.2633508,11.6248342 12.6803229,11.7688187 12.2961169,12.0570933 C11.9122164,12.3450622 11.7204188,12.750114 11.7204188,13.2716373 C11.7204188,13.5733627 11.7924956,13.8246477 11.9363438,14.0233523 C12.0804974,14.2223627 12.2897033,14.3969171 12.5636562,14.5473212 C12.8379145,14.6986425 13.1836387,14.8355959 13.6020506,14.9594041 C14.0201571,15.082601 14.5033159,15.2137461 15.0518325,15.3506995 C15.7652705,15.5432902 16.4124346,15.7484145 16.9954625,15.9682124 C17.5784904,16.1880104 18.0723386,16.4622228 18.4760908,16.7917668 C18.8804538,17.1206995 19.1925829,17.5159689 19.4121728,17.9757409 C19.6314572,18.4352073 19.7410995,19.001057 19.7410995,19.6739016 C19.7410995,20.4564922 19.5938918,21.1253627 19.2985602,21.6808187 C19.0044503,22.236886 18.6071117,22.6859585 18.1062391,23.0289534 C17.6059773,23.3725596 17.029363,23.6229275 16.3788394,23.7806684 C15.7273997,23.9377979 15.0454188,24.0175855 14.3322862,24.0175855 C13.2352531,24.0175855 12.1528796,23.8525078 11.0833333,23.5232694 C10.0137871,23.1940311 9.05357766,22.7281451 8.20362129,22.1234715 L9.45794066,19.6739016 C9.58102094,19.7974041 9.80458115,19.9582021 10.1264834,20.1569067 C10.4486911,20.3565285 10.8292321,20.5555389 11.2681065,20.7542435 C11.7066754,20.9538653 12.1938045,21.1223057 12.7285777,21.2589534 C13.2633508,21.3959067 13.8109511,21.4649948 14.373822,21.4649948 C15.9366056,21.4649948 16.7181501,20.9636477 16.7181501,19.9621762 C16.7181501,19.6466943 16.6289703,19.3785959 16.4503054,19.1587979 C16.2725567,18.9399171 16.0193717,18.7476321 15.6895288,18.5825544 C15.3606021,18.4174767 14.9626527,18.2670725 14.4969023,18.1295078 C14.030541,17.9925544 13.5095113,17.8412332 12.9338133,17.6770725 C12.2347295,17.4847876 11.6275742,17.2753834 11.1138743,17.0491658 C10.5992583,16.8223368 10.1713787,16.5548497 9.82809773,16.2457876 C9.48542757,15.9376425 9.22888307,15.5802798 9.05754799,15.1755337 C8.88560209,14.771399 8.80008726,14.2874767 8.80008726,13.7240725 C8.80008726,12.9833627 8.93691099,12.3242746 9.21116928,11.7480311 C9.48542757,11.1714819 9.86566318,10.6918394 10.3530977,10.3072694 C10.8396161,9.92300518 11.4049302,9.63167358 12.0490401,9.43205181 C12.6940663,9.23334715 13.3864311,9.13338342 14.1270506,9.13338342 C15.1547557,9.13338342 16.1012216,9.29540415 16.9649215,9.6182228 C17.8286213,9.94012435 18.5820681,10.3207202 19.2270942,10.7603161 L17.9727749,13.0655959" id="Fill-4" fill="#FFFFFE"></path>
                <path d="M26.5896161,24.0585492 C25.7121728,24.0585492 24.9242147,23.907228 24.2245201,23.6055026 C23.5257417,23.3043886 22.9323298,22.8953627 22.4458115,22.3811762 C21.9592932,21.8657668 21.5854712,21.2727098 21.324651,20.5998653 C21.0641361,19.9276321 20.9340314,19.2208549 20.9340314,18.4795337 C20.9340314,17.7253731 21.0641361,17.0112591 21.324651,16.3393316 C21.5854712,15.6661813 21.9592932,15.0731244 22.4458115,14.5586321 C22.9323298,14.0435285 23.5257417,13.6354197 24.2245201,13.3336943 C24.9242147,13.0316632 25.7121728,12.880342 26.5896161,12.880342 C27.4670593,12.880342 28.2519634,13.0316632 28.9449389,13.3336943 C29.6366928,13.6354197 30.2270506,14.0435285 30.7132635,14.5586321 C31.2000873,15.0731244 31.572993,15.6661813 31.8344241,16.3393316 C32.0940227,17.0112591 32.225349,17.7253731 32.225349,18.4795337 C32.225349,19.2208549 32.0940227,19.9276321 31.8344241,20.5998653 C31.572993,21.2727098 31.2031414,21.8657668 30.7239529,22.3811762 C30.2438482,22.8953627 29.6544066,23.3043886 28.954712,23.6055026 C28.2559337,23.907228 27.4670593,24.0585492 26.5896161,24.0585492 M23.7725131,18.4795337 C23.7725131,18.9600933 23.8442845,19.395715 23.9881326,19.7867047 C24.1322862,20.178 24.3308028,20.5176321 24.584904,20.805601 C24.838089,21.0938756 25.1364747,21.3170363 25.4791449,21.4747772 C25.8215096,21.6334352 26.1922775,21.7113886 26.5896161,21.7113886 C26.9869546,21.7113886 27.3577225,21.6334352 27.7000873,21.4747772 C28.0427574,21.3170363 28.3411431,21.0938756 28.5952443,20.805601 C28.8484293,20.5176321 29.0472513,20.174943 29.1920157,19.7763109 C29.3349476,19.3785959 29.4076353,18.9399171 29.4076353,18.4593575 C29.4076353,17.9925544 29.3349476,17.5602953 29.1920157,17.1625803 C29.0472513,16.7642539 28.8484293,16.4212591 28.5952443,16.1332902 C28.3411431,15.8450155 28.0427574,15.6218549 27.7000873,15.4635026 C27.3577225,15.3066788 26.9869546,15.2275026 26.5896161,15.2275026 C26.1922775,15.2275026 25.8215096,15.3097358 25.4791449,15.4748135 C25.1364747,15.6389741 24.838089,15.8651917 24.584904,16.1531606 C24.3308028,16.4414352 24.1322862,16.7853472 23.9881326,17.1827565 C23.8442845,17.5813886 23.7725131,18.0136477 23.7725131,18.4795337" id="Fill-5" fill="#FFFFFE"></path>
                <path d="M50.8165794,23.8525078 L48.0608639,23.8525078 L48.0608639,17.8002694 C48.0608639,16.9357513 47.9136562,16.3047876 47.61863,15.9064611 C47.3232984,15.5087461 46.9155759,15.3097358 46.3954625,15.3097358 C45.8460297,15.3097358 45.3323298,15.5191399 44.8522251,15.9376425 C44.3730366,16.3564508 44.0294503,16.9012073 43.8245201,17.5740518 L43.8245201,23.8525078 L41.0678883,23.8525078 L41.0678883,17.8002694 C41.0678883,16.9357513 40.9206806,16.3047876 40.6262653,15.9064611 C40.3312391,15.5087461 39.9235166,15.3097358 39.4024869,15.3097358 C38.8677138,15.3097358 38.3567627,15.5151658 37.8705497,15.9272487 C37.3831152,16.3387202 37.0373909,16.8810311 36.8315445,17.5532642 L36.8315445,23.8525078 L34.0755236,23.8525078 L34.0755236,13.0659016 L36.5643106,13.0659016 L36.5643106,15.0627306 C36.9616492,14.3623731 37.5068063,13.8240363 38.199171,13.4464974 C38.8915358,13.0689585 39.6831588,12.8806477 40.5749564,12.8806477 C41.4795812,12.8806477 42.1789703,13.1004456 42.6722077,13.5391244 C43.1657504,13.9784145 43.4812391,14.520114 43.6186736,15.1651399 C44.0569372,14.4244301 44.6124782,13.8585803 45.2846859,13.4675907 C45.9562827,13.0762953 46.7243892,12.8806477 47.5877836,12.8806477 C48.245637,12.8806477 48.78774,13.0038446 49.21226,13.2508497 C49.6367801,13.4981606 49.9660122,13.8206736 50.1999564,14.2183886 C50.4329843,14.616715 50.5939354,15.0700674 50.6831152,15.5772228 C50.7716841,16.0849896 50.8165794,16.5994819 50.8165794,17.1210052 L50.8165794,23.8525078" id="Fill-6" fill="#FFFFFE"></path>
                <path d="M58.2203316,24.0585492 C57.3566318,24.0585492 56.5750873,23.910285 55.8753927,23.6158964 C55.1766143,23.3212021 54.5798429,22.919513 54.0859948,22.4117461 C53.592452,21.9045907 53.211911,21.3136736 52.9449825,20.6414404 C52.6771379,19.969513 52.5436736,19.2618187 52.5436736,18.5214145 C52.5436736,17.7525803 52.6737784,17.0280725 52.9345986,16.3488083 C53.1951134,15.669544 53.5722949,15.0731244 54.0658377,14.5586321 C54.5596859,14.0435285 55.1585951,13.6354197 55.8656195,13.3336943 C56.5717277,13.0316632 57.3630454,12.880342 58.2404887,12.880342 C59.1185428,12.880342 59.9034468,13.0316632 60.5958115,13.3336943 C61.28726,13.6354197 61.8776178,14.0404715 62.3641361,14.5473212 C62.8506545,15.0560052 63.2205061,15.6463109 63.4746073,16.3182383 C63.729014,16.9904715 63.8560646,17.690829 63.8560646,18.4174767 C63.8560646,18.5963109 63.8517888,18.7675026 63.844459,18.9325803 C63.8380454,19.097658 63.8212478,19.2346114 63.7937609,19.3449689 L55.4643106,19.3449689 C55.5052356,19.7698912 55.6084642,20.1474301 55.7724695,20.4766684 C55.9370855,20.805601 56.149651,21.087456 56.4101658,21.3210104 C56.6706806,21.5542591 56.9657068,21.7321762 57.2946335,21.8562902 C57.6235602,21.979487 57.9662304,22.0412383 58.3232548,22.0412383 C58.8717714,22.0412383 59.3888307,21.9070363 59.8759599,21.6398549 C60.3624782,21.3723679 60.6947644,21.0189793 60.8731239,20.5796891 L63.2382199,21.2381658 C62.8402705,22.0614145 62.2065445,22.7376218 61.3355148,23.2655648 C60.4647906,23.7944249 59.4267016,24.0585492 58.2203316,24.0585492 M61.0172775,17.5529585 C60.9488656,16.7440777 60.6504799,16.0953834 60.1227312,15.6084041 C59.5946771,15.1214249 58.9536213,14.8774767 58.1995637,14.8774767 C57.8294066,14.8774767 57.4827661,14.9425907 57.1611693,15.0731244 C56.8386562,15.2033523 56.554014,15.3855492 56.3072426,15.6178808 C56.0601658,15.8523523 55.8582897,16.1332902 55.7006981,16.4622228 C55.5431065,16.7917668 55.4508726,17.1552435 55.4233857,17.5529585 L61.0172775,17.5529585" id="Fill-7" fill="#FFFFFE"></path>
                <path d="M71.9585951,15.4537202 C71.1223822,15.467171 70.375349,15.6282746 69.7174956,15.9373368 C69.058726,16.246399 68.5859511,16.709228 68.2979494,17.327658 L68.2979494,23.8531192 L65.5422339,23.8531192 L65.5422339,13.0652902 L68.0722513,13.0652902 L68.0722513,15.371487 C68.263438,15.0003679 68.4894415,14.6680725 68.7499564,14.3727668 C69.0104712,14.0780725 69.2920593,13.8203679 69.5934991,13.6005699 C69.8952443,13.3816891 70.2006545,13.2135544 70.5088133,13.0967772 C70.8175829,12.98 71.1159686,12.9213057 71.4036649,12.9213057 L71.743281,12.9213057 C71.817801,12.9213057 71.8901832,12.9283368 71.9585951,12.9420933 L71.9585951,15.4537202" id="Fill-8" fill="#FFFFFE"></path>
                <path d="M77.5729494,24.0585492 C76.6680192,24.0585492 75.7835515,23.9142591 74.9198517,23.6262902 C74.0561518,23.3380155 73.3155323,22.9268497 72.6989092,22.3915699 L73.7272251,20.6616166 C74.3850785,21.1287254 75.0261344,21.4818083 75.6500873,21.7217824 C76.2740401,21.9623679 76.8940227,22.0825078 77.511562,22.0825078 C78.0591623,22.0825078 78.4910122,21.979487 78.8071117,21.7734456 C79.1222949,21.5680155 79.2798866,21.2727098 79.2798866,20.8878342 C79.2798866,20.5047927 79.0951134,20.2229378 78.7243455,20.0444093 C78.3544939,19.8655751 77.7513089,19.6604508 76.915096,19.4268964 C76.2154014,19.2346114 75.6195462,19.0493575 75.1256981,18.870829 C74.6318499,18.6929119 74.2339005,18.4899275 73.9324607,18.2640155 C73.6307155,18.0368808 73.4111257,17.7767306 73.2746073,17.4814249 C73.1377836,17.1861192 73.0687609,16.8327306 73.0687609,16.4212591 C73.0687609,15.8722228 73.1747382,15.3782124 73.3879145,14.9395337 C73.6001745,14.4999378 73.8985602,14.1257617 74.2821553,13.8173109 C74.6657504,13.5082487 75.1153141,13.2716373 75.629014,13.1065596 C76.14363,12.942399 76.7019197,12.8595544 77.3057155,12.8595544 C78.1147469,12.8595544 78.8715532,12.9763316 79.5785777,13.2095803 C80.2837696,13.4431347 80.9318499,13.8206736 81.5212914,14.3421969 L80.4108202,16.0100933 C79.8623037,15.5980104 79.3315009,15.2959793 78.8174956,15.1036943 C78.3028796,14.9114093 77.7922339,14.8154197 77.2849476,14.8154197 C76.8185864,14.8154197 76.4285777,14.9114093 76.1124782,15.1036943 C75.7972949,15.2959793 75.6397033,15.6050415 75.6397033,16.0299637 C75.6397033,16.2225544 75.6775742,16.3802953 75.7530105,16.5034922 C75.827836,16.6276062 75.9484729,16.7367409 76.1124782,16.8327306 C76.2770942,16.9293316 76.4927138,17.0219585 76.7605585,17.1103057 C77.0274869,17.200487 77.3603839,17.293114 77.7577225,17.3887979 C78.4983421,17.5813886 79.1320681,17.7727565 79.6604276,17.9650415 C80.1878709,18.1576321 80.6197208,18.376513 80.9559773,18.6235181 C81.2919284,18.870829 81.5390052,19.1557409 81.6965969,19.4785596 C81.8541885,19.8013782 81.9329843,20.1883938 81.9329843,20.6414404 C81.9329843,21.6985492 81.5420593,22.5315803 80.7605148,23.1426736 C79.9789703,23.7534611 78.9167539,24.0585492 77.5729494,24.0585492" id="Fill-9" fill="#FFFFFE"></path>
                <path d="M88.719808,24.0585492 C87.8561082,24.0585492 87.0742583,23.910285 86.3754799,23.6158964 C85.6760908,23.3212021 85.0793194,22.919513 84.5854712,22.4117461 C84.091623,21.9045907 83.7123037,21.3136736 83.444459,20.6414404 C83.1775305,19.969513 83.0431501,19.2618187 83.0431501,18.5214145 C83.0431501,17.7525803 83.1732548,17.0280725 83.434075,16.3488083 C83.6945899,15.669544 84.0717714,15.0731244 84.5656195,14.5586321 C85.0591623,14.0435285 85.6589878,13.6354197 86.365096,13.3336943 C87.0712042,13.0316632 87.8625218,12.880342 88.7399651,12.880342 C89.6180192,12.880342 90.4029232,13.0316632 91.095288,13.3336943 C91.7870419,13.6354197 92.3770942,14.0404715 92.8636126,14.5473212 C93.3501309,15.0560052 93.7199825,15.6463109 93.9740838,16.3182383 C94.228185,16.9904715 94.3552356,17.690829 94.3552356,18.4174767 C94.3552356,18.5963109 94.3512653,18.7675026 94.3442408,18.9325803 C94.3378272,19.097658 94.3207243,19.2346114 94.2935428,19.3449689 L85.9637871,19.3449689 C86.004712,19.7698912 86.1079407,20.1474301 86.2719459,20.4766684 C86.4368674,20.805601 86.6497382,21.087456 86.9096422,21.3210104 C87.1701571,21.5542591 87.4651832,21.7321762 87.7941099,21.8562902 C88.1230366,21.979487 88.4657068,22.0412383 88.8227312,22.0412383 C89.3709424,22.0412383 89.8883072,21.9070363 90.3757417,21.6398549 C90.8619546,21.3723679 91.1942408,21.0189793 91.3726003,20.5796891 L93.7376963,21.2381658 C93.3397469,22.0614145 92.7060209,22.7376218 91.8349913,23.2655648 C90.964267,23.7944249 89.9258726,24.0585492 88.719808,24.0585492 M91.5167539,17.5529585 C91.4483421,16.7440777 91.1499564,16.0953834 90.6225131,15.6084041 C90.0941536,15.1214249 89.4530977,14.8774767 88.6987347,14.8774767 C88.3288831,14.8774767 87.982548,14.9425907 87.6606457,15.0731244 C87.3381326,15.2033523 87.0534904,15.3855492 86.806719,15.6178808 C86.5596422,15.8523523 86.3580716,16.1332902 86.2004799,16.4622228 C86.0428883,16.7917668 85.950349,17.1552435 85.9228621,17.5529585 L91.5167539,17.5529585" id="Fill-10" fill="#FFFFFE"></path>
                <path d="M102.417147,23.2970518 C102.04699,23.4618238 101.594372,23.6259845 101.059599,23.7913679 C100.524825,23.9555285 99.9628709,24.037456 99.3731239,24.037456 C98.988918,24.037456 98.6294503,23.9891554 98.2931937,23.8934715 C97.9572426,23.798399 97.6628272,23.6440207 97.4096422,23.4306425 C97.155541,23.2181813 96.9536649,22.9436632 96.8021815,22.6070881 C96.6513089,22.2714301 96.5764834,21.8627098 96.5764834,21.3821503 L96.5764834,15.1865389 L95.1569372,15.1865389 L95.1569372,13.0655959 L96.5764834,13.0655959 L96.5764834,9.56564249 L99.332199,9.56564249 L99.332199,13.0655959 L101.594372,13.0655959 L101.594372,15.1865389 L99.332199,15.1865389 L99.332199,20.4564922 C99.332199,20.8404508 99.4311518,21.1116062 99.6305846,21.2693472 C99.8284904,21.4270881 100.072208,21.5059585 100.359904,21.5059585 C100.648822,21.5059585 100.929494,21.457658 101.203752,21.3619741 C101.47801,21.2659845 101.697295,21.1831399 101.862216,21.1149689 L102.417147,23.2970518" id="Fill-11" fill="#FFFFFE"></path>
                <polyline id="Fill-12" fill="#FFFFFE" points="113.398778 9.27797927 116.010951 9.27797927 117.656195 14.1153679 119.30144 9.27797927 121.93438 9.27797927 119.445593 15.9272487 121.296684 20.5998653 125.430105 9.23670984 128.514747 9.23670984 122.571161 23.8525078 120.185908 23.8525078 117.656195 17.718342 115.126178 23.8525078 112.740925 23.8525078 106.838569 9.23670984 109.882286 9.23670984 114.036475 20.5998653 115.84664 15.9272487 113.398778 9.27797927"></polyline>
                <path d="M133.430628,24.0585492 C132.567234,24.0585492 131.785384,23.910285 131.085689,23.6158964 C130.386911,23.3212021 129.79014,22.919513 129.296597,22.4117461 C128.802749,21.9045907 128.422208,21.3136736 128.155279,20.6414404 C127.887435,19.969513 127.75397,19.2618187 127.75397,18.5214145 C127.75397,17.7525803 127.884075,17.0280725 128.144895,16.3488083 C128.40541,15.669544 128.782592,15.0731244 129.276134,14.5586321 C129.769983,14.0435285 130.369197,13.6354197 131.076222,13.3336943 C131.782024,13.0316632 132.573342,12.880342 133.450785,12.880342 C134.328839,12.880342 135.113743,13.0316632 135.806108,13.3336943 C136.497862,13.6354197 137.087914,14.0404715 137.574433,14.5473212 C138.060951,15.0560052 138.431108,15.6463109 138.685209,16.3182383 C138.939311,16.9904715 139.065445,17.690829 139.065445,18.4174767 C139.065445,18.5963109 139.062086,18.7675026 139.055061,18.9325803 C139.048342,19.097658 139.031545,19.2346114 139.004363,19.3449689 L130.674607,19.3449689 C130.715838,19.7698912 130.818761,20.1474301 130.982766,20.4766684 C131.147688,20.805601 131.359642,21.087456 131.620462,21.3210104 C131.880977,21.5542591 132.176003,21.7321762 132.50493,21.8562902 C132.834162,21.979487 133.176527,22.0412383 133.533551,22.0412383 C134.081763,22.0412383 134.599127,21.9070363 135.086562,21.6398549 C135.572775,21.3723679 135.905061,21.0189793 136.083421,20.5796891 L138.448517,21.2381658 C138.050567,22.0614145 137.416841,22.7376218 136.546117,23.2655648 C135.675087,23.7944249 134.636998,24.0585492 133.430628,24.0585492 M136.227574,17.5529585 C136.158246,16.7440777 135.860777,16.0953834 135.333333,15.6084041 C134.804974,15.1214249 134.163918,14.8774767 133.409555,14.8774767 C133.039703,14.8774767 132.693368,14.9425907 132.371466,15.0731244 C132.048953,15.2033523 131.764616,15.3855492 131.517539,15.6178808 C131.270462,15.8523523 131.068586,16.1332902 130.9113,16.4622228 C130.753403,16.7917668 130.660864,17.1552435 130.633682,17.5529585 L136.227574,17.5529585" id="Fill-13" fill="#FFFFFE"></path>
                <path d="M144.823953,24.0585492 C143.919328,24.0585492 143.03486,23.9142591 142.171161,23.6262902 C141.307461,23.3380155 140.566841,22.9268497 139.949913,22.3915699 L140.978534,20.6616166 C141.636387,21.1287254 142.277138,21.4818083 142.901091,21.7217824 C143.525349,21.9623679 144.145332,22.0825078 144.762871,22.0825078 C145.310471,22.0825078 145.742321,21.979487 146.058421,21.7734456 C146.373909,21.5680155 146.531195,21.2727098 146.531195,20.8878342 C146.531195,20.5047927 146.346422,20.2229378 145.975654,20.0444093 C145.605803,19.8655751 145.002618,19.6604508 144.166405,19.4268964 C143.46671,19.2346114 142.870855,19.0493575 142.377007,18.870829 C141.883159,18.6929119 141.485209,18.4899275 141.183464,18.2640155 C140.882024,18.0368808 140.662435,17.7767306 140.525916,17.4814249 C140.389092,17.1861192 140.319764,16.8327306 140.319764,16.4212591 C140.319764,15.8722228 140.426047,15.3782124 140.639223,14.9395337 C140.851483,14.4999378 141.149869,14.1257617 141.533464,13.8173109 C141.917059,13.5082487 142.366318,13.2716373 142.880323,13.1065596 C143.395244,12.942399 143.953229,12.8595544 144.557024,12.8595544 C145.366056,12.8595544 146.122862,12.9763316 146.829887,13.2095803 C147.534773,13.4431347 148.182853,13.8206736 148.7726,14.3421969 L147.661824,16.0100933 C147.113307,15.5980104 146.58281,15.2959793 146.068805,15.1036943 C145.554188,14.9114093 145.043543,14.8154197 144.536257,14.8154197 C144.069895,14.8154197 143.679581,14.9114093 143.363787,15.1036943 C143.048604,15.2959793 142.890707,15.6050415 142.890707,16.0299637 C142.890707,16.2225544 142.928578,16.3802953 143.004014,16.5034922 C143.078839,16.6276062 143.199782,16.7367409 143.363787,16.8327306 C143.528403,16.9293316 143.744023,17.0219585 144.011867,17.1103057 C144.278796,17.200487 144.611693,17.293114 145.009031,17.3887979 C145.749651,17.5813886 146.383377,17.7727565 146.911736,17.9650415 C147.43918,18.1576321 147.87103,18.376513 148.206981,18.6235181 C148.543237,18.870829 148.790314,19.1557409 148.947906,19.4785596 C149.105497,19.8013782 149.184293,20.1883938 149.184293,20.6414404 C149.184293,21.6985492 148.793368,22.5315803 148.011824,23.1426736 C147.229974,23.7534611 146.168063,24.0585492 144.823953,24.0585492" id="Fill-14" fill="#FFFFFE"></path>
                <path d="M11.9467277,46.3596321 C11.4256981,46.3596321 10.9391798,46.2734249 10.4862565,46.1019275 C10.0336387,45.9313472 9.64363002,45.690456 9.3140925,45.3816995 C8.98486038,45.0732487 8.72862129,44.712829 8.54262653,44.3013575 C8.3578534,43.8892746 8.26531414,43.4359223 8.26531414,42.9425233 C8.26531414,42.4347565 8.37862129,41.9645907 8.60462478,41.5323316 C8.83062827,41.1000725 9.14581152,40.7329275 9.55109075,40.4312021 C9.95484293,40.129171 10.4380017,39.8925596 11.0008726,39.7204508 C11.5631326,39.5489534 12.1800611,39.4636632 12.8513525,39.4636632 C13.3314572,39.4636632 13.801178,39.5046269 14.2602094,39.5868601 C14.7195462,39.6690933 15.1272688,39.7855648 15.4842932,39.936886 L15.4842932,39.3187617 C15.4842932,38.6055648 15.2818063,38.0568342 14.8771379,37.6719585 C14.4727749,37.288 13.872644,37.095715 13.077356,37.095715 C12.5016579,37.095715 11.9393979,37.1984301 11.3908813,37.4047772 C10.8426702,37.6108187 10.2804101,37.912544 9.70471204,38.3111762 L8.86208551,36.5604352 C10.246815,35.6418083 11.7408813,35.1814249 13.3452007,35.1814249 C14.8939354,35.1814249 16.0978621,35.5620207 16.9542321,36.3244352 C17.8115183,37.0859326 18.2403141,38.1870622 18.2403141,39.6278238 L18.2403141,42.983487 C18.2403141,43.2717617 18.291623,43.4778031 18.3939354,43.601 C18.4974695,43.7241969 18.6648342,43.793285 18.8978621,43.8070415 L18.8978621,46.153285 C18.4315009,46.2492746 18.0271379,46.2975751 17.6844677,46.2975751 C17.163438,46.2975751 16.7621291,46.1807979 16.4814572,45.9481606 C16.1998691,45.7146062 16.0254799,45.405544 15.9570681,45.0215855 L15.8950698,44.4245544 C15.4152705,45.0555181 14.8328534,45.5360777 14.1469023,45.8653161 C13.4618674,46.1945544 12.7282723,46.3596321 11.9467277,46.3596321 M12.7282723,44.3423212 C13.1940227,44.3423212 13.6362565,44.2594767 14.0546684,44.0953161 C14.4727749,43.9302383 14.7983421,43.7113575 15.03137,43.4359223 C15.3331152,43.203285 15.4842932,42.9425233 15.4842932,42.6545544 L15.4842932,41.4189171 C15.1553665,41.2957202 14.7983421,41.1960622 14.4147469,41.1202487 C14.0311518,41.0453523 13.6603839,41.0074456 13.3039703,41.0074456 C12.5908377,41.0074456 12.008726,41.1685492 11.5558028,41.4913679 C11.103185,41.8141865 10.8771815,42.2222953 10.8771815,42.7163057 C10.8771815,43.1824974 11.0549302,43.5704301 11.4119546,43.8788808 C11.7683682,44.187943 12.2072426,44.3423212 12.7282723,44.3423212" id="Fill-16" fill="#FFFFFE"></path>
                <path d="M30.8265707,46.1535907 L28.0705497,46.1535907 L28.0705497,40.101658 C28.0705497,39.2368342 27.9193717,38.6058705 27.6179319,38.207544 C27.3161867,37.809829 26.8980803,37.6111244 26.3633072,37.6111244 C26.0890489,37.6111244 25.808377,37.6658446 25.5203752,37.775285 C25.2326789,37.8856425 24.9614747,38.0400207 24.7073735,38.2387254 C24.4541885,38.4377358 24.2242147,38.6743472 24.0183682,38.9488653 C23.813438,39.2233834 23.66226,39.5251088 23.5663613,39.8543472 L23.5663613,46.1535907 L20.8106457,46.1535907 L20.8106457,35.3669845 L23.2994328,35.3669845 L23.2994328,37.3638135 C23.6967714,36.6772124 24.2724695,36.1419326 25.0268325,35.7582798 C25.7802792,35.3740155 26.6311518,35.1817306 27.5767016,35.1817306 C28.2482984,35.1817306 28.796815,35.3049275 29.2222513,35.5519326 C29.6467714,35.7992435 29.9756981,36.1217565 30.2096422,36.5194715 C30.4420593,36.9177979 30.6030105,37.3711503 30.6921902,37.8783057 C30.78137,38.3860725 30.8265707,38.9005648 30.8265707,39.4220881 L30.8265707,46.1535907" id="Fill-17" fill="#FFFFFE"></path>
                <path d="M37.6952443,46.3596321 C36.9546248,46.3596321 36.2686736,46.215342 35.6383072,45.9273731 C35.0076353,45.6390984 34.4658377,45.2413834 34.0138307,44.7336166 C33.5612129,44.225544 33.2081588,43.632487 32.9546684,42.9523057 C32.7005672,42.2736528 32.5744328,41.5427254 32.5744328,40.7604404 C32.5744328,39.9781554 32.6941536,39.250285 32.9339005,38.5783575 C33.1736475,37.9061244 33.5062391,37.3161244 33.9319808,36.8074404 C34.3565009,36.300285 34.8637871,35.9019585 35.4532286,35.6136839 C36.0426702,35.325715 36.6876963,35.1814249 37.3864747,35.1814249 C38.1817627,35.1814249 38.8982548,35.3737098 39.5359511,35.7579741 C40.1739529,36.142544 40.6699389,36.6432798 41.0269634,37.260487 L41.0269634,31.1263212 L43.7826789,31.1263212 L43.7826789,42.983487 C43.7826789,43.2717617 43.8312391,43.4778031 43.9268325,43.601 C44.0224258,43.7241969 44.1873473,43.793285 44.4206806,43.8070415 L44.4206806,46.153285 C43.9405759,46.2492746 43.549651,46.2975751 43.2479058,46.2975751 C42.754363,46.2975751 42.35,46.1743782 42.0345113,45.9273731 C41.7193281,45.6800622 41.5409686,45.3581606 41.4997382,44.9598342 L41.4386562,44.2802642 C41.0407068,44.967171 40.5025742,45.4844145 39.8239529,45.8347461 C39.1453316,46.184772 38.4358639,46.3596321 37.6952443,46.3596321 M38.415096,44.0130829 C38.6756108,44.0130829 38.9425393,43.9678394 39.2167976,43.8788808 C39.4910558,43.790228 39.7451571,43.663057 39.978185,43.4979793 C40.2109075,43.3338187 40.419808,43.141228 40.6054974,42.9217358 C40.7905759,42.7019378 40.9304538,42.4619637 41.0269634,42.2012021 L41.0269634,39.6278238 C40.9167103,39.3260984 40.7624782,39.0482176 40.5645724,38.7938756 C40.3651396,38.5404508 40.1391361,38.3206528 39.8859511,38.135399 C39.6318499,37.9504508 39.3640052,37.8031036 39.0833333,37.6927461 C38.8026614,37.5833057 38.5244328,37.5285855 38.2501745,37.5285855 C37.8390925,37.5285855 37.4588569,37.6181554 37.1091623,37.7957668 C36.7591623,37.974601 36.4607766,38.2176321 36.2149215,38.5266943 C35.9681501,38.8348394 35.7757417,39.1891451 35.6383072,39.5868601 C35.5014834,39.9851865 35.433377,40.396658 35.433377,40.8221917 C35.433377,41.2746269 35.507897,41.6940466 35.659075,42.0770881 C35.8093368,42.4619637 36.0154887,42.7985389 36.2760035,43.0868135 C36.5365183,43.3747824 36.8486475,43.601 37.2120855,43.7660777 C37.5746073,43.9302383 37.9759162,44.0130829 38.415096,44.0130829" id="Fill-18" fill="#FFFFFE"></path>
                <polyline id="Fill-19" fill="#FFFFFE" points="62.045288 34.0286321 57.3770942 34.0286321 57.3770942 46.153285 54.5593805 46.153285 54.5593805 34.0286321 49.8902705 34.0286321 49.8902705 31.537487 62.045288 31.537487 62.045288 34.0286321"></polyline>
                <path d="M64.2665358,46.3596321 C63.7455061,46.3596321 63.2586824,46.2734249 62.8060646,46.1019275 C62.3534468,45.9313472 61.963438,45.690456 61.6335951,45.3816995 C61.3046684,45.0732487 61.0481239,44.712829 60.8624346,44.3013575 C60.677356,43.8892746 60.5851222,43.4359223 60.5851222,42.9425233 C60.5851222,42.4347565 60.6984293,41.9645907 60.9244328,41.5323316 C61.1504363,41.1000725 61.4656195,40.7329275 61.8708988,40.4312021 C62.274651,40.129171 62.7578098,39.8925596 63.3206806,39.7204508 C63.8829407,39.5489534 64.4995637,39.4636632 65.1711606,39.4636632 C65.6512653,39.4636632 66.120986,39.5046269 66.5800175,39.5868601 C67.0393543,39.6690933 67.4470768,39.7855648 67.8041012,39.936886 L67.8041012,39.3187617 C67.8041012,38.6055648 67.6013089,38.0568342 67.1966405,37.6719585 C66.7922775,37.288 66.192452,37.095715 65.397164,37.095715 C64.821466,37.095715 64.2592059,37.1984301 63.7106894,37.4047772 C63.1624782,37.6108187 62.6002182,37.912544 62.0245201,38.3111762 L61.1815881,36.5604352 C62.5663176,35.6418083 64.0606894,35.1814249 65.6650087,35.1814249 C67.2137435,35.1814249 68.4176702,35.5620207 69.2740401,36.3244352 C70.1313264,37.0859326 70.5598168,38.1870622 70.5598168,39.6278238 L70.5598168,42.983487 C70.5598168,43.2717617 70.6114311,43.4778031 70.713438,43.601 C70.8163613,43.7241969 70.9843368,43.793285 71.2176702,43.8070415 L71.2176702,46.153285 C70.7513089,46.2492746 70.3466405,46.2975751 70.0042757,46.2975751 C69.4829407,46.2975751 69.0819372,46.1807979 68.8012653,45.9481606 C68.5196771,45.7146062 68.345288,45.405544 68.2768761,45.0215855 L68.2148778,44.4245544 C67.7347731,45.0555181 67.1526614,45.5360777 66.4667103,45.8653161 C65.7816754,46.1945544 65.0480803,46.3596321 64.2665358,46.3596321 M65.0480803,44.3423212 C65.5138307,44.3423212 65.9560646,44.2594767 66.374171,44.0953161 C66.7922775,43.9302383 67.1181501,43.7113575 67.351178,43.4359223 C67.6529232,43.203285 67.8041012,42.9425233 67.8041012,42.6545544 L67.8041012,41.4189171 C67.4751745,41.2957202 67.1181501,41.1960622 66.734555,41.1202487 C66.3509599,41.0453523 65.980192,41.0074456 65.6240838,41.0074456 C64.9106457,41.0074456 64.3276178,41.1685492 63.8756108,41.4913679 C63.422993,41.8141865 63.1969895,42.2222953 63.1969895,42.7163057 C63.1969895,43.1824974 63.3747382,43.5704301 63.7317627,43.8788808 C64.0878709,44.187943 64.5270506,44.3423212 65.0480803,44.3423212" id="Fill-20" fill="#FFFFFE"></path>
                <path d="M76.420637,46.3596321 C75.3101658,46.3596321 74.4675393,46.0028808 73.890925,45.2890725 C73.3149215,44.5758756 73.0272251,43.5187668 73.0272251,42.1192746 L73.0272251,35.3666788 L75.7829407,35.3666788 L75.7829407,41.5219378 C75.7829407,43.1824974 76.379712,44.0130829 77.5723386,44.0130829 C78.1071117,44.0130829 78.6247818,43.8513679 79.125349,43.5285492 C79.6253054,43.2066477 80.0330279,42.7163057 80.3491274,42.0572176 L80.3491274,35.3666788 L83.1048429,35.3666788 L83.1048429,42.983487 C83.1048429,43.2717617 83.1564572,43.4778031 83.2593805,43.601 C83.3623037,43.7241969 83.5296684,43.793285 83.7626963,43.8070415 L83.7626963,46.153285 C83.488438,46.2083109 83.2593805,46.2428549 83.0743019,46.2563057 C82.8886126,46.2700622 82.720637,46.277399 82.5700698,46.277399 C82.0765271,46.277399 81.6761344,46.1639845 81.3670593,45.9377668 C81.0582897,45.7106321 80.8765707,45.3991244 80.8219023,45.0007979 L80.7608202,44.1362798 C80.2797993,44.877601 79.6631763,45.433057 78.9097295,45.8041762 C78.1553665,46.1743782 77.3255672,46.3596321 76.420637,46.3596321" id="Fill-21" fill="#FFFFFE"></path>
                <path d="M95.8563264,46.1535907 L93.1003054,46.1535907 L93.1003054,40.101658 C93.1003054,39.2368342 92.9491274,38.6058705 92.6473822,38.207544 C92.3459424,37.809829 91.927836,37.6111244 91.3930628,37.6111244 C91.1188045,37.6111244 90.8381326,37.6658446 90.5504363,37.775285 C90.2624346,37.8856425 89.9915358,38.0400207 89.7374346,38.2387254 C89.4839442,38.4377358 89.2539703,38.6743472 89.0481239,38.9488653 C88.8428883,39.2233834 88.6917103,39.5251088 88.5961169,39.8543472 L88.5961169,46.1535907 L85.840096,46.1535907 L85.840096,35.3669845 L88.3291885,35.3669845 L88.3291885,37.3638135 C88.7265271,36.6772124 89.3022251,36.1419326 90.0565881,35.7582798 C90.8100349,35.3740155 91.6609075,35.1817306 92.6064572,35.1817306 C93.2780541,35.1817306 93.8265707,35.3049275 94.2517016,35.5519326 C94.6765271,35.7992435 95.0054538,36.1217565 95.2393979,36.5194715 C95.471815,36.9177979 95.6324607,37.3711503 95.7219459,37.8783057 C95.8111257,38.3860725 95.8563264,38.9005648 95.8563264,39.4220881 L95.8563264,46.1535907" id="Fill-22" fill="#FFFFFE"></path>
                <path d="M104.617016,45.5981347 C104.247164,45.7632124 103.794546,45.9273731 103.259773,46.0921451 C102.725,46.2563057 102.16274,46.3385389 101.573298,46.3385389 C101.189703,46.3385389 100.829625,46.2902383 100.493368,46.1945544 C100.157112,46.0994819 99.8626963,45.9451036 99.6095113,45.7317254 C99.3554101,45.5192642 99.153534,45.2447461 99.002356,44.908171 C98.851178,44.572513 98.7763525,44.1644041 98.7763525,43.6829275 L98.7763525,37.4876218 L97.3571117,37.4876218 L97.3571117,35.3666788 L98.7763525,35.3666788 L98.7763525,31.8667254 L101.532373,31.8667254 L101.532373,35.3666788 L103.794546,35.3666788 L103.794546,37.4876218 L101.532373,37.4876218 L101.532373,42.7575751 C101.532373,43.141228 101.631326,43.4126891 101.830759,43.5704301 C102.029276,43.728171 102.272993,43.8070415 102.560689,43.8070415 C102.848691,43.8070415 103.129363,43.7587409 103.403621,43.663057 C103.67788,43.5670674 103.897469,43.4842228 104.062086,43.4157461 L104.617016,45.5981347" id="Fill-23" fill="#FFFFFE"></path>
                <path d="M110.766449,46.3596321 C109.889005,46.3596321 109.101047,46.2083109 108.401353,45.9062798 C107.702574,45.6051658 107.109162,45.1964456 106.622644,44.6819534 C106.135209,44.1677668 105.761998,43.573487 105.501483,42.9006425 C105.240969,42.228715 105.110864,41.5219378 105.110864,40.7806166 C105.110864,40.0261503 105.240969,39.312342 105.501483,38.6401088 C105.761998,37.9672642 106.135209,37.3742073 106.622644,36.859715 C107.109162,36.3446114 107.702574,35.9365026 108.401353,35.6344715 C109.101047,35.3327461 109.889005,35.1814249 110.766449,35.1814249 C111.643892,35.1814249 112.428796,35.3327461 113.121771,35.6344715 C113.813525,35.9365026 114.403578,36.3446114 114.890401,36.859715 C115.376614,37.3742073 115.749825,37.9672642 116.011257,38.6401088 C116.271161,39.312342 116.401265,40.0261503 116.401265,40.7806166 C116.401265,41.5219378 116.271161,42.228715 116.011257,42.9006425 C115.749825,43.573487 115.379974,44.1677668 114.900785,44.6819534 C114.420681,45.1964456 113.831239,45.6051658 113.131545,45.9062798 C112.432766,46.2083109 111.643892,46.3596321 110.766449,46.3596321 M107.948735,40.7806166 C107.948735,41.2611762 108.021117,41.6964922 108.164965,42.0877876 C108.308813,42.4787772 108.507635,42.818715 108.761736,43.1066839 C109.014921,43.3949585 109.313307,43.6178135 109.655977,43.7758601 C109.998647,43.9342124 110.368194,44.0130829 110.766449,44.0130829 C111.163787,44.0130829 111.53425,43.9342124 111.87692,43.7758601 C112.21959,43.6178135 112.517976,43.3949585 112.772077,43.1066839 C113.025262,42.818715 113.224084,42.4757202 113.367932,42.0770881 C113.51178,41.6796788 113.584162,41.241 113.584162,40.7604404 C113.584162,40.2933316 113.51178,39.8613782 113.367932,39.4636632 C113.224084,39.0650311 113.025262,38.722342 112.772077,38.4340674 C112.517976,38.1460984 112.21959,37.9229378 111.87692,37.7645855 C111.53425,37.607456 111.163787,37.5285855 110.766449,37.5285855 C110.368194,37.5285855 109.998647,37.6108187 109.655977,37.7758964 C109.313307,37.940057 109.014921,38.1659689 108.761736,38.4542435 C108.507635,38.7425181 108.308813,39.0861244 108.164965,39.4838394 C108.021117,39.8821658 107.948735,40.3144249 107.948735,40.7806166" id="Fill-24" fill="#FFFFFE"></path>
                <g id="Group-28" stroke-width="1" transform="translate(106.893543, 14.673575)">
                    <mask id="mask-4" fill="white">
                        <use xlink:href="#path-3"></use>
                    </mask>
                    <g id="Clip-26"></g>
                    <path d="M21.3747382,31.4800155 L18.6187173,31.4800155 L18.6187173,25.4280829 C18.6187173,24.5632591 18.4675393,23.9322953 18.1660995,23.5339689 C17.8646597,23.1362539 17.4465532,22.9375492 16.9117801,22.9375492 C16.6375218,22.9375492 16.3568499,22.9922694 16.0688482,23.1017098 C15.7808464,23.2120674 15.5099476,23.3664456 15.2558464,23.5651503 C15.0026614,23.7641606 14.7726876,24.000772 14.5665358,24.2752902 C14.3616056,24.5498083 14.2104276,24.8515337 14.1148342,25.180772 L14.1148342,31.4800155 L11.3588133,31.4800155 L11.3588133,20.6934093 L13.8476003,20.6934093 L13.8476003,22.6902383 C14.2449389,22.0036373 14.820637,21.4683575 15.575,21.0847047 C16.3284468,20.7004404 17.1793194,20.5081554 18.1251745,20.5081554 C18.796466,20.5081554 19.3449825,20.6313523 19.7704188,20.8783575 C20.1949389,21.1256684 20.5238656,21.4481813 20.7578098,21.8458964 C20.9905323,22.2442228 21.151178,22.6975751 21.2403578,23.2047306 C21.3295375,23.7124974 21.3747382,24.2269896 21.3747382,24.748513 L21.3747382,31.4800155" id="Fill-25" fill="#FFFFFE" mask="url(#mask-4)"></path>
                    <path d="M3.94498255,43.5676788 C2.64454625,43.8333316 1.33861257,44.0873679 0.0326788831,44.3264249 L21.3915358,44.3264249 C27.1121728,42.8862746 32.76226,41.1682435 38.3020942,39.1173057 C48.9886998,35.1618601 59.5907068,29.6183057 67.9839878,21.7838394 L68.0120855,15.9651554 L67.9839878,0.120751295 C59.1170157,25.7126891 30.1650524,38.2029585 3.94498255,43.5676788" id="Fill-27" fill="#FFFFFE" mask="url(#mask-4)"></path>
                </g>
                <path d="M157.431283,23.2970518 C157.061431,23.4618238 156.608508,23.6259845 156.073735,23.7913679 C155.538962,23.9555285 154.976702,24.037456 154.387565,24.037456 C154.003054,24.037456 153.643586,23.9891554 153.307635,23.8934715 C152.971379,23.798399 152.676963,23.6440207 152.423473,23.4306425 C152.169372,23.2181813 151.967801,22.9436632 151.816623,22.6070881 C151.665445,22.2714301 151.59062,21.8627098 151.59062,21.3821503 L151.59062,15.1865389 L150.171073,15.1865389 L150.171073,13.0655959 L151.59062,13.0655959 L151.59062,9.56564249 L154.346335,9.56564249 L154.346335,13.0655959 L156.608508,13.0655959 L156.608508,15.1865389 L154.346335,15.1865389 L154.346335,20.4564922 C154.346335,20.8404508 154.445288,21.1116062 154.644721,21.2693472 C154.842627,21.4270881 155.086344,21.5059585 155.37404,21.5059585 C155.662958,21.5059585 155.94363,21.457658 156.217583,21.3619741 C156.491841,21.2659845 156.711431,21.1831399 156.876353,21.1149689 L157.431283,23.2970518" id="Fill-15" fill="#FFFFFE"></path>
            </g>
        </g>
    </g>
</svg>